<mxfile host="app.diagrams.net" modified="2024-07-05T14:13:25.936Z" agent="Mozilla/5.0 (Windows NT 10.0; Win64; x64; rv:127.0) Gecko/20100101 Firefox/127.0" etag="3tTwkb5CQu3aLqW7oamu" version="24.5.1" type="github" pages="2">
  <diagram name="Page-1" id="rKK8xexxyfni587mwS0s">
    <mxGraphModel dx="1274" dy="677" grid="1" gridSize="10" guides="1" tooltips="1" connect="1" arrows="1" fold="1" page="1" pageScale="1" pageWidth="2339" pageHeight="3300" math="0" shadow="0">
      <root>
        <mxCell id="0" />
        <mxCell id="1" parent="0" />
        <mxCell id="FcrP7hWVq7e1KO1kE2fM-1" value="" style="rounded=1;whiteSpace=wrap;html=1;" vertex="1" parent="1">
          <mxGeometry x="200" y="120" width="620" height="410" as="geometry" />
        </mxCell>
        <mxCell id="FcrP7hWVq7e1KO1kE2fM-2" value="" style="rounded=0;whiteSpace=wrap;html=1;" vertex="1" parent="1">
          <mxGeometry x="260" y="240" width="490" height="210" as="geometry" />
        </mxCell>
        <mxCell id="FcrP7hWVq7e1KO1kE2fM-3" value="" style="rounded=1;whiteSpace=wrap;html=1;" vertex="1" parent="1">
          <mxGeometry x="660" y="260" width="80" height="20" as="geometry" />
        </mxCell>
        <mxCell id="FcrP7hWVq7e1KO1kE2fM-4" value="" style="rounded=1;whiteSpace=wrap;html=1;" vertex="1" parent="1">
          <mxGeometry x="660" y="300" width="80" height="20" as="geometry" />
        </mxCell>
        <mxCell id="FcrP7hWVq7e1KO1kE2fM-5" value="" style="rounded=1;whiteSpace=wrap;html=1;" vertex="1" parent="1">
          <mxGeometry x="660" y="335" width="80" height="20" as="geometry" />
        </mxCell>
        <mxCell id="FcrP7hWVq7e1KO1kE2fM-6" value="" style="rounded=1;whiteSpace=wrap;html=1;" vertex="1" parent="1">
          <mxGeometry x="660" y="380" width="80" height="20" as="geometry" />
        </mxCell>
        <mxCell id="FcrP7hWVq7e1KO1kE2fM-7" value="عمل صفه جديده" style="rounded=1;whiteSpace=wrap;html=1;" vertex="1" parent="1">
          <mxGeometry x="270" y="200" width="80" height="20" as="geometry" />
        </mxCell>
        <mxCell id="FcrP7hWVq7e1KO1kE2fM-8" value="" style="rounded=1;whiteSpace=wrap;html=1;" vertex="1" parent="1">
          <mxGeometry x="850" y="130" width="620" height="410" as="geometry" />
        </mxCell>
        <mxCell id="FcrP7hWVq7e1KO1kE2fM-9" value="" style="rounded=0;whiteSpace=wrap;html=1;" vertex="1" parent="1">
          <mxGeometry x="900" y="180" width="200" height="20" as="geometry" />
        </mxCell>
        <mxCell id="FcrP7hWVq7e1KO1kE2fM-11" value="Save" style="rounded=1;whiteSpace=wrap;html=1;" vertex="1" parent="1">
          <mxGeometry x="1140" y="450" width="120" height="60" as="geometry" />
        </mxCell>
        <mxCell id="FcrP7hWVq7e1KO1kE2fM-12" value="صفات الطرف الاول" style="text;html=1;align=center;verticalAlign=middle;whiteSpace=wrap;rounded=0;" vertex="1" parent="1">
          <mxGeometry x="430" y="150" width="190" height="30" as="geometry" />
        </mxCell>
        <mxCell id="FcrP7hWVq7e1KO1kE2fM-13" value="ادخل عنوان الصفه" style="text;html=1;align=center;verticalAlign=middle;whiteSpace=wrap;rounded=0;" vertex="1" parent="1">
          <mxGeometry x="890" y="150" width="190" height="30" as="geometry" />
        </mxCell>
        <mxCell id="FcrP7hWVq7e1KO1kE2fM-14" value="" style="rounded=1;whiteSpace=wrap;html=1;" vertex="1" parent="1">
          <mxGeometry x="907" y="220" width="525" height="200" as="geometry" />
        </mxCell>
      </root>
    </mxGraphModel>
  </diagram>
  <diagram id="OooCzOuqWM-zNN3Z5gg7" name="Page-2">
    <mxGraphModel dx="1593" dy="846" grid="1" gridSize="10" guides="1" tooltips="1" connect="1" arrows="1" fold="1" page="1" pageScale="1" pageWidth="2339" pageHeight="3300" math="0" shadow="0">
      <root>
        <mxCell id="0" />
        <mxCell id="1" parent="0" />
        <mxCell id="rKacGrps_lpoe4kDHdKI-1" value="" style="rounded=1;whiteSpace=wrap;html=1;" vertex="1" parent="1">
          <mxGeometry x="90" y="120" width="1050" height="470" as="geometry" />
        </mxCell>
        <mxCell id="rKacGrps_lpoe4kDHdKI-2" value="توكيل سياره" style="text;html=1;align=center;verticalAlign=middle;whiteSpace=wrap;rounded=0;" vertex="1" parent="1">
          <mxGeometry x="970" y="210" width="60" height="30" as="geometry" />
        </mxCell>
        <mxCell id="rKacGrps_lpoe4kDHdKI-3" value="توكيل عقار" style="text;html=1;align=center;verticalAlign=middle;whiteSpace=wrap;rounded=0;" vertex="1" parent="1">
          <mxGeometry x="840" y="210" width="60" height="30" as="geometry" />
        </mxCell>
        <mxCell id="rKacGrps_lpoe4kDHdKI-4" value="توكيل منزل" style="text;html=1;align=center;verticalAlign=middle;whiteSpace=wrap;rounded=0;" vertex="1" parent="1">
          <mxGeometry x="690" y="210" width="60" height="30" as="geometry" />
        </mxCell>
        <mxCell id="rKacGrps_lpoe4kDHdKI-5" value="Text" style="text;html=1;align=center;verticalAlign=middle;whiteSpace=wrap;rounded=0;" vertex="1" parent="1">
          <mxGeometry x="560" y="210" width="60" height="30" as="geometry" />
        </mxCell>
        <mxCell id="rKacGrps_lpoe4kDHdKI-6" value="Text" style="text;html=1;align=center;verticalAlign=middle;whiteSpace=wrap;rounded=0;" vertex="1" parent="1">
          <mxGeometry x="380" y="210" width="60" height="30" as="geometry" />
        </mxCell>
        <mxCell id="rKacGrps_lpoe4kDHdKI-7" value="Text" style="text;html=1;align=center;verticalAlign=middle;whiteSpace=wrap;rounded=0;" vertex="1" parent="1">
          <mxGeometry x="210" y="210" width="60" height="30" as="geometry" />
        </mxCell>
        <mxCell id="rKacGrps_lpoe4kDHdKI-8" value="Text" style="text;html=1;align=center;verticalAlign=middle;whiteSpace=wrap;rounded=0;" vertex="1" parent="1">
          <mxGeometry x="200" y="300" width="60" height="30" as="geometry" />
        </mxCell>
        <mxCell id="rKacGrps_lpoe4kDHdKI-9" value="Text" style="text;html=1;align=center;verticalAlign=middle;whiteSpace=wrap;rounded=0;" vertex="1" parent="1">
          <mxGeometry x="380" y="300" width="60" height="30" as="geometry" />
        </mxCell>
        <mxCell id="rKacGrps_lpoe4kDHdKI-10" value="Text" style="text;html=1;align=center;verticalAlign=middle;whiteSpace=wrap;rounded=0;" vertex="1" parent="1">
          <mxGeometry x="560" y="300" width="60" height="30" as="geometry" />
        </mxCell>
        <mxCell id="rKacGrps_lpoe4kDHdKI-11" value="Text" style="text;html=1;align=center;verticalAlign=middle;whiteSpace=wrap;rounded=0;" vertex="1" parent="1">
          <mxGeometry x="690" y="300" width="60" height="30" as="geometry" />
        </mxCell>
        <mxCell id="rKacGrps_lpoe4kDHdKI-12" value="Text" style="text;html=1;align=center;verticalAlign=middle;whiteSpace=wrap;rounded=0;" vertex="1" parent="1">
          <mxGeometry x="840" y="300" width="60" height="30" as="geometry" />
        </mxCell>
        <mxCell id="rKacGrps_lpoe4kDHdKI-13" value="Text" style="text;html=1;align=center;verticalAlign=middle;whiteSpace=wrap;rounded=0;" vertex="1" parent="1">
          <mxGeometry x="970" y="290" width="60" height="30" as="geometry" />
        </mxCell>
        <mxCell id="rKacGrps_lpoe4kDHdKI-14" value="Text" style="text;html=1;align=center;verticalAlign=middle;whiteSpace=wrap;rounded=0;" vertex="1" parent="1">
          <mxGeometry x="970" y="360" width="60" height="30" as="geometry" />
        </mxCell>
        <mxCell id="rKacGrps_lpoe4kDHdKI-15" value="Text" style="text;html=1;align=center;verticalAlign=middle;whiteSpace=wrap;rounded=0;" vertex="1" parent="1">
          <mxGeometry x="840" y="360" width="60" height="30" as="geometry" />
        </mxCell>
        <mxCell id="rKacGrps_lpoe4kDHdKI-16" value="Text" style="text;html=1;align=center;verticalAlign=middle;whiteSpace=wrap;rounded=0;" vertex="1" parent="1">
          <mxGeometry x="690" y="370" width="60" height="30" as="geometry" />
        </mxCell>
        <mxCell id="rKacGrps_lpoe4kDHdKI-17" value="Text" style="text;html=1;align=center;verticalAlign=middle;whiteSpace=wrap;rounded=0;" vertex="1" parent="1">
          <mxGeometry x="560" y="370" width="60" height="30" as="geometry" />
        </mxCell>
        <mxCell id="rKacGrps_lpoe4kDHdKI-18" value="Text" style="text;html=1;align=center;verticalAlign=middle;whiteSpace=wrap;rounded=0;" vertex="1" parent="1">
          <mxGeometry x="380" y="370" width="60" height="30" as="geometry" />
        </mxCell>
        <mxCell id="rKacGrps_lpoe4kDHdKI-19" value="Text" style="text;html=1;align=center;verticalAlign=middle;whiteSpace=wrap;rounded=0;" vertex="1" parent="1">
          <mxGeometry x="210" y="370" width="60" height="30" as="geometry" />
        </mxCell>
        <mxCell id="rKacGrps_lpoe4kDHdKI-21" value="" style="shape=image;verticalLabelPosition=bottom;labelBackgroundColor=default;verticalAlign=top;aspect=fixed;imageAspect=0;image=data:image/png,iVBORw0KGgoAAAANSUhEUgAAAw4AAAIlCAYAAAB8Xq8MAAAgAElEQVR4XuxdCaBd09Veb355mSSIIKYghpaWIlSRKDUUNY9RrXn4DdWW0iGG4KdUW+InESXE1CKIIYiYhxJj1ZxZkIFMb57+9a191r37nneHc++77903rKPpffeec/bZ51t7n7O+vaai1kcuaaUDx1JO26OXEj03nuj8GUTrbxNr4uuvv6Z11lmHWltbqaioKGnTzc3Nsr+0tDTtpZuamqSNkpKStMe1tLQQ/mVqD41Y/9pCafglH142/mz+YmTY/LD5oQjY+8PeH6a/pFbHbH70/PlR1Dz51NbiD58m2uUEikQgls0leuUOomlMGnY/jeiI64jKqxKQsoHT8weOEcNEGZtiaYqlKZaplQmbHzY/bH7Y/FAEjHh1b+JV1NDQ0Fr07Xwqffpaov8ygRi8IdGIPYjW3IhorY3d3S1lsrBsHtEnzxN9+gLRbqdQ674X8rF8TGiDdeCrr76ioUOHJlgc1PqAT2xYycUGCwHOwYtFrRM4pri4WM73j0sFNY7TF1NZWVlqifAe619beAw/G386Kmx+2Pyw53PqV4jND5sfNj9sfvR2/bSosbGxNeYK1NJMtOgDojmvEc1/m+jbhW6EDBpGLcO+R60bj6SSDbYlKk7vNqQWh3QafD4Zpyq+UVyf0CfrX6JkDL/UIzWKq5LhZ/j5CNjzxZ4v9n5L/Uyw+WHzw+ZH954fzuIQxBD4K/5+bEI2K9I41ndVUmYGmPz2/YGD3/14CN864Stu1j/nbw58DL/kE8/GnxsfNn/jMVT2fInPFZsfNj/s/ZFaabP5YfPD5kfm+VFUU1OTQBzUlSis6Ed1BfJX9H2XI20Pv7VHMNY/wy+dJcvGn3MFtPmbG3Gw54s9X+z54hYe1FXYX1i0+WHzw+aHzY+i2trajMRBSUM2rkB+jIM+bPJhcUj24LL+RbfYGH7ts9gYfoZflBenPf/iFmZ7PtvzOezKZ/PD5ofqk9lYhO392zXevxLjgEmdLo1pLq5K6R4MuF446DmZq1Ky45K9tK1/ieZFH8t8B5erKdfkm+j+EdUiZ/i1ncE2f23+6qiw+WHzw/SDzK4i9v6196+vt3e2/px34uC7iqRbmVOFFvUZ0jFO+PLnk9hY/9r3YjL8DD//xW7zt+14iBL8ac+/1G8Hwy8Rm2yItT2f7flsz+f0NmF7vrT/+dImODqTKShTulN0KVk6Vr+r+Y5x8E3h1j+3eokNhAzEC/ggSD1cRE9fSPi9vr5erE6ZCu2h3cWLF9OQIUMSrpNMvmHCF3ZZS/aASzbltZ9RXeWsf8kfDIZffF4oQmEF3sZf3BRu8ze5AmLPF3u+JFvQtPebGxeFnB8ajwP5QJdR3Qf90r+//PJLWnfddeU7ZJZML8o1+Uxv0Z8T07GmIGrZKm5RGJ2l42rfiltU/PQBB+Lgx5ho3Qz8rpMq2SRK1kudeMkelDgev6tCpkTOn1BKavDJrnJyCa3nET5O28PvURVf61/bF7vhFw8at/HnXpw2f9080blhz5f4c0PfFfZ8jsciKDr2fkutu2BPod+/0D3U9R76D8ay6jnoHxa2UcDWzzyoREPvLKp+1VvTtWflqhT1wRquHJ2OiaeLrYAQs/HRt/7FWbWSAWXZmCRhlzD/QYgXBCZXJnngnEWLFtF6662X9ukRRW5R5av3EpXYWP/aiibV6koyIRp+hp/N39SPN5sfNj9sfnTN+aE6jloRdIHUXzRdunQpDRo0SPQdJRQ+2chGL4kyDnJdeNe4ha6oP4urEoCKGhxdXl6eVmHETYaJg67q+AyvoypH9/b++Rgr7vjU34G775eO77AKwFUJn+Hzw8LG/vCLU8mJX/07manPbytZur9UA0tXBNF+JmJj/WuLouHnstrY+HPPAZu/iXPE5ofNDx0RNj+69/sDcxk6YNiCAN1Bt2+//ZbWXHNNOSZsjdD3hOmnybUx1e+LGCBJx+qbcpKdoqwpig98FFelqCugyYRr/XOWhXQr8MpWNf4jGTn02TiIA86prKxMSwyxM2zqS+ZPGDb1aX/CJLIjTH3Wv7aKkY6XTMTL5Jv8xWn4xYsK+nPZ5i/FlBTfn9qef6lfI/Z8tudzR80PXRRNF7+AGAy4Kumm89YnG5n0Kz23t+qnWVscMgUf46XiB0cnqxwN0DuK0fX2/vkmubDFwXdV8l/+dXV1VFFRIcQhE4HERPnmm29o8ODBciza1Innt6mxFUo0UxGH8HHpSGEUVzTrX/sUX8PP8AMCNn+TK742P2x+2PxITQq7wvzgosZUVVWV0El/kRQxGEjuoroJe92IlcLXl0w/TW1xgH4fKTgaTejKdZQVS42q9y/tK4468aIoglFWtKx/caR9nBG3oBhDyfdXxMIywOTBRMpkUUIbq1evpv79+0t7fuaCfBGH8FhRV4IoMQ7Wv8SaAPowVAxNvon4JCOuNv7aRxwMP8MvlWppz2d7PreXeKV7vmB8YfHYd031FzfxvAexgGeFv8gcjoXIZ3B0T9RPixYsWBA5xiGKog/FRF2VVBhq9unoGAfrnwuABmEAq/7www9pzpw5tGTJEvm3bNkygnVh1apVEtOwcuVK+Xubbbah1157rY0feLKHvxIQyBmTC0RSyV3Yj1zPT1enI/XahdsTtqBkOt76l4iQ4efGUDKLV6rx6iNo+Bl+/niw54s9X8LvIHu+xBEp9PzA9XfddVd68803aeDAgdSnTx8JhIZFYcCAAWKJQGKXtddemzbbbDPaaKONaIstthCdSWMjcDcdYXHoSfppp2RVSqbsdUTl6CiCQV+SBW+H+9hR/dNIflVa/IeOWgR8H9BwkI8OamXRK1asoGeffZbeeecdIQqffPIJ/fe//6URI0bIhMC/7bffXpSnfv36xSYTJhEmFn4D+860Ep1JYbf9hoAhYAgYAoaAIWAIFBIB6G61tbVUXV0tC6P4By8JLJYuX75c/v7444/ps88+E4Ixf/582nLLLWmrrbaSz+22245233130Y/gwo1NF558fQy/4bu6dyfz6tBz0adktbSS4VRI/TSKRxH6Z8SBFerOJjaa+itsctN+QDBaYA2DTVf0ofwjI8BLL70kZOGxxx6TCXLUUUfJ8Rj4IAqbb765EAHsA+PGliwOoZCT265tCBgChoAhYAgYAoZARyMABV/dmHTxFZ9QlLFv7ty59NZbb8nCK1zt77nnHlprrbVov/32EwvG6NGjxXLhkwjN1ARrBdyeNJ5XF3U1Bb7WQsH3qIo5grdT6Yfh/vt9Cv/dUelijTgUgDgoa9WB4aczxd+wIiBdmLJUWBKmTp1KDz74oLDkvfbai0aNGkX7778/DRs2TKwJMLPheLSJQaxMGPu0HT/w2Y8bwGDTQZ4pHWtHT3Br3xAwBAwBQ8AQMAQMgWwRUGVe9Znw+eE4T+zXzEj+OTgOVokZM2bQ448/Tq+88oq4NR166KH0s5/9TNy7sTiri8B+gLXqd/6Cr1onMpULQH/M4sBKbCpFtKNcgbo6o1PFHgNEA841hZj+hvgEHHfvvffSxIkTqW/fvnTqqafSyJEjxYymDBemN5jSwpMB+9EmiIJvWtPzsp2MdrwhYAgYAoaAIWAIGALdFYGwu1GqFX3Vk7BfYx9wz7NmzRKrxC233CIB1mPGjKGf//znYpnQNPY4HjpoWO+FvgtdTF2f0mFoxMGIg4wPDEA/D3x4QOogwjEwkY0fP56++OILcUE68cQTxe9ON7+AmxIN9a3T6/gmsXCMhB9boW1mk7Wouz40rN+GgCFgCBgChoAh0HMRUIuD3qEq8OEkF+pOhON8/UlTzON3tSL4C7FKNj766CO688476bbbbhPX8LPOOosOOeSQWFpXtUSot4cSiiixpEYcjDgkJQ46qLVaM0qgX3HFFRKzsNNOO9Fpp51Ge+yxhxymir9aF/TccO5hDGjfFcknGFGLlPTcx4ndmSFgCBgChoAhYAj0NgTClgXVjXwcNLW8Lr6GFXwlArpYq4QDn8888wxNnjxZ3JkOOOAA+tOf/iR1rpJ5gmSqM4b2jDgYcUhJHDAQkT1p3LhxEr/w61//mn7729/K8T7D9QkCBiLOg5+cbzlQ05qy7VRF3JL596ULwOltDxi7X0PAEDAEDAFDwBDongiE9Zmwh4X/PawvJSMY6l7k62FARtvxXZnw23XXXSf/EAtxwQUXSFwENmR2Qu2rKJsRByMOSYnDf/7zH7r++utp+vTp9Pvf/57OOOOM2HHhnNA6SJP5zPmxEcqEfdLgE4Vk8Q06+HGuBUVHmdJ2jCFgCBgChoAhYAh0FwSSkQlf3wkTCD9ZjZ9iNVM7igcWdydNmkRXXnmlJLG58MILaeutt465PmXCrVsQBw7yaAWIqoQmUyY1iBf7ogYfDx06NJZOKhnr8yvzpSug4leO1uMUeBV+Z/ZPBw/wgjKOf0h5CkaqQTEazwCzFFKiInBGi7L9+c9/lkj9P/zhDxJcg4JsGliTaUDZfkPAEDAEDAFDwBAwBAyBrouAupjDhemqq66SuhCXXHIJQS/WuAdd7NVsTqpbLlq0iJCOFTqmHxurLueaoUn18ULoz0WsuOa1cjTA8BmT5rbVVW0lEYWqzNfe/uF+QBKwQbC4H3zXPL5ad0F95DRlF1ySbrrpJmGiBx54oJyv5i+fHHXdqWA9MwQMAUPAEDAEDAFDwBCIgoASiEcffVQS3Zx//vnikq6xFFhsxqKyLi6jzW+++UbS8eNc7FcdWgOscUyh9eciVl67BHHwLR0+yeioAhZaYCMqsdH++UE0YHqwGCDFllo/tNCIWh/gjnTyySfTSSedJIxTMxhpVH+UKPsoA9SOMQQMAUPAEDAEDAFDwBAoDAJ+cDV0RbUm6N+Ie3j44Yfp1ltvFSsENuyD3ojFZ/yNIr8gDrr53jmpFt47W3+WAnDqqpQKagUjG1clKObpNh+MdMdFWY3v7P6ppUBJAvqvrl5KIJAFCa5IYI8TJkygTTfdNBZl78ceZKoiXZjhb1c1BAwBQ8AQMAQMAUPAEGgvAr5LOgrLoS4XAqf/8pe/SB0IJRBYyEbSHGRlgk6ZamG50Ppzl6kcnUowHW1xiFqgTvvnkwZlk2pS0iAbuCOde+65wiqPPfZYOTWcHhXnaBVBP9VXeweonW8IGAKGgCFgCBgChoAh0PkI+LUk1JKAXmhsgsYJ33333XT66afT3/72N/rlL38pHcXxy5YtoyFDhsj3ZNkzVZ/EZ6aY447Sn2PEIZyhx4dbV/QBSJQ8tGBMfnC0AuAX4QBA2PygbH+/BnyEj0s2DDq7f/79oH9gk6jujO2EE04QM9O1114bKywSHjy+WxP+Vncpy2zU+ZPcrmgIGAKGgCFgCBgChkB7EUjmQeLXjVBXd1xHF6GRVXP16tVSUA4b9GclDuripPG0qfRiP+OT/q1Exdez86U/S4yDn1UprOTrd81clE/ikEtUeKH7hz5jIAAHHSTAZu7cuTR69Ggp5HbEEUckLS2ux4NI+BYHFaZZHto7be18Q8AQMAQMAUPAEDAECoeAZkPy3ft9fVG9VVSfhfUBqflfeOEFsSKst956bTqvgdbtyaqUL/05K1elfFkc0Hk1oUS1OKQzyeTb4pCuf358ggoQZceRcuvll18Wgat5CZ9aV0GF7o+GcPBMqsJthRv+dmVDwBAwBAwBQ8AQMAQMgUwIJFv5xzmIeUUSHVXcw7ohdL958+bJ4vN5551H55xzjgRWQ2/EvmR1vNBWofTnDiEOmo41HciFJA7p+qcKPpR6pL+CsMPF03wSgBiGqqoqmjhxohVRyzSrbL8hYAgYAoaAIWAIGAKGQBsEQCgQ7wCigBhZEANfJ1W3d+ikutCsKf91cT2Zq1I+F96hP+edOKDTaDhdATh/RT98s8rIlGFlE9wRxSISpX8asY6+oE0EMaulwXcn2nnnnYUZgjwksyjYvDAEDAFDwBAwBAwBQ8AQMASiInDHHXfQLbfcIl4s0IU1HkLPR1wtiAN0U59YhONlO0p/LuLKxlY5mskONj84W9PAqsUB3/E3BFNdXU0bb7yxCHXEiBFtLBJRB4cdZwgYAoaAIWAIGAKGgCFgCCgCWKj+5JNPaO+996YPPviABgwYQKyri46qrktwfwJxwD/s0yydvsXBL2eggdV6DdV3NX45m3ILRTU1NRmJQ7YxBJkqR7cnuMMvdOEr+tkEb6frH4CGAPDJ2FC/fv2E0eFaCIieM2cObbXVVrRw4UIRps/4bNgbAoaAIWAIGAKGgCFgCBgCuSCg3i3QdRcsWCA1wBD/sPbaa0vgtBaMg4uSutGDTChJyJY45KLf5z2rkroCparMDCDbQxz0fD9YJJsbj9I/mIEgIM18pEEqb7zxBv3sZz8TVyw/SBp9CpuSchkwdo4hYAgYAoaAIWAIGAKGQO9EIOz2DnKwySab0LRp02jbbbcViwOsDdBlKysrBaRw0h61LoQtDvnSn61ydGhsqgD8jEcQJKr9oUYDyAOEAeH5OXkhqHAQde8c9nbXhoAhYAgYAoaAIWAIGAK5IBBOzQ/dcuTIkYTiwtttt50sVGNxWwOkU6Xy94lDqn7owntWrkqo44AG8xV1DQU6XQE4dTXygzZwjirqyog0yCPfwR2Z+ofra3C05tp9++236eKLL6Ynn3xSWB4sEsikpMf6JqNcBomdYwgYAoaAIWAIGAKGgCHQexHw07n6+qUisv/++9Oll15KO+64o+ihcJ+H/ql6c2fpz5EsDuiMxhBkKnGNY/0YglTVkFU5z9ReFMaU7/5pyXD08b333pOy4P/+978T0q1CwJqL1/cps+rPvXfS250bAoaAIWAIGAKGgCGQKwKZMnR+//vfF8vD9ttvH6sZlqoGWEfpz72OOEDJX7ZsGa211loi12S+YepyhEDoXXfdlRYtWpTrGLDzDAFDwBAwBAwBQ8AQMAQMgbwggBhieMLgUy0OfsOq1yIWAovZmvAn1UJ9toYBCY7GBXuTqxIyIg0bNkzYmrpJgeVpxDoEgZSrgwcPliAUbGBuWqUvL5K3RgwBQ8AQMAQMAUPAEDAEDIEICKirv7rR+67/qsOr27/G4EK3xQb91c9KqpfLJrmQuvpHsjjkEjwBJpRuy6erUrb9gwVBmRqCTOAnpgRCYyuQ+mr27NkSy4DfUpmCIsjaDjEEDAFDwBAwBAwBQ8AQMARyRsAPgl6yZAlts802ElPsu9eDIGjyHui3qD+mWZaSudJnqz9L5WhYHNCYv5oeDtDIhpFESXdayHSsAPjLL7+k9ddfP2Zx0P4oBj/84Q/pH//4h+TP1bSsWnQjZ4nbiYaAIWAIGAKGgCFgCBgChkA7EMDCO3TS999/n84991yaOXNmQmtKMOB2Dx02XL6gveUMemUBuKVLl9KgQYMkfWrfvn0lixLABTtDytUDDzyQjj766AQrQ6p0V+2QvZ1qCBgChoAhYAgYAoaAIWAIZIWAxjHcfvvtNH36dMKn1h5DQ7rgr43C8gCdV7f2FFAu4lLVGStH51KSeujQoQkr+uis31HfVSlsRsm28l02/QNL++KLL2iDDTYQ/ACk5sS966676LXXXqMJEyZIX7Wom8/e4NZkmyFgCBgChoAhYAgYAoaAIdCZCKju7HsJYcF7r732ouOPP17ickES8Kk1xxAcrVaKMHHIRn/GueKqxIpzXoOj1VUpHXHAxcP1GXz3KP/vfNdxQHvIqqQxGHqtuXPn0p577ilxDciPqxX5dH+mFFmdOXDsWoaAIWAIGAKGgCFgCBgCvQeBcBiBWhCwoL3RRhvRM888Q5tvvnlCttBMumsuoQh5Jw7KSDIFRyshUNaUjDho7AHazFfWJ79/viVhxIgR9Pzzz0u2JQ0s0YDosLB6zzC1OzUEDAFDwBAwBAwBQ8AQ6AoI+DXEtD/4bd68ebTPPvvQBx98EIvN9UlDsrStOD8b4qD6c5vgaD9dk7oW+aaMKK46ySpH+4C3Jzg6H/2bP39+jCCgXzDvoCLfMccc0xXGhfXBEDAEDAFDwBAwBAwBQ8AQiIwAkvogUHry5Mni1QPiALclbFpSQBtrj37f69KxwrSzYsUKKQCHvxHX8NZbb9H111+f1qoRWXJ2oCFgCBgChoAhYAgYAoaAIdDJCJx99tm03Xbb0YknnijEAYQBC/6pSgrklI41mxgHXCCdy5Dig+AJuCr5Qc7Y56eAihK7oCwJn1FclaL0D8cgxmGNNdaQ4BEESeN7svy2nSxvu5whYAgYAoaAIWAIGAKGgCGQNQJKAgYMGCB6LcgCAqOxSK71HcKN5kQcsq0cjU6k28J1HPxMSqmIgxZf84/VQmxRCIbvo5Wpf+g7siqhjgNck5B69dhjj42RnKwlZScYAoaAIWAIGAKGgCFgCBgCBUQAYQXQh6dMmSIuS7fccot8V3cl39Vfu5mN/qz6fREr5pKONVNlZG08VYCFj5VaHNLhpzeYqT2YWvLZP7SH/n388cd02WWXCbiWOamAI90ubQgYAoaAIWAIGAKGgCHQLgS0tgMaQSHjq666inbddVfR76FHp/KsyVa/l+BoXCSKKxA6lSk4Gh3wg6PVcoBrdIbFIVP/0AeYcEaOHElPPPGEpK6CGSfTee2Spp1sCBgChoAhYAgYAoaAIWAIdBACutAOPRelBZBl6dNPP5X0rFikz2RxyKQHq34fKTga96iZlaLEOCxevJiGDBmSAE04palfAC4dhnBVAgiZLBNR+4f2xo4dKwEjV199dSzfbaZctx0kZ2vWEDAEDAFDwBAwBAwBQ8AQaDcCanVADO8ll1xCgwYNot/+9rcx8pDsAlH1Z5wL/b5owYIFkS0OUYKPoeCrqxI6o/ELYeLgxy7kK8YhSv+WLl1Ke++9N3355ZcJRTKsVkO7x6s1YAgYAoaAIWAIGAKGgCFQAASUNPguSwMHDqRZs2ZRVVVV0pCEbIKjVb/PqgBcFMUcWIWzKiXDryMqR6sZRq0i4fgI7D/nnHPoJz/5idRtyGTFKIDc7ZKGgCFgCBgChoAhYAgYAoZAuxGYOnWqFDe+7rrrpC2ED/ju+dDFNaQgik4M/b7HEQeQBo7bkJgNDfjGd2Rb+vDDD+nggw+WwGhsCp4WpIvihtVuKVoDhoAhYAgYAoaAIWAIGAKGQB4R8EsgaP0GND98+HCaMWMGbbLJJlRXV0eVlZUS7wAdWNO1wkqh2ZfSdanHEgfctFofNCAbIKIgBqwNY8aMieGi5ME37eRRjtaUIWAIGAKGgCFgCBgChoAh0OEIJIvXnTRpEr344os0YcIEIQrY/ON8EpGpgz2SOPiB1Mq+QA4WLVpEo0aNojlz5ohFAtHj4dRUapnIBJztNwQMAUPAEDAEDAFDwBAwBLoSAv4iuJ9mFbXL3n77bSl+7Hvk4Bj1usmUVQn32SOJg++jpUHXcFk65ZRT6Ac/+AGddNJJQhp8cM3a0JWGvfXFEDAEDAFDwBAwBAwBQyAbBMJWBHxX9/2JEyfS+++/TzfffHOsST0eOjD+7rXEASDBLQmfyqKWLFlCO+ywg1SMDptoFDhLx5rN8LRjDQFDwBAwBAwBQ8AQMAS6CgLhrErQa/36a7A2fP7557TmmmvG9GT0HV45WHTPVAi6x1ocfOKgwvz1r39NG2ywAZ111lkJ4ITJgpGHrjL8rR+GgCFgCBgChoAhYAgYAtkiUFNTI+lX/Q0L6n//+9/F1ejKK6+UXVpRevXq1SnTtYav3SNdlXCTPnkAWJtttpnENmhMg1+zwchCtkPSjjcEDAFDoCcgICWMQltRT7gxuwdDwBDohQgkSwqkOjE+sX/DDTckrt8mf0Mn1hgH6MoaOJ0OOiEOzExaNaBYG9GTVNHWqnLZ1HEYOnRoQsfQpq+4+5Wj9bphxR7X8ytHR+kfzC24eaScApu6//77afr06XTnnXf2wmFkt2wIGAKdigA/s2wrFAJJlP42P/ny0b/1EwfrvxzvweSfI3B5Oo0VIdsMAUMgNQI///nPac8996TjjjtOFtlRYdp3Z8qEnRAHVrDzWjkaF/ULwGlhCSUOyog6qnI0gjuQHQn5aAHGrrvuStdccw3tvvvuMSKTCRjbbwgYAoZATgiY4pgTbPk5qSsQB9yJkcf8yDOHVmQIGHnIATk7pRcgAL0bxeAuvfRSmjlzpujEWGwHecDfkS0OrGR3CeKghEJlp9aFcIXpZLL1S2aDOGhwNIKhd9ppJwmKtsxJvWBW2C0aAl0BAdMbCyOFmL6Y2QXJHdH2uLjK2Q7l0+RfMPlzYsnQtZ0c2yHNwtyLXdUQ6CAE4O2DQnBvvvmmBEmrp48Wg8t02ViMg1/7IJNiHqW6sloc0nXAd1VKd5zvqpTqOJ84+P276qqrCEEf48aNE+IQpZx2JtBsvyFgCBgChkBXRQCKY3LlUdXHdHo9e/wGN2aqZleVcEo9IEYGwzI08tDdZGn97VgEfvOb39C6665LSBwEXVwX6qPoyF0qODoVTNlaHEAcNCftd7/7XXr00UdpxIgRCamnOlYk1rohYAj0FgRSrXD2lvvvavdZRC0h4qAEwH1yOGDaLreXLpixodAjIkwcEyWaF4tSoW/Rrm8ItAMB6McfffQRHXroofTBBx/Igjrc+0Eesq7jgJPDlZS1b7qiHzWA4quvviI/OFoe2EEEt/4NloNNrxverwwofFwyvPz+gTjg3Pfee49OO+00KbOtNR1S3V87ZGCnGgKGQC9GoC1x6MVgdIFbdxaD5CvOnUccjD4Ubiikxz7R9tBemli4u7QrGwK5IOAXfNtll11o0qRJhAV2LNBDv48S4wD9vggxDn5WpbCSr981s1IURhKVOGiWpmyyKmXqnxaxGDt2LK2zzjp05pln5oKvnWMIGAKGQJYIqNJqimOWwOXp8FQZkZIriJkjIXLpVtjikUsbdk4uCIStSbnZloxM5IK9ndP9EBg/fjwtW7aMLrkMdfsAACAASURBVL74YslACh0/SiiCEAcOiIgcHJ0viwMgVhekqBaHdDcUtoiAVYFN3XLLLbTddtuJRC04uvsNbOuxIdD9EEjmY9/97qJ79piVvtYUip/+7LOF4Le0UQ3ZcsAik39hx062in94QGR7fmHv1q5uCGSLgCYPeuONN+jss8+m1157TVyVQB4KShyiBEd3JHFYsmQJbbXVVoRPdU9SsLIFuacd7xe88//2XcV62j3b/RgCURFobW2RZ0ZLCzshBanqYucGOkZLcwsVlxTLz02NzVRaVtLm76jXs+PyjEAqRd/TB5saeWWtzMmvleVcVMIOTi0cIFjMcuTz+U+Wr+uXf6z/d557bc3lEYHmpmaXCMWTeQsvJhaXBkINrtXCgoayBKG7d2Ep/23EIY+i6JCmVG/xdTpbGM4earzfBg4cSF9++SX17dtXyEMUV6Wsg6OjWBzQGTScrgCcPJDZpwqbMpxkMQ7JjksGj29xwAPj4YcfpsmTJ9NDDz0UPBASHxjZQ9yzzkDaLY0FMULVs2Rrd9M+BEAc8DwpVs0xUC7VbT4WJwUFNdAxWtyjjBUT0UFsKyQCSSwK0h1PViIn3VB3oxg7+VOMBZ7imEy+me7N5J8JoQ7d39LEc7dMBUf8/mfXMbYClTC5F5IIWfP/VPlsbm7iuR4PoC8qcoTStq6JAOoNoEaXbqq/mB4TXV4+QTjggAMkFnjfffcVEp0pq5Lq90W1tbU9qnI0Xux//OMfab311qPzzjtPXJTwm6acygRMdPi7/5HK0o2td39Z2h3kCwF/9ZHbhMu6vwipiiE+sU/1DHxHvgdbsMyXINrfji8L/RsyAnHQT1wFnIEXsorKeIev+PvyxXE4J51eaV5K7ZdZe1vw5yP+Ds/HgCM2NjdKBhksFIA8lHBSFRyM/2zr2gikIgu+B0XXvoOu0TvgdcMNN9DChQvpyiuvFItDZWVlxs6JxaGmpiYjccg2q1KmytFoz6/jkE1wtF8oTlf//P716dOHNthgA3r22Wdp8803T4htMAXZWXr8LFNq6dFBEy7El3EU2QGGQA9CgNcYWJmI3xAUiRJeosZqpTMyFItyse7a69Lee+1NG220iewrZyWkrKSc/06mrfQggLr6rRSxxShmHsJfgTCD2AOsqjU01FNdXQ0tWDCfnp05gxYvWcwcUBmikx/ku5fIdyMZD1Ay9bmZEoLWYipuhbuTKZ8FGSYs49aiZqqprRb3wc9nf05PTn+Clny7RGYtUwQZDxgDzWwm7D+gPw0atIbI9rPPP3ddNotRQUQX9aJY+B0yZAhBz4MrOuuvokticy6mmMe2pUJA9T8lWe+++y4de+yx9O9//1swjYKfEId8Z1VSUwYyGjmTf7F8qmBlbraDOOj5fmpVnzggSnzkyJH02WefidnF+TDalm4gASMNjFEXMkPMEOiNCDS3st8zuyuAHAip1hVIz5rw+Ufz6OUXXqLhwzeldYasS32r+rpnHf/X3Izla1McCzJ2hBw41xRogL5xyL2A4r+APOBd8Z///If23HM0bbLFRrEuz/l4oaTxHj58uGTmq6qqiqUTVyVFDo7J2clb1quZPJj8CyJ9kW8xx6s0NNbJ6unSb5bSp599Srvv8SOW74aOFLB4Hpk6jW686QY644zT6Yc/+iHLeIiXwNfmboGkF+myuvi7dOlSevLJJ+muu+5iOZ5BBx10kBBA01/Sw+i7dMFlHZitvfba9Omnn8pzLlOMQ8xVCVmVelLl6KlTp8pD/+qrr46ZXTDYAJLvGxdplPbgg6qrqyUgxidixth7sMDt1iIh0MQrkaUcJCkB0BznIJ4NHMOgrs8fvvcpvT3rHdpzj9G82lVL/ar68+p1vSMOvOIlAba2FQgBEL14OlShCbHMSe4PLJCoctHU1Cgvytdff52+//3taLPvbEifvD+X3nrrLRo1apSsZuIZWVdXFyMOiQtRME/FL6L0oUA3b5cVcYM8lPDKaTPVNdRRZZ9Keu75mbTDTj+gLb67KT34r4fpgYf+RXdMvp1Ky10AdZMERvO4YJel0oQAGIO0qyEQTnYD3e7www+nMWPG0GGHHRZbpO5q/e5q/fE9Tc4//3zaY4896OCDD45eAA4WB9xUNulO04EAwaar46DWBz84WhVW3/VILRXZVI7GIEJ8AxgUSmpjM/ekRGmBQPmWGN90Bf827LfNEOitCOiaNLKwSDyU+q3z57KvltMzT8+gnXfahUqKONgS2XeYUZSWlMkKp1Stb2301rp7K4qFuW+nuKurQjzg1amTTsGH8RvvhL59+wkhgIzxDHzppZdp551H0qxZb7LFeqdYXnO8kyDXmHzZLS39ZnUcCiN9Z/FxroL8NywPPCer+lVRdc1qeu31V2nTzYfTHy/5Az317BNCGBobOElIObshgjwwiSwrLbMYh0IJL+J1oT9CRwHh93U7EP3nn3/eiEMGHJUw+JaHyy+/XJ6Fl112WUYPHdXvpY5DJouDKuBRC0T4MQ6pqjX7MQ7p7hU3mE3/jj76aDrmmGPokEMOSXj4a4C0BUc7tCFLTTepE1BjTSLOYTvMEOhxCLQEFe5beX5IURxkaeGsK60NRM89+5KsSG680XBZyC5ijQPHOdcUuPthvRvmiUL62apff9x9Jq44o8+s+OpCuajS8c3FcCRuqian/T2bEzt4xChFSHQjcr2HPcItSLlsO0i/2VjfwJboSvr889k0Z85sGr7ZxrTxxnG3Jd/nV89NfQvAtn3EITnebcmKFjtLJhdgoL9zahDpbnHgLtwSmM7kmMCrzonPXSPeru6PY+f2KpP2r+LOd+3FTDwOps70/JH5WEQV5ZVUwzEs5Zx9B0omuvTFF1/Q089Op21/8F066NADkYeXs6AxyYjNBTdv4G6Y382XXQQwgrmkjnZtg7XdswU91WmnEkoGeHhqpprPqe45dn6sX95Vks37/IKXsjV1T4c+B13y/vvvp5NPPpngSWFbNAR0EfnBBx+ku+++m+69996MrkpoOZaONRvFPEqBiM4iDn4KV6wuYBBtu+229M9//lPqOKQKuo4Ga88/Kly7wYhDz5e53WF6BOIvVn51c7xCEWKk8K7mf/fdOZV22XnXQBdyCqK8tAPi4P5sn+LYPvlAcW2mFgSJBkHcJViBZb/7pkAfKkVKSt7bVIxAUqIShATg9gIFyhEiKJp8FH9pDuIC8F1DBPA7roEN7bvz48jF/gxUnIR7StyJq+UxHjVRwQaxc+vQ8ZhXBEE7ZYM/2WrECQi5VgMvTnGqpccff4z2P2jfQIa5SiKTRSLD+GMtV/Qxx+/cwMMvscJyTmEX+UImcofuOJwHOWIv5Izbbwxc58rZDQeB/Q1FHMDPv5eySx6OA5HAd8476M5nPNBeKZvTQDJlP5/XIoSA05qy3x7oMX5n1TsYZ97xfH5bOurdc4fKX+g7/NHEVQn+hZKClcd/EfP5u/85hc688FQq61NMFaVBSk++aSAnaVpDPc91BMTPU5Klv8SlFW47poMHMfotEuTv7icBsqJ6ObWJKmQ/0BYKwUTI3UDgKhkMQzceguETjA8cxtNfNg3Tcc+xoFce93N9wIkOnOZgX4neGh4vecctPfLh7ElYXF61ahV95zvfoUWLFrVfbL2gBc02Cp3vnXfeEVev9957L6PFAdDEgqPxpbu4KumgUSVXA7ABBMgDIsPxiaAPv15BLxgLWd+iEYesIbMTejgCPnHg1CuuEhhemqx4/GPCvbTXnnu7Nyw0kYQ3beDWVGDigKwyraxpQLGDwlTa7LIENQaKUblkHWFzv7z5UxEHVjGhi/B+OR3Kg+quOFuIg/u9hP8IEw9R1qV5RdNXpmMasZyvK9whnSXnUYZ7xxYjDbEAZncDTKuEOLQ0OeIAjGBV4txZ9Mijj9CBh/xUMvMUYnOEwGl6ip+jEX7AN9B2CjsE4VRRF9vhE4cSVvrxaxMr0SAAZVCkhTg4hbmMXeqEQMLljhthasnfMG6QkraIjw+IBeMC0iDjCdiFiEOLYIj2+HgQDT6+VcZeYeQvYxVZk1DIETgxdCWtpTxdi+ief02hc/50JhWXgwDpfHWSBgZKt/Mne9WuVbX2iEMSJd1X3lv5+eJSMzh8Y1tRnUgcxEHuNfgnfpMy8NsSBzku4BU6n1Xxl1j+WBvBVYK5jW+xjMTh89Wo6hOHTmIQ0AHVlR16oHqTbLzxxpwpbUH+xNdDW9KgaNyes8gVSTzwypUrRX9Ot2XlqqRmIXxmY3FI14FcXZXCMQuq/KK9uXPn0k9/+lP66KOPBBCQBxn8gdtBDx0HOd+WEYecobMTeygC8qrn/8N6qltKCywOHPrzt+sm0KEHH4YjuihxQH9VgYTyzuvoouGDOLiVxzLRLxxxcCvP7nZkRdktKstHG9cWcXXxaFXgklIcrHS6FenEzSlCvtbT9oA0e3MaYVGJg1iTxIriCBZcXB548AE69MiDC0YcHAUIfPQDrOPB3g4pR7TUTUgdWTQoHEcEzkSBLEExoNA7xZiVeras4HsJEwc01QiiwJ8gBDiiWYgAxo1zcnKkAf9cyyXyOwhG8LtYtmDh0N/litLXgsg/yOSoxAHkwScO5192FvedbSWqMQfDtmOJgw7l1MTB0RZFTSifQ5BJT2zjr83kYhBLiHWbBELhJrJaGnWfEny1MIS/u/sOrApJFH9NUqzel0EISYyICH+NyVr/yGnqZn0S9BddOIbVAYkMUCDOtswIhBfVN910U5o5cyZtuCFnH8uwddt0rPIADXyR9W8MGKTnuu2228TfDaRBA9+U7BiBSBwRRhwyTRHb39sQiBEHcdjGgyZ4s/J7/Opxf6djjz5OXtBd0+IQlxYUO9wCLALQP9RVSYlDkyy4QhFUi0HgIoN3v6ShVV9qVVx01TvAJKbgurLZ4nMt5CExvsNfRW0zlgJo8znGciEOcFcCcbj3vnvpyGMPLyhxgFuZ2zSewP0tmyq5+kfA9NzPGK9ujVrODFyL4IIkp4IcicuRs0Cwg5b83sTEAa27785igPZ8FzZQgpgLVEAg3W/6Owio6y9+S9Bnve53ivyjEgfxzeN/AdwJLjv5HJDuIRK0mIk4wCIG5yQ4gbE85DQQO6edo8twtRP5hIhPwNJE9rE5J8e7LRJx8O87YAMJxCGAzI2n4LY6mTikWjgOp/7Pqwh7WGOq9/mZlZBR6ZRTTpHY4HRbLB1rdysAJ4M2qAQNYqAuS2BQN954Iy1evJiuueYauXetF+EXPOthY6Bdt2PEoV3w2ck9EAFvTd29uOXN697A/3vp3+i4Y8a4N2aXdFVyVgZ59gVKpioMiGnAJhYG3lzsAjtCyM8BTQDHkO96f2gPK5usDBbDB96dLEXwWpDKEivZWAGF0uqy08i6Kf8ed6/wFBl/vHQAaXD3HazbanxDyFUJsRiSsEN4ED4ZAyjP/Hn3PXfT0WOOLChxUPmFlpMdxgH68b+BdfBzoOjJ6jHfVwnLB1jUlzpCUMHMEeShgbMNIQ7HxTCI81GgbCImwLk34T+4tggNDJRFVSDhAiXidtAFsQ+OOGCT+JrYOHKjJSl57Cj5B8RB4hYCd65ixqKYfXTu/udddP5l/0MtPJaTuSq53uZ7S0Ec2lzGlSB0xAHEjucVrHlCAEv5d8jJ9U/+kmYBdPCj7tR2PcUfP6UjDv59x5oJhluMUKX4LkYRxS3ch3xD6bWnPvqqw2BOSzILKwCXEXU/o5ISMWQhXW+99eicc87JeL5YHGprazNWjkbjmoUnqqvS0KFDY1aBfBaAQz/ER1WzngTZgTBwLrjgAtphhx2kEp6fdlR94lJleMqIVA89wIhDDxWs3VbOCLQhDmpx4Hf4NZffQMccdawoYl2XOLiYhrgC7xR5DXIOQhtcjALfmwQ9i8LnQ8ZqF/v5iwrZAosDlE0XOyFKhrj4wJear1LsfOPdd6eU6hZXgtsqjzF9PmdJJT8xCnGQM+H7HqTUBXHASv+Uu6d0AeLgaX6BjNwvvoAg08DHLDhcXZhUPmUsUMi0LvBFq0CyL/7PEQe4KoE44GhncYhbmIK4CU9RVB0VB4I4SLeCMaMuanBtc+NIZ1BAzIK+h8lDR8lf7h+WkBBx0BgHEIdWZkUJrkrcZSWU+SUOioWvUSe7gqApPQZxcOQAhFxjbcqE4OkmRhJxEcR57vdUFpOYxSCK4h+0KD0MTkzpyhTcUvx5Getep/+hirAld8kMvcYIh0MF7rjjDvrkk0/o0ksvzdhILKuSPD44V3Wqza/MrHED6Y5Fw+mIA84N12cIux75hT6S9U+PV0IDtonI8P3331+Igz5A8Klg+UwrIzq94AAjDr1AyHaLWSEQexHKizlYzsP7m3f8edyNdPSRx7gvXdLi4FaVnSIhoa5OIZRgaVH/AmXRZUxS4uAD5BRvdzwOUQVL2ksgDm6102V/YSeYYIU/teKeSB7aKo75UUEyEQfAI6uV8OPn1LrNjQiSZr9/VsBgcTjquCMKaHFQZdsRg4CmiULp1P6Yys5fg0HppAoJuCNwqluODn53liGJ7sc4CBRNDh8ODBcuvDYhAFfOBHnEIRqz4K6N8xwtdX1ymZUC4tGGNMQtYGHLQ4fJP4PF4deXs8UhHOPQIcQhG9LgiIPaE/CXpHUOpApXOmf64Y+APzhXJv4BFkEcH7hcqQFC53R4ViV89/mMe6rJv1gWJXwPQrxitMVrIE4RO8JSk/yxrYvYYX3VXJWS4xX+VS0yWghTcZwyZQpNmzaN7rnnnrQNxVyVUMcBR+aLOKAtTceargdKHHx3I78AnLJHKP3J+hdOyYUbAmmAqWW//faTc3xLR1hJjgZzzz7KiEPPlq/dXfYIwOMC3gGtnL4SlaPllRgkULpmXNe3OJCs/IMTOKuBrFrGlH7VFIJVT7E2JGZAcgQh0CmhRCSsVMZVBdUR1VLhWoy3LwqsaIcubaiqFqL8Qt+JLbz6ChbaaN+abxTiIBZo/q+MC/c1NeDvEiopLqN77r2HjjiGq88WKKuS3j3Ue7HcBHJwGZQCYiAKJvZhUPrKPYKe4XrmlNBmtgQB+5LmSpFKcylXv+Y2YUESecQsFriIOCfF3Ny0fTcO2CIhZFSjJ1w2JicneONjwRFjBmMNRDUgOYWSf4QYh2buazHnFS1C7EB8KsgIbt/o8583qoZrq6laDuSpmLLLH+aUi0Bx9gSZ0eIK5si662jwUGph4sC/aZpUJ6n4FuIGfgfb/J1AHCBOyD8gDk7aImrZ9BkR607aljtmp58ARxP3qL7YMVfsGa36ujNigyu43snDDz8s8cH4zLQlDY5WZVvGZpApw3dVymRxwHnJKkf7ndHYAxV2qnoL2O8XgPOtED7RURLy4x//mMaNG0e77bZb7HJhgpEJlN6034hDb5K23WsUBOILatBuvTckv0i7BXFAfn34+bI7xvyFc2XlsrSMfdsbubJ1Ga+wBzEbUJobOW11eVk5NXPV3FZO11mCytdYS0YKT3bjwbOzpdnVx2mBWxNqWsh7gRWbxno5rpgVbvecbqDKinL+dGkwoUCWl5bTkLWG8P4i6lNRxdVJ61017phq45OG8NpoFGm1PSYTcUA6VknlyFmVXI78wErDn4UPjsb9wNedV/UZpnkL5zvlTRR3l5azldOkFrNsi5gYQO9tloJ+ZSwrJj98Ujmn3a2pWU5lfVm9R9xJXV+q7FNFy+u/pD59K6ilAZogF0mrKKPaumpOIsJjgmWGJetSliVWsSGi+qZqKmV5NjQgk2KlWGUa6mu5qBoqLtfJsSVcC4GHFTVynyqq2BbRzOMI1dQlwLpA8k9CHPwYh6QWh2Cay9jObdglOSs9cXAFCDl3Es+j0jJUoWdCVsLVkFlmjcCQ+RgnCqI+wVJ/PVegLMe8RNIgeIdwnIZz1w6Ig9gXQeNctHLYLdtXsrWzzXD7Dua06H3i4sVjCpWZ0S5w4evDGVEcqPh5gDGGzxbuszhL8QJLGRdSLMTCrOkvuQ9W3/KAVp555hm66qqraMaMGRkbhX4fqXK0uiqpop+p5SgWh1zTscpgDjIqYTLgJaDZk3bccUeaMGEC4VM3y6SUWlo28TKNZNvf2xDo7sShuLRESAJWgL9avIgaW+upsameqqqq+PdGcS1xVgb2p+bCZ6VcPRe6Qxlri6h/08pfGlhzKWelsKSEd3B6HTxDG+ubuKpohVTHrq5eTWsMHsDHN1J9baOsWDUywQD5EIUSpIOV0fq6Btpi8y257XIu0FRNawxYg9MlsqaZsKmCZcRBYGFLAIhDK+M+n4mDW9mFvJwrMXNAlkEzy2i1c0dDEbuSCqqrL6aqCs7B3ljDZIBrGrVU8+99qLG2H5MLFmNVHY+DWlbpK4UsOYIFRZCpIkgU6jswoYCFCUprc0mDkMhmDiouLa4QOffrV0W1td9y+yicx4SDFdyy0iqpjdFItUxKWYnk30uZZBRM/l2COCSzosUpSQtbDzCPGurrmIhBrnAbY5mzjJuLuUAf/9LCIQ7Y1cLTBfFJLeW8BNBcR32pCqyOd3J7gXtSLc/bUibmUOSh7ktWNCYB4prNSr1arkQXCuYeCKd4e/B3JRWNTAJauV8gH7DIgEQ2ItaJiUoz968cqXoDS0SjWMTEiUqIhuphnfm+MP0le7R9d33V6zEOZs2aRaeffjq98cYbGRvNOsYhW+Kggg0HR6Nn4RiHVL1Nd5xPCnAcqkXDT2uLLbaIBU8XgglnRL6LHGATr4sIwrrRZRDozsTBOalA84MPeqOzOHA0dHEp/PmLqZ5f8I2sJFZV9aWGmjohCyWsidbVVstKdkVFJa8uclVdVkJqVq4W4tDMbbVwvEcpVhpZkZDkFExOmkTpdAqGWIz5OljB/HbJMlq1YjWN2GwEKy3ltO4667s4Tixqs9IhiowRh5TjXYr3wVGltJktDvOCoHUocU7Ja+GV6VImFc3N1VReyRYBLl7XQuVUVj6IamtqWB7VNKB/GSv6K+mLL5cxgRhEG248nEW3Qhaqm1leWD9uZCtTRTmyDbFmCmLBJAPxHkVIhMKybeZsTIhzAWloYm/mvpV9mfytpDLmF5V83fpaPo+tFMVciRoWh1ZWbFtZ0MsXf0OrCyn/ghOHMGkQNhjEhDD+TKhB1luaWCHnuYV/rUzsYa1ZvGw1fbWcaPPNNqD+zgPMbazt14lrEmPfFMyfIsYfv7EC34hkukUsP97PYqAy8RP0YopQ74AJQTwWiagB46i0LEYy0Lajks41KriclJFwlSMkMSx9PXs+k8daGrbV5lIcErH3ZbDgBcfkz2KT+ZVg+ktmjJIdAV3ZDxEAjh9++CEdeuih9PHHH2dsNKfK0eXl5Wkb1uCJddZZp02tBd985hMCyYKAgLXANcoPdElGHHS/dgTWC/hqbb311vT6668Trp0sBsKyKiWKziZexjliB/QyBLo7ccDKYFk5++8zIfjw0/9SaV9WIhvYv4G19iKO2Wjh5WRYCgb26Ut1rGg+99JztNOO29Ma/fuKGzWXzRRFv4xfJqVcC6dGziumvuXsDsMrm6Jg8Pc6fuZCFenDfzdxe+zzRE38DJ8+7XH6vxvH05+vuY769xtAI3fchXdViiUCbiytQdrO+LAyi4M/xYT8QWtjxX3eF3MD33XnbA6lrBTEoqWeV3jrWc5lVMfK/mNPPkc777w3E4Z+1L+ykeX6LZO7Ypo+/Tm6+tqJ9Je/3cDuSsW00UbDXARCUH8BBqUiVlpBSYqLmTSyBaoPK5OwHjWWslLLloU6JpiV5byvoYmquKpsEy+F49067eFH6aknn6Lrr/8rlfep5IKCzjL1FMv/5htuKpz8uwRx0KeISjZOHBz5g9UI+3iioRCflHVuYW+JO+ns31xDn382m4atxb/UraLiiv5iKbz9vkn04NSp9OgDT3JVbz68bjld+qcL6MJL/kDf8vSes6SRttl6U5K6v/BxQqV4rCHAusGMkWkg/8RED/MPCwAQPm/4/1Z2myri77X8nCjmOV/Ox035v9vopptuomkvzKB+gwa6oGn+vwduu5P+53/+h558/UWuwF1G399yK7FYFfH1MC7KeFGhszbTX7JHOuyBAyszdHqQgZEjR0oR5XSb6vdFrJhLOlb1X011km/WyNTdKK5Kmg3J+bym3jAY/f75g8U3u4A4rLXWWhJfgQqCyYgDrmLkwXtlBybN2OMNK4cSXGebIdA7EejOxMFpAmxrYGWwlK0MUDzruc5COfuzN9fzCnNlH6qVIAeOOWBFHv7VN91yAyudO9IO229LN9wwnt75YLbEKFx/1eV0+hln0jkXj6UtWDnoh9Xqel7Rhp81LzvXsA9NJSsOVP0tf5ZTLSu2UlyMlc8nHntcYicq2XLxi+N/yUpnCysUFS7jUyyq0l+ZVfIgT+h2DbzuHeMAZQ9pVB1xmPvFHCZ6Lk0nLA5Y121mmfWtQqxKDRNA1hgZ11sm3k07jdybtv/+NvT41Nvo1Vdn0uVXX8+uYkzkHp7OSmElVfFi2g93ZRLHvvJSFZ1l1oi4F1ZcXUQCEzteDWfOyW4pLSxPlkR5KR/mYhtcUl4mjPXN1IfHUSu/lx+f9ignJNmHl6i5Z5WVTFDZZYWV3CenPVE4+Xcz4tDUyNgiRzKrQXW1xXTb5Bl00kkHspsS1vnrmQP0Ede/oqJq2mSTTek7u+5H99/9D6qqWUHf22Rduvyvf6ava9ktqd9wOuLIfWkgn4Xq3mAmQhKDaRYjDpj/qHeAkAVmMGVIAIFj+LuGaYvFYVUD3Tl5Mo0562TuhZuVMgZW1tEd/DsN7gf/Rhpz+FFs4XCx21p8vl0TOIuTjThkAVboUL9cAXYtXbqUUD16xYoVGRvNyeKQKTgawvSDoyUQLVBG82FxQBvhm9bI8N13313KZvt1HoCC7zJlxCE+LmziZZwjdkAvQ6B7EwdWMTngJ5TMgQAAIABJREFU0lULbqHP531GRRxdCdcTDnagWW+/TTfeOon+ct31NIgtDsWsVbz7wVv0zTdf0+jdf8gvf7YeFPV3AZA139AxY46nHx88hk4+9TRqXrWYlUq4WZRSLa9yN1cMlMDpqqYV4idfy64SxazE1q5aQf+YdCuN2mNPeu2V12nsHy+lKnZzaebrt7BbTbG4PCk/8K0N+XF26O7EAfUw4KrUWtbIxG82u4M44iBB3FDeEAPRUsukYSVdycGMu+w2mtZdfwtasHAV/XjUbnTHxMvpo4/eo5V1Zbzqfz39687JNOrH+9L0V9+j439+AhNABDY30yq2IMAVrZLFIRU52O0Ibkpfzp9DF/zuIrph4mQq79uHrU6uirH0iglgReVgqqlm33weZxMn3EQnnngslXCMSzUHZ5cyoWyqWUX/uLWA8u9yxMERYZe+1ingsbpuUNXFJwimOHYjbCilc399Hf3973/k6Qvyj3nch+cZZ4FCVDTrUtNfeYuenf4MXf2HP9CDk26ig449iF7772y6+/F36YrLzqNKPgUB1SjX2MryFBdDuJ8FFob5n8+mUaNG0az336U11lhDCkAi1qkE1it2Xythi5MQhJpmuoSvcd7Yi6lqYH+qZ3NhFbdVUtdKvznvXBp9+EH06qw36A+/voAqsPgrsdN8veA6nfHaMP0le5STVd6GPg2rwx577EHPPfdc2kZVv48UHI2WUuXPTXYVVG8eMmRIwq6wkHMNjvbb8UGA3x0CAJOtmBtxSD4WbOJlP/HsjJ6NQHcnDgi6RNabyspSevHVF2n2V/Poe9t9n6bcfict/OJL+v1ll0sayhZ2Qbnl/26k4044mv774bu0+y47MumooPMuGMcZkCrouEP2FiIw4b6nWJG8mNauaqEqdmhu5OxJbNymag7T7MOr0ZUNX0kk54WXXEe7MlnYZ6/d6dZbbqaf7n8Q/fu1N+jC315EK75dSX379Bd3pRZE6hpxSDqJXIYnR/RayxrY4jBbqhyzS4C4KqHIWimIROCqVMvBtZNuv4f22e8ImjNvBf149I9YD51NC+bNpqlTX6FTTzuLbr/jRtptj73ozXcW02GHH8kkYAkThkb6ePYCGrbe+tSPsyoVsyaL1WZUJIYF4uLfj6X6kv505TXXsJvMcrYcsVLYwFmW2J2prq6CLR5rsMhradqj/6Sf/GRXJhgceF88gM9mBbKxmiYVUv5dijjEk5X6tDhOHDhSiHFEnBGijps449VNEx6gM886QZR359MEcgEqiQoanDqTnQlvv+kf1L/PcHrr3bdp7P+eRXMXL6H7Hv0PnX7aUTSITyzhC7zx1izaaMMNacigNXlec7IC7koDz90+HHd0AKerR1akaY9Oi6VYlaovWJTlT06BwJWBW+i+O++kg0/gmlhssZTxwWaF8pomuoyLhP3spDH06PQn6KJzfyXEsw4WTT6uffbC7N4tpr9kh5fq8epdFE5nC/KA3zJt0O+LFixYIGM6Sh2HKMHRWO1XVyWNW1C3pHxZHJTEwPqhLlT4bdiwYfI9PKCMOBhxyDQZbL8hAAS6O3FA8GwfDl5FsOVDjz5Im2+zJafK5Fz+yPGIbEfsgwzi0MTE4frrrqX9DvgJrV69nEbttgvNmbuQ5i1aQf/9zwe0zebr0R/GjiPqtw794/bJtMk6/TlhzwomE8W06Otvafrzb3IV7cOpquVbum3SBNp2p9E088VX6Nxzz6DJd9xOe+25N0175DG6/NJx7NHAqgivaCdYHCRnZNhdCRJon+rRnS0Org4D44QMO0wc5iyaQ00IakWQMiuR4pUuaXI59W1lK82ZP4/+duOtdPzxp9KyJdX0o113YK+hpbR0yWL6y7W30wUXXsRj4C7a/6cH05QpM+jcc37Fsv+GZdhEL7z8b/rB9j+g/rzSXMRtu6DYFvp6wVx6+dU36YtvGumoMcfRoMEceMvWjb6sFC6Y+yU9N/MtLrB6PAfXVtP0Jx/lhCSb0fm/uYC+XV5Lu7DF/4rLxxZW/l2COPgWBi3s5qpfgDiXIP5A4hua6fcX/45+//uLqKo/ohNK6eabp7Bl6ESOSQEBIPr9b86nJ2Y8TU/++zUawDKobFrMHkyltNmIfeiyq6+mY8fsRtXsvnbehf9Hf/3L76mMDRjlHJ8yffojtM8++/I1OEuTBEcjJolo7qezOVf/47S8tolOPfUUWm+dAZK6qZlJw5z5C5hwPkK/OvMcvnYp3T1xEm258w40ev99aSW7shxyyOH0IBcIu+KSy+nIM0+ia/5yLd107V/EVcnZOF062PbN4OjvISMO0bHyj1QXf18vVt1+0aJFaRtV/V4sDvkkDmhLiUNYsOHO+9f1jw3HMWQ6DsdLYE5AJHKDs/edZROv98nc7jg9At2ZOLgQTOR3d7Ubxt98E2dq+ZqO+/kYcd9EeAFysuPNDiV15rPP0ne3+S69/tqrdMD+P5Xg6fE3T6SHHnqIHrz/HnZlGESPPfUs7bTTSBo6eA3WDJBLqZV92Zvoqiv/zIro2fTlwtlMFs6hiy7+E7tGzaeDDj+E/sXnH3zgz+iBfz5A48ZeTpXswgLigJSuqB+hzhsuTaRPHno3cUDwaSWTuma2KDQU1dKcr76g5sp+bEGqocGlDZzJiH3eS9dkKwTWeKtlBXnmy7NoyxFb0UezXqf99vkxlbClqYaPe/HF12l7JgYPTb2fDjjgQLr//kcl3WIJ139AHYhbJtxKG/KK9L577xVLZw6LAwuJjjnul7S8rpxunfwPWnttpGPlVUh2UeGIB/rfK66hk08/lfoP7UcXXvxHWvpVNd18483sk99EV/7vODr17HNY/lMLJ/+CEwe3+KB0IVbhGS5DMuBhccMcbKavFy6kb1fX0ZZbbe2CpHn/OCbrp555Fg0euhbLvZHuGn87fb30G/r5BWfT2gOrqE/rMpZFCx35y4vor+PH03prNrHI6uncC2/gQPVLkIxL6nBc9NuTaYeddqTDjjwtMPDVyDUaOB5i8xE70FdLiT7//BO2OsGiwal9Wbp1vNp88i9Oopuuu4EGDhxCRx10MH3+zVJ65vkXqYKTKpx64qn0t79cT3+/eTwde8aJ9OfrrqbxTF5KmNgi+xrS8lZwrExnUQfTX9r3Ng/jB0uE1ndI13KnpWNN1olwtiQjDu0bBLmcbRMvF9TsnJ6MQHcmDlBZ4MqCjC1QKmfPnU2XXDaWXnr9ZVEOG3hxBfcHUtHEcQpVVX3o3nvv42wuE2nmjGepmt090UYFB7o2sRKBxZh+/frRlLum0AD+VAsy2rqJMyc98OC/2AWpL93K55999tn0DafrbIBSxPUe7rjtdlr69RI65MCDqYnrOXB2f8nO08ykw20uvqFtBen2rVd2Z4sDXJFKOCMOx5WzpaGO3v/sE3r9g08l61Xfpm/oqekz6NLrbuPMN5wBq/EbyYRTOWAIx5RMpIfvmkhTH3yI6gAtu4RJ5iSWXwX7GSHIde7cOVLfCMX+kBJ39erVdPIpJxHcDiT7jjjfuyw75VzwrYFjXe4BeVyTf2Qi069kAFucGmk8K6sPsiWLy0a4gxs5SJZtFaW0ktsFv+D/YzkXTP5dhDgE5Q545R6EAMq5Cy+XjWVAnMDgIV7d35ndyIauO1TiS7D//rvuoz332Yv6Dukvxb1POeyX9NgTT9G/531Iw4auSZW1i+mE40+kvY48k/oOGECH7rMDNfG8femNObQrW5zg9YQgiob6RZzUYEta8EU1E1EOa2flHoSCSzWwS9GafMiabGH8mNYZiqxpNSx6V2TwvP85h24ZP5EpIqwIxVQDRyR2byphXycUhWtgt8QWHiwfzPuU5nM8zN677Cxjhymt9B+0wYhD93hDGnEwi0NOI9WIQ06w2Uk9GIHuThxakCWHA1fhBjSPXVmaWtn6gMw47LoEN6MWPCvZNQX+rMgp38z55OGmiow5cJEBKaipZXWBfd+h5pTzSiOqy1azPz1IRAsXcENK1UuuuJzO5rSMa3JRt3K29CIVayP/3gqrrygPTE7Y73njYRtxIC1fiwkDrBwSrGnEIekMgucW/NOLOBMWR6HSbXffSduM3I2quOJz9ZL59PTTz9LPjj1LajdUskWihH1Z6ltdhd/y5hpxUatnJbGIZbZq1SoaNIhrO7BS2YLsOZAxhkWQ8rxJ6jig0jevQnNKxj5cw0NqdLD8V/MqeJ8+a3B2JV7NLlrFZJSVzZYKaqhr4mxNV9EZZ51GQ4cOlkKBxAQDsRlNnDq0sg+3xxalgsq/yxEHKNQgDs7iUF9Xx4o7q+U8127nIPLKAWvRUUcfJcRh7ufzOS7lfJr2xINUVIGIEc6AxZW7xxx1JF1/x0QaOKA//euOSXTCL85hnIfQxMl30MnH7A0mwnOSs5ZhwsKBpBwWDRAWBF0jGQHvED832JTYIY27JLMQcQ886FBQkDjbFgr3HX/sL+jv1/2NBq21tjOQMN/hmHipN9dUjyribNfEb7gqY90XNk5+jrQKYwlqQHTS+8H0l/YBbcTBiENOI8gmXk6w2Uk9GIHuThxQ7K2mZjVV9KkQi0NlFSt8bH0AWcAKNWoz1DEJgJKItJogDmWcSaW6ukYsEAh+ruS8/HWc6rMUJIILwaEo0OZbbsHKZB/6auEX4vKy3wE/pbPOOotTtDoiAaIBL+paJgt9qrhaMROFFlYoNt14UyELDWx1QGVj/GbEIfUEQnB7K1cIptbVNH7C/9Fu+/6Uqrhi8/uzXuVYgovYEtGffnPRH3ileXfGlFeTOX4EZLBvRbEUaCvhgHZU9EU1b1j1YTUqRVwLdEpUFA+K+PXlgOZqtjogdXkLZ8PB+BBfeNYwy9jkUcwE5J1336LvfG9LCZj8ZvFyOuXUM+jgww+jk07+BeuZnEaUXaZY3Gxggn8+CgW2Uk1dfWHl34WIgxhlmHyJKYdlErM4wCrHFgfUU9niu9uxNWgey4ctgBV96amnX6TlnJls3/33EGX+0P0OpB132okuuPQPvLLPMTC8AEDFVeytxNQcxh2x3GGu8Vq/6O64Fmc5Y5lV8IJBMSweIA5cGRxB9sjGyo8IcZd65aUXaNudd+bj+Fnx8Yf0w5E709nnnE+X/GmsC1pgTopgadRowImSMYmbR9XpJlgw+J44nML9FhARHNo+m2H0l4vpL9GxSnakEQcjDjmNIJt4OcFmJ/VgBLozcZB4ATjKS5GwZlq8dDGtrF4lFYZRLGwlKyTFTAYq2RUJ/qyrVq2mfqw4NrDyX8JaiCiZFaVcTJPTbTKZAMEYMHAguyTMp5NO+AVn1KmTGIc//vGPtN9P9mHFtV7ywcdTbrNFgeMZsBINMoLCUBuuvyGWJkU5AXmQVK+ymatSeBoBkSJW8hvrV9OAyhb6zQXn06bbfo9+yEHH5byi28gr+29/PF9w3WnLjdlNvpEVOLYksDWhkWMTkFWwkVNrSvA7WxKk5gYriyCAkKmrFusSocAVLdD15BPnlYFswK0FmbnYgvAtB1mfcdqZtJoD6bHCfDErlD8eNVrqScCvvYwtW00goYjLKGarEiuoYn1i0lgw+XcR4hCPcXBhw27Jv4jnWr1Y+zQKAnUx4E5WBGsdB70XcaTxyy++SD9iFyZMkZ12HE3PznyWOKOxKOTIrSTpVVsCC1IJk0HQDg6ClitIJiZwBZBFxFNAcviBWYDEFGHqwcKwmubOm0fbbP9Dql5ZyxanKprEqZqPPu5Ifg7wGAl4zmq2WGHBALFTuD6SPYNIYp5ja2L3tTIO2sZOnMcGp07bTH9pH9RGHIw45DSCbOLlBJud1IMR6N7EgV/k7IMMlyQof7PnfM5EAK4jrVRbV0v92dUBFoVmVjyaWbmHAoNVaSgDiD9o4BVpIR68laAYJBRKKCK8cSZWUURr+Hy4LDWsrpFzK3nlGtooFCKscjeI0ljOxazquH5DFa2/7jBWhBslFqKeiQZWqeObxTj4UwkLw43sqlTBymMppzX9/POP6ehf/oK+/vYbcQVrZZLw/d32pCsvH0dVHDDdn11eVrJci6GIwjrElcARv1DJJA1yhlxBHJpZTmJhYksSnvl1fA7clMJFWFGxoRHuZEwIyotZIWVCya2xTztbpFBYkMdCKQr/MSlsYeWxhFfTS9glppTlvoJdaprZLQae/BUgnYWSfxchDkIC5R/mD745Vx7UVsAKfgu7hxUzTvx/LlYaO1HToZWtTWKdKBUywFOGZRVfxXexKEz6xC/JLRLAylfB1goXq9IqBfvKy6tE7jwc3LWZdCINrPSEA9m5UIv0p7mF4xc4za5Ws1aag+ZbmMyUwgIm1MQRfYwZzGFkhyrmz1aOlSri5019Dc9/tm4GN90pbwjTX9oHsxEHIw45jSCbeDnBZif1YAS6O3FAcDCKwMWIA7sQ1bIigYBnrBQijgHZ50pYYRHFghXOOs7Cg5VicWPBymLgCw8LBMiFZtrAfhwPv3msQjYh+BZVo/l7OSuPtTVQWCrE57lf3360asUq2mLEFmJpwKJrnz5VvBqtecId0vHg6PwMqu4cHK1Zr8rZl6SotpoWf/0F1bHbyfm/u5Bz9r9P6288nP584400gF3B+qJKM0e6wrd8NVuC+jApbGJ3klYmbn1Y1pAJSIMjh4h7cVYHdWGCFQIuZrA8YGxAtrVYDWdSWM8uUBWt9Zxmk49pZisEPOL7IDCW8+aA2PDYaVxZQ0MGD2SL1hLJptPMAdslXKG6FWOM3d8KJv8uQBxkXAfDWRVuf3S7OAeeJyBfWLkH8WaGAMugWuKcnu4yofmuPzpf0G4Ly79ImAFbfmAx4rmOhQO4EEmVdlgHGA+xOmmnOHlCQ+NqiYNA8HxlCROOJhR/QDJeOUWIQiM/JxDzEOSCkoxLeEYIXeFxU6wdww9gHUJ2cH7n+SqZ/tK+Z6YRByMOOY0gm3g5wWYn9WAEujtxAGlAsGs5WxqakUIF73H2TYabEWIXWlnxQ5pHcVvh/8TNiBUBWa1EOj5WGIrZXQakQfaxMgplEZVlYWEoZ0WlnhVMfMcGIgAiIhmX4BoD3YGVCqw4SzA1Aie57VIom1CU4IgdBzn2Z76GVHcnDgyQ+Hz0ZRmsZteyElbYi9hXva6Bay3wvhZWDlvYWtSvma1KUhGYV/qRDhP6G+NaxgocpKDFUbXmEcaDZjIE1mUsR3zXFIx4FxRz2/WIhWF592PxNtUxOeFCcE0szyZeDYcuClc1xKxUceLNmpVcHK4/jyImL7XMB1F5vBTX534UTP5diDg4hV8Hu/sMV+5FfEkxlH83BWW+NmKeIUUV4y46OeYwCsHxAS2Yk3IY5hVUfZfEAL+2wgUpmF8gDq2Ye+XueARNu6QJsFagboeLNSqBC5O6McHKIMH5TCilTT6Xx5pYCflcsT1iLgtZcH83NMP1Cm0E9+nHcuRrUqdox/SX9gHcLuLA5k2OmeGgG/F/ZB6rAwCDM8jAoA8f7EtXKE5vA3lehw4dGivEpm1qe/juV47W6/r79TcxpXv9k7EbPBw0PaC2h1Uwv//tg7Xnn20Tr+fL2O4wOwSasZomAaqo1QoHfn5p4iXJ/669YjwdefhR8sIu4ahAPB7xHINPeRGvzkEJKBJXH1UWsrt2Po52ykdcWfG/a82E+AomK32qrcQu7lkCQCaCu0EsA7bAk0liG/xL+ZYDqScR/ABy4swK/rppPu40eRuZiEMLLDJYgYXFhZWiZna1qChjQsU3dM+999ARxxzGonaWGHHzEfk6lx9933Rc7wEVsINrmMOriTPetAB0KJEsjCb+G0pheVOJrPq6ytKQrJMbcBfM22yZxyXEJPhwWyUggljxlvBbViBBHNj6gW7h+qXNKPXF39mlqYUV0VZVGPkySh6lP50sfxAhIb2IFWHrSzmv6ItnTxOnOn3oXvrVpWdSHQefV7J1JFZsAWMcpAiuWAmudO2RdPwZ4BR9bP5zISSjYL74FgWZN3qyTFToZ64xRxUhKyYO8hv+TxMPgHS4vie0J/vVdQoH4Dgo/d70ZBljLCGiAf+VBH0APl7rsS8yNt0ICdrxgsDbA1+ac1VvURKmBc3C+msHXb7HNJuMOGBRKNMmdRx4JUqGWL4qR6MtvwBcPHDOERFV7P06DuGHshIDfIbrPchkCEzmPnHAcSAOUQpYZAKmt+w34tBbJG33GRWBBOIAZQj/AuJwzeU30LFHHyfEoQgpDPll6fzEYelHisX4Cz3q9TruOE9xER2lLZlxP+em0Gtr4roQNBGoNnIt91Og+HSi43Mm4iAKENKOIniUOy6LtKxAlbAf/5S7p9BRxx0hxMFfNNP3jb57Ok5moho65V+UdhADKHI83iA/WBaQ3B9rweybLv2X71glRsArepZMcYsTSe17cmqBmBOnHjpXFyiW4uQCzTu2D1p2UcLvUDPRz0DmTvIFkX9MNogjYD/8UkTrMmkoaSmhu/95FxOHs4RslUiaUtdFZBYrLnOxN7nNhvCIUJLmSjK6dn3i5n6PkQkBzmfijghyr9sSgEB7RyVokXuQjleKPggpQDsubiLWquxTYuE/B2DpCFyM5OggpBuYBC3F1kHkMRi/F2kSxwVTPBgleUMwjKj/Pay3SM+DVMK2cJwOucR9yYgDrMKZNiEObNbuEsQhLHDf4oAb8YmNb3FQYiKBeuyridUG26IhYMQhGk52VO9BAO4eYmiFy4auogbE4X8v/RuNOfZ4yVikxAFzSIIb4Q+MoEFNv1ggyGIcIakGFCYPbQ8ShQb3E/QfigH+LgkUlqZAz2APGadqeIuiTjlxCm4iT5E16E5BJBNxQCAnXo5ww3DkgVeoYXUo70N33nUnHT2Gs8rwErVv/dbnJKwQHbkwJSiBlGL9lhVCBCtDkS/if8VgOFDOZUUY7l68ko5P7MeRst+lU02OdaLsk0vDKZcgghwJw38zRjBz4DeuOI1PBMnjGk1ssUH/pO4EFE6pG+DUXRF1wuU6Uf6BN4KQWbG+wEzDsR5F5TT5ntvp15efzffCPeeB28LZvorZzUpc9eDGk7dRGicJwVq8I4QBKO4vRxwEOyV80gWHo1PSYU1wZ4mlB/NQDQaYgEIWncreyvjjLIxr5FFV64Ao/jhOZKPUDpM2CJjGn/wP1iNX1ZrJCn/X67nCdPw7N6TUUCyxgRWxiZ+RaBW0y6cgnTLZ0bMghgPzEi6Tpv9FRz4ZcYiCX6xytLoCpbokLqAZGKK6Kq2zzjpp78B3VUp3oO+qpMfpDfs3jpeBEYfog0YeNsGk07PM1JcdfnZ0z0NA9R2XyjBQJQLicPVlf6djjjo2eAkj3aWLEUD2kRapzuoUuZDW1KkgxYhDTlf1FRrXgLokKXFg13rZgqyvjjhAqRGssGLtr6z6neg6xEGs2CwmEIcSJnyN9U1CHCbfOVmIQytcbwIFVGMAwr7pOcGb4SQgVCx+60i66QqpAVMolxx1whirWxLUPN4fBKSCbGA/FD/k6tdV7lSXi0kixCOdVQPqIbtoMS5SyE1IJA5E9i0QFJ848JiHTilqriMW7vrJtk6Sf+CN0MTkvhjB3QxnMVsbKoor6PYptzFxOEdYcDEII8eNlMDSEIxhR7vy0U+ABDIliAkYMZIgEg3iDkTSAXHQ4GLBMU4cHN5uZT9GHNCgMAic64KjMWbdWJGj1HYQuDEpcXA9ce5jLtZIPJHCxAEtaawziAOeab47nAKGtL/BveDwjndSajuu1OtE3QnN4hD9yZSMOERZGIkRB1yqo1yVdOUmfDvJXJCS3XIqV6VwXASIAzIVRLnx6ND27CONOPRs+drdZY9AG+Kgfsb87v3rNbfQYYccLhaJFsmP7rIMYaEOhk55JRc4xkGVlBTam1OSUsICa0PgVBEoKqq4qDtSOMZBvytdwOo4Nl3dhCKZchOl1G36mbpv0WSZyeKgChFqIeBeQRywWA9XJY1xYE0z9h5x8nUxeaqcROtJ9keJchk4sTfLSq5TxYpBYoQ4OEoghbxEjkI1RDkU5T1GHDJfO7VUnASctYMVXyiV3G6ZpOVlHETfxMVdvh23Ms3zAJYHUURdit2CyT9EHOCuVMbWBrgqTbn/TjrvkrPYAMHJA/g3mQj4h/gG7r/UvcgMXYQjAISLagalCy4hxMvNDaELTnpCFDER3HH++BfdXR0oxGvJRR5AOghvxlYCy1BAAuQHOQmthO9EbRCOwgQdcZ/+oUEHYhYHGY+OOCRsslrgKKNezWs5Aka5HaL6HWQldxosamOeKsnPreXed1ZeiIMGgyWDT4Wj5qBMEH/11VcJwdEq4HBwtAx8Lyg7WXC0mk78/iWzOCCTCCwORhwySSe+34hDdKzsyN6BQBvigLdqsLg36f/upr1//BNJe9jcUi9pLt2CC4JokUO98BYHlZLoAgnvescEUivmicqGC4KNB0NDYcT3sIuSfhelJyAbTm10V0q9Ah2swgYdUr0kx5CL2ODMRByQTUaUjsCKBOKAGIcmdld67PHHaP+D9qVSzkSD944GXaJxzTLV0bMgiIEVYuAE5pxPnAsTPqHQ84o0uw4JdKzAC2FNEGw6+pVJNXb7nUsUXweB//y9DIH//B2uapBpMbswuWBqpwLDpckRh8TV6U6Xf5KsSiAOTbVN9MAj/6Rzx54ufYarkuAbwNHIyRAwlzOhE1n+Qa0Fdu6KTBx8W6WjhBh4wRVlosEa4WaXcxtCFAQYRTwWwp2ktCSQpbvThC3BbUnaDO933x0PAbFJdgAsHYm/5w2/NECHg6P10GHDhtHChQsji6i3H5grcYB+LzEOybIW+ZaCjiIOaFcmaxA0nU1WpfA5IA6wOJipKvp0MOIQHSs7sncgkEAcJOABy5HuzfrA3Y/T1lt+h/r37ycxDo1cMM0taMBdybkqabaTroWWvs5TuZHEtfdA3W+jJ8QU+yRKSPxe26oNarBxCo/b4r2JL2RTBHO6AAAgAElEQVR2FnHQrEqwOEgVa8iNla9VK6vplVdfoZ1/tBP1G1Al7yRJHxssbKmrUse+X1Rpx6q90xgRJK0ZqoBcEa+cw3WkpRiFwqCpY3/cwxwqZZvVYRVQTMtLrt45FxYQYcQ01Du3M2lfErwmDGmNr9Aw2qIWVBIGu3QuS/4lVe6dIf+E68JNiWUM4rB8yXJ6/OlpdOyZR9KQddeUwmUgjeKcz1u+LA4x+g3igAUFcflyl/EtDhp8DEuNb3GIg5xI5J3ElEUEpEcOCUhC3LcoNMuc61uChi8LCC6WwlV4cK5TTj6OUTunJ5faN81qQzDWlPIo3ekM+sA0il0O1VNm9uzZtPfee3PRxM8Txql9SY1Au4gDPxxlvERxVcqXxQHXUxekqBaHcHB0MlclFLvp2Ad7zxqGRhx6ljztbtqPQPx1zX/xKqukYw3e109MfZYGD1qLhqy9Ni9SIC8+4hycO0krLxGjjoHLgJ5uxbf9fcy+BV15TPFCD7R2twrp+q5H6p2kdFHymgyndpVzPb0jmeKIy+VXzYhfJZ4KFB3BhfDP5f9BkbJSrtwLAgFdacnipfSfDz6grb4zgtYaslasUJq6RMSJQyL60vfgkvHV19zkr7EJorCrz7qsJgcr45LNyFm1WtndRpTGWPajQAPOGGOTBm1xeQEx4ZHAxMFl7UHmHawsu3uKjwO0gx67jP8I1naSdBmWYrB0qvxd2lxNWdoMKwmTedSd+HLBl/T0zOk04gfD6ZAjfiYxDrqhknox18jIR4xDnDighkrYVSlOyxNdlQCd1mdwvXI2hcSYozjtZ1CVm6G+Q8ym4Q3G2KyKThzc2YF5VWwNoA2eNSs8gWV+48fAfCfX1JJxifMkX99g+YPOKH0NYjShS06dOpV++ctf0qpVq/J1qR7fTpcjDpqONR3y7SEO2m44ONpiHDKPdd9HMOzylU1wNM6FDJHJAJuyf33B6gTX3/0J7/dSiV6qWJjMd2RHGAL5QgC+7C6Hv2xQKkEcoFuyHlVbXU8P/ush2nP0XhxQy5V1S8tF+Wzg4FoX3wCfby9tZb661d52VIOXF32qxtR5we0PE4dU36N0LZUaHetK+IAcmYRmg3JJnYJV2VAHm1qcfLEQ1dDAhewCi8IzzzxDe+65Jz3//HPyiXzmeLaViXwRz8JDgceCe17FO+jIibuI8+/XAPEoyCQ7BuqhT+B8MHAtp7DHg/D1PsMSyuX68fZjaVmDew3rjPHvevMaGhsQNO/ynSV/YINMSaVcUA1EYFX1ai5CiIrWxfTYY9Noux2+RxeP/R09+fTj0jtUTsZxUPDDrju5oJd4TpwkJJt2bfBL4gvkB7m3mRKxBlJLJhiVKSZ9kpgHGVk69ty4SrhuMuLgRn7wL/mc83EJ6wF+0oFUOoKer8dibkLXw6YuhKNHj6YXXnjBXNWzGLi5Eoesg6OjWBzQmUwF4HBv4aBn/yb8v5MdpxkvfPOxZlWyGIfMI0cnqI9f1KwE4cHmZzXIRBrSPRhwLvYrEcl8F3aEIZBvBPQFGCiHQcrB2HuRF+M+/2QuvfXmO7TbrrtRA1fWbeLqrJUVfeQVCwsEKjd3PYtDvnHquu3F1ee27ANShVW6uma1EAYojaiU/eprr9LIkTvRJiPWp9kfLqS3Zr1FP/rRj4Q8NLFlok8FFwuTdxaqaQekUvQlVaziV02dVarrYtZzelYk7w8uaksVHO/Y1ILKby3sgvYyjdyF5Tt8A3pk2qN03/330pR7p8T4H95pkJu8f1D3wbacEVBF3l8I9HUEVfY1tbGm09fjffcjHBvOZgaXdPUs0XOOPvpoGjNmDB144IHmcZKF5HIhDqrfF9XW1narytEyyTVXs/cJ4mCVozOPGn+w6KTUzygWB4130fgUfSj4MtFeqDUBDwcuNCjB62GCqOdl7rkdYQh0NAJ4tsC9wSmCyO+OisIu6DngA6x9fvT+Z/TaK6/TFptvQeutt75bBebfKzmlZ0s93DvibhAd3WNrP46AKH/sSxMPzdZ9ztUHxAGKSXl5GZOCOlqydDF9+NGHNGr0KBq+BacPD/xHPn5/Ib366qs0YsQIWm9dli9ED/nyKqcUSPJiBRLsAXwMKu2GE9CYjDoHAVhJGuG7z95VDRx/tHjJV/TpZ5/SD3+0C22+9cYxovDAAw/S+JtuoJNPOYVGjRpFa7PrYWlgOc/R2NU5N9gFrpLJFVyfnX5Sm3C3w0kHcI5PIHANzDMQBN38RUeQB7gkPfbYY3TnnXfSqaeeSkcccURCgeEuAFWX70Iy4gBsM21icWB2npE4qLIYxeKAi2aqHI32/DoOuQRHh5mqEYdM4nb7k5n73ItRU0umMiy781VWmqbQt/DgN7Ua+BUI4RYAeemg9IPg0abvRxztLuwoQ6BjEPCzh8pYF4u+y32ODCbO87iYhq0zjPbYfTQN32S4rHIi7WNFaYX4The3NzVQx9xaj29VPK1RqKqN5h73Dsezpr6hTlzSPmOlcuZzz9GSbxazXJ3rhpblWn/I+rTHHnvQJpts4uTLJBJuS06xVPXSUzPh1YZnGcJiejzSXfMGIXcUdFtVu4rDk5rpk08/ppdefpEWLVmEkSGEsoTdCeGuhr8HDx5MAwYMEPl++umnXfOmulivMrkU+4uFqiuEvUDgZqSugL6eoOlUwwuY/nccs9FGG4m+snz5cvmnOoTWGutikHXZ7rSLOOQ7q5KaMlAALrwKHU7HqqvWuRAH/xxlqJaONdoYDccjhC0PmVoJn6/H68QFgXj33Xdp5syZBN9hPBzee+892nbbbWnzzTenzTbbjLbeemsaMmSI+CrCUjRw4ED2R+1nrkqZwLf9HYyAs2iKeqhFmRCDCtdtT2dE0hTENlT05eVNxBOqtpjZzbeD+9+Lm0+/5uGAAT9AvDuKf5Ujq5InOx86dkGrY1elyr594sdEad/nFb1YFAW5dTEpOfm6Ccz/YumL3PegLpuL5w4WMDXxSiYf+4LcUxe7aCaLAxR5WANWrFhB1dXVotgj49E777zDRP0z+uijj+g73/mOxBjttddetN9++9GWW27ZxuLgExTfQuG7Lvnxk1EXtbsYnAXtTrtclZBVSdOxprqLsHtKpruNEhzdnsrRya5vlaMzSSW+P1xERfdkeijIe5djEdSygE9MXvVXnD59Oj377LN0yy230PDhwyU92m677UY/+clPxE0J4yz8EFCfSD9TQvQ7sSMNgfwioBYHIQq++SFQGpsaORsPqs0G33nxkoqR0RAKi2Q2xI7E1JX57aG1lhaBKNYeFDNDUGxMi4TIUIiD6zc08vMscFuR5x0/34qRfYnjG4o46DZxC1seNDA4KsMwWeYXAdTnYJkEczE2N3GRQFTNLMeS0hK2OsUDbP13UpR3YH773L1ai2pxSHccYlBefPFFmjFjBj3xxBPioXLMMccQApwPPvjghDgF32qhC83hOIjuhWDX6W0uxAG9F1clWBzwJV/pWCHodAXgdGL6Qc84R33l0RffUhEOjg5bGnSAWuXoaAMyHBAdX12N7t3JcTFiJcD25ptv0q233kr33XefBBSefPLJtPvuu9OgQYNiHQoP0Gg9taMMgc5HwIVHBxlR2D2lmJ9NcUupJGBxGx8iMRBwUZGAaLcZZeh8mekVnbEnMA+l6kZgGWpiK2gpF/KDAGWluVSzAsVl2cqLJPIu8glDG06Q+NxExWXbCoNAzNjHQ0CKM3Isi0xVnqdIWhAO0k21kl2Y3nePq2YiVpmIBe4yXIV98eLFokdMmDCBs5o9T7/4xS/o+OOPp+23316O9XVT6HmaQMXviy5odg8Uu0YvkxEHjU1J1UPV74uiWBzkhcgPUfxLRzD0Yn6MQ6qBlKvFATfrEws/Gh9uL5luvGuIrPC98E1+OoCyUfDvuusueuihh2ju3Ll02mmn0ZFHHklrrLGGU56QFzuIadAAJz8bgu8HqUjkQmAKj6L1oKchoKWP/PtS1TCc4cMfu25BIyAWtuDcNYeFuKqw5QD1NgJ3NKdwuBz+8eSTiWQg8fkYgRiY/Asof52EYAxOV4C8k7m4aCfDi2kF7HyPvrSvuymBUE8DdRNbuXIl3XHHHfIPbs0HHHAAIWtSOAuTEMIgOU74OdyjQczjzbXL4tDdiIMOmHBchLkqRRtRfjwDztDAZF9x9x+y4fRqcEO69NJLxT/xkksuoQ022MDiEqJBb0d1AwQy63ypj4jl9M/cSDdAopt2MaLhNIpHU7YIxGKyM8k/VryLF1nY9a0Yrm+ZNtQUCSxbrRx/USQWEsRqsGtVOSwn/EUzf+knKp971rBMl+j2+2Mmh2QCiDgwuj0IXeMGVCnVBUO/9oIfW5JqMQbWoIULF9JFF11EL730El122WV0wgkniPUX/3y9xNdpdL+ikCx9a9dAqPC9aBdxMFelwguws3uQzEdQB5FOQkxMpFDt27evdA9mxN/97nd01FFH0dixYyWwWS1Q+lCw4LLOlqRdL98IZNL54sWOkl0ZqThNQcm3TPLaXpCWNa9teo1FScWKatVS7yOk7Mvv8IWDqz6TA6lmzMq/WEUCchE7l8mHPG+VdGiQt0dKYoHfqQLAOwqEQrYrAvBncZIMWIXsXw+/tuoWvlLquxeFXY3CC8B+ghXEQlRVVdEXX3xBF198MT3++OP017/+VXQQP6BdXd3Dv4Wrvpt+kjj4OtxVqasFRydzqcGANVelzE8ln52r4q8Bzn7WK52M//3vf8UVaauttqJrr71WiITvYxjFpzFzr+wIQ6BrINAe4pCqWnHXuLPe0Yu2Sa0SJdpWvmGiF6/Xm3kshF7E8jU9cYQRgDOCcrpQjp3gP3B0AwdklyPeIsPW1MyuwkwmGjnAt5QDfPVK+F7G39Em0o3618B35Sf6e6brdOf9uNt48l0jDYWSpcamatp2KPFKKnx9A0QCCn84cQr67cek4JzVq1fTeeedJ9mZJk2aJNkZ1dUpfDy+Y0ETrtLJ2i4ULl3puu22OGhWpbDiqDepxCFKyiscm66OA9pUUxU+ddD4N+H7lGLApOpfmNWCOIRzBnclQXWlvqTy6/RlA5aPTEnjx4+XwGc/ED1c4dnYfFeSrvUlVwQyK4upj3BrnWZxyBX79p6npCGuOMrbJvjnWk+UXlua4c6NH5V5PMR77VTW9DEQ2p6Oklq26vbhjHPYGvldh/ch3nll/CnKEPy42QqBffqbXlGP17aagzhE/zicr4GjPX1kOmmGZ2BPv+v2zpr8nh/WA5LpBcl+8y0VGK84JhwfqT1FRiYUfUOl6HHjxsWOUxKitSFwvn8t01ESZZ0LcVD9vtsVgNOVcCsAl/uET1bHQWMc0OrHH39Mv/rVryTHMhi+bjqhfdJgQc25y8HO7FkIaDamnnVX3elu4uHNoVdkiptIpVRmQxfCZCQzXk1cfK40yNSEQmUlxSVUW8eZ6iq58jiniEWlcv3dD9rG3+rKoefjajgW70WpcB5s2o7/HX/7x2Tuafc7wkk0F7IQpnTd7967Uo/92AW4PCMdux+XoC5L4SQtIr0gdV1Y6deFZj33+uuvp6eeeoquu+468YjwvR/8di3OIfnISEYcIleO5tSaGStHa0YlFVymAQqLw9ChQ11GA8k24ialb9HIR+VoNWWhbascnUkqbn848FleOEGWEfx94403Sh2GV155RfwLYQrUiR+2Uvj+ijgGFh9zXYomBzuqpyKQndLZU1EozH3lojB6PW1HTG1c7Ywmf9+X28cKBbKuuOIKSWkOV4sXX3xJdpexK5NvTW+G2xK7JzWhvkRw28FrVo5Hpigc03u3TG5K4ViI3otUR9y5H1+ARCrQI1CF/cwzz6RtttmGoKBiAVIDnX2XIyxsYqyrxSGZ1UBJyLfffiu1ok4//XT5pzWmYpY7ryZLMhf3jrj37tJmu4gDsirhRvNVx0FNGemIA64Xrs+QzFUp1XE4VsuTq9KrWZXMVSnzsPUJnWKJlxTyJ6+55ppCHpQkKDlIZ4L0CUTmq9sRhkA3RyCabtjNb7Kbdj9X7pCNTDNdI11bGnAQwNtQ30DlFeVitrj//vulJs5ZZ51Fe+yxB60xaA2uSxcPkkZSCryn4UKKGhRNKFbHClkR4hqC48b+aSwNGDCAzjnnHCoL6hjEPK8y9bubijynbsewUGGpYAyknPAMTvL1OF+HWLZsmdRoQJIVkIfDDjtMzkimO4QTteA4XbzE36qLaFIWHH/uuefSkiVL6J577knovlob2nNPPfXcdrkq5Zs4AOQolaP94JlwZL2v2GpdBp/Y+Pt9v3s1h/VUQefrvvzVLkxckK9DDz2UjjvuOKnHAHyVUPgTNbxK5pMJY/P5ko610+URyEbJ7PI308M62B69L6pc010jQhtavdhH/v777qdHHnlE8tejsrEUGJQaBO5iyK501VVXyUrtJZde0kZoUuSMjx13+ThCNporr7pSzsEm70j+nx7TwySe2+20IQ7aTHsGUG5d6Wln6eIt9IpkxABZkQ4//HA64ogjYrfue6UkS6/qe0r4Oom2j3mB+TNx4kSJy8TvINVq+bDFzbajLBfioPq9VI72g499X3dVyn1XpXBQbLJBn6xytH+cH4Cba3C0PEy9AiBWOTpREuGJ4g8SP6cyUp0NGzaMsCIwePDgnvYMs/sxBAwBQ6DLIeCnxH7vvfck1fW0adNiio6+3/xFNdTNwXMcdXRSLdToPhyrW7dZ1ElLunhnUp0+/KOLChHCFAPA/5JhKPh98JoOd83oRW5TSsc9LGpQ8ocPHx5LfpNbi4lnLVq0SFyi5s+fL94TuuCcLAU9zuzN1cNzJQ7Q7yNVjsYFYkFZQbaHdEKOYnHItXK0z2Z9ywMYJywOPvHJx0Dsjm2kmgzARjJ2sN8f8J81axYdcsghkic5nJK1O9639dkQMAQMga6OgP/CxnMYbkW77767WHv9GLGwZb3HEwdhS0mkJ1p6OCYheQxDPEFBFmHSqQhLNsTBYquzmnaTJ0+m119/XTI2hq0JWTWU5GC0t+6669KMGTNo6623TiDjOFytEZhfGlvRGy0SuRIH6PdCHABmlBgHXCjdcSpDPx1rsuBoZXqZrpvsuFSrJ1B8EUzT22Mc/IxJwA+mOt+lSCfp8uXLadSoUfTOO+/IRFLLT3snrZ1vCBgChoAhkByBZIGeo0ePpqlTp0psQq8nDj55SFjW94lDusDndmrwKU7PaHFo52V703yBDgL9Ay5LTz/9dMx6li8CgTmGefS9732PXnjhBVpjjTUEXt9DRfHujYRB771dxCHbytEa6Z5qoKMzYeKgQvMfin5wtKZY9bMuadBzqiBqLeqB49SXDn3r7RYHHQx+sZUw2XvjjTfopJNOorfeeksYt+b5/n/2vgRAjqpa+8w+WUkgyQRcQVmTEEBEliAQNnmAIKA8EEQUnorsCLIrgqyy/agIKOAKCLLjQ8CwI4IgawBJCBIJeWHfZjJJZua/3+0+PXcq1V1V3dXTt7q/0jDdXbfu8t1bVee7Z2Oc40Z6fHOsRIAIDDcC7stahZZNN91UHnjggeV2RhtS41B0QoLEISqUbrrGRCQO6dwp6j8J+W3rrbe2/gjVSCir8g8iOMFhesqUKUMSwZloojJixIgCoUB/Go1ElEMcVL5vMgBbHwd1IilFCFTAjFpCcUyVioWjC9at7DGsf+7A1QSn0YkD8NMbwCURqpKDDeAmm2xibQDdw41aEDW/PE8EiAARIALlIRAUUCDAwKE5GMqaxMHFt1rEIZIS5ITLwFQvR0uocYh9M+gGJcK9Y93jSEvboJ1wZUP4Orz44otWoxcWZAeyI8rH8d+NPcgMFCyHOGBY1lQpqcYhClx0xnWOVs0BGkxD4xCMwGRvatMmfRxyK7WUI5zGRgZWuHl1LvWmLeZAlIF7gF0kAkSACGQCgaCQ5JrzDhGVnTxIKNMQPg6hMxgMmWqliSJznUSCd+vVOpevt6jbRSZWm1+ddMmwyoaajyuNHFC6caxWLOrH4N5jGqK10S0swoiDRjEttmpUvo/lHK2MEBMcx8dh0aJFMmnSpCFtBztZrnO0qrpcDQTqQt9Gjx5tk+Y08uHehEoEgA92uWBT+Ktf/UomTJhgIQresKVIRyNjyrETASJABNJAQEmD+x7DBg6ez8HnbyNqHIplXzdpZB2ykIYZ0lDSkA9cW4KQDM5+Gq2nsZayWIebF2rUqFE2P0Pacoe7AYq6YZYEsoBw8wjZCusLt4wmk4trUZNF3MP6XK7GAfJ90/z581N1jsakqKmSCqZqlpSWxsF9+KoADELT1dVFH4f8LpVipKx67733ll122cWSh2BSFBfPNFh/vdxYHAcRIAJEIG0E3Bc2PrtaebetxiUOy+/xNxU0DGmJ7UOjNMUlDmm1nvaaymJ9rhYgLVMl1zwbMqEr21x77bVy3XXXyTXXXGPhUq1ElJl+FrGN0+cw4gBT9lKHyvfDElUprCOVZI52nah18anpDX0chtoLguEjXvILL7wgF154YZz1xDJEgAgQASIwTAjQVGkQ6JzGYXmPAg2u6iYHg8DnhhEf3Cwz2bZNMrzgRiUESRWW+vqQdbt5yAz32cSnIi3NLaYHyAZhMnIP9Nt6LHEJbMppe+5GnKtJcomfCqrDtKS8b0ZNiIY7CubBBx9sQ7Qie3VYtEnvgUuxg+VqHIYtHCuJQ4qzHVGVG00JNyWcoHfddVcbdjWOmdnw9ZQtEQEiQASIAIlDGHEYurc/qHHIldVgHjnhL0cAli7N5ShyD3cnWwVFvUZNVIC/ngNdWNafC+fZ3NS8nJ4DwhbK6rtUSQPaUVOXsJ1stR3XICWNvuprRRwwDwjTCq0DCIRGUwIJbbS5IXHI38x4aFDjMOggjZtk++23tzHC4f+Rti1hoz/8OH4iQASIQKUIkDgEiUPue5As4Lc+EwEHR0triyw1duttJgS7GK2A3TBra5fFvcjn1GaE/sE6ly2DoN9if9B3YNA0pt+8K5uNmXWf0TTYCI2tOQICzQPoQ9BEybWRD5r+um2gDs0xVek6qafra0UcgCF2zL/xjW/IbbfdZkkgSEMjmi2ROJA4FJ4peIiBQOFGOProo+UjH/mIHH744UPUcvX0AOJYiAARIAJZRoDEYXniEEYa8pJ87o8xNWqCpsHJKt3fZ/QFLTmB3ygADJ9AMJecNqKvr7+gmcA7EhoD9S2xOaGWmCSohnCYyxxDqZzJFIgDiAV2pBF8paOjY7nwoa4QptoH1zRKNzTpQ5ib61oSB8zPOeecI6+//rr85Cc/sf1pxIiSJA4kDkPem7gxnn76afna174mTz75ZP5BCrvPoTadWX7Zsu9EgAgQgXpAgMQh5iwaOR5koMm+xwakf9lSoyXIfc4RCOPz0A8y0WT8FCAMwvEcOaoG2YA5NXjkXSlACt568y35PxMtZs2pa5vrcxeooRIuWWZ8Bd1EZWqW5JouFRM+NepjVCj7mCjURbFaEQfXr2GNNdaQW265RdZcc826wDTpIEgcSBwKa0bDnc2YMUPOPPNMwV/9La3IBUkXKMsTASJABIhAOAIkDjFWRiF6qpKEvBO1MVMCUYC5kmERRtxvkZ7efunsUE0DOMWAtLaY/+JSUxT+EcbrWTpN4r1+Y5bUbLQPV1z2Kzn4sEPlrntnyegVxso6a65ttAo5MxZLIHCxOfRdGjRtcd+tH374oSDUKI45c+bY3ey11lor9SRnMVDztkitiIMLyL333isnnHCCzdruOtl7C1rKHSNxIHEYsqSQq+Hhhx+20ZQaPclJyvcaqyMCRIAIpIoAiUMJOEOyr/UvXSLNba3mItgjGc0DvhszI2gc+gbM71bbIMZPIVcvOAU0EDBXGjBfrGOzqXcZTJasj4TIkp5e+c3vfyudY0cZ4rFYvrHf/qYOo9EwxKHVEBJoHVxyoKHmUb+dP/PXOk0bcyb3uPLKK61p01577UUfQweYWhIHV0t04IEHymabbSZf//rXU72ns1AZiQOJw5B1uuKKK9qdjnHjxtkHHzUOWbiN2UciQAQaEQESh7BZV42CFc3z/0T+89KLstXWM+X+hx+RiRMmGkJgRXrjg7BEdtnty/LVfQ+UPfb4kjVPUvLQtyzn6zCAaEnmBEyTjAGT/fy3+/8mBx98iNx9z71y0g9/IDvvvqvMum+W/PCkk62mwlIGmEcNGK8LtGXasSzEajnM9X97VL71rW/Jw48+IJ2dnbLTjruaRGP7yN5772kHde+999l/J554ou3ToKWUm9Cu8VZ9rYhDMMrWO++8Y02V3njjjYYjdhURh+7u7gE8uOD4E3yAqSOPOvugoTghPeG1Pnny5MJEBB2DlPFpfdpuWH4GqJDc/tkdhHzSHGX9Wt8Io3pshKhKGKNiADzcDNHQMjz22GNy6aWXFuZTw8cFoz803uOKIyYCRIAI+IUAicPgfAz05VwMnnriYfnkJz8mY83ml4jRCojRKEDWXvae7L7rLtI/erL88Y9XSd87H8qJxx8t5/z8Avmgd6kcf8wpcuEFZ1vnaGz+Q1Af6DcyhHVbyJk1DRjNQ1NTmxx79HHy/PMvyqqrri5nn32WnPyj0+UrX99bbr3jNjn80IMECot2RFQyxMP6B1pzpV5jr2RMnUwEp2O/f7I89dRLssaaq8sFF51mIjKZzksnrKAsr0DbL855SW6+6Vb53lGH5vpkLagQ9FWJQ9DpojFSzNWKOKBd9U9Ra4wDDjhAPve5zwm0DypfYrO13Wij6tmpPYw4wPk/6rB5HIy9X6qZo9GoZo5W4dYFXz+7CeDUXtAlDhrxIJgoTicWRMclDigH4jDcCUWiQE77vE62hhFTUqDRHj72sY/JI488IiuvvHJB0+CGHEu7P6yPCBABIkAEykeAxMHBLq9ouOuO62SbL2xjiIIRpFtHmzCsLVbo/r85j8s1118vry584NEAACAASURBVHzYYaIFHiOt774uRx5xkJx58YWy1OgHDj/oGOOvcKXMe3mOIR4flYkTx8ning+MP0OHvPzSHFl/vfXkg/eXGK3E7nLVH66V//zn/+S73z1MrrjiN3LeRT+V/z7g6/LTS/+fnHv6D4xwb0yZjOlTOygEwi0ZjQWIw+uv/luuufY6Ofio4+S1+e/I/3zn23LBz34shx1xmNx28yw55oQfyI9PPcEOqrtnmRx//PFy4fln53y484RieXqgNlkkDuXfSdFXBoVlyEavvvqqbLXVVoZEPm/NzaA5wqGWGlprvfmIhhEHjDnqsMTB7EJ7QRyCmgJ9mBYjDiAWbjpxlMOEa6KVqMFn9XzY4tUF/rvf/U5uv/12wV8lWPjrJrjJ6rjZbyJABIhAPSJA4jA4q9aB2Xw99qj9Zf0Npsue+3zXfMtrG7CV37tQ1lpnmvz7/RHyzNPPy6e6RsqNV/9GNv7CdrLiSivLVb+7Vradua38+9/z5LZbb5JTfnSS1TzsvNN/yX/mvyJ/N75/Lc1tss8++8nPf3aJjBm7otxw/c2yxZYz5cKLfyH7fOc7cv6FZ8nPzzre7Db3SGvTCsY8Ce7R+Y4Z8rL4g/fk4G/uJ+efe4GM6fq43HDzLbLeRutJS3uLTO5aWXbd5cvy2qvvyp133CmjxzTL9489Ws4993RjHIV6TGfUv9u+nEFGIILBN6IxSIPKJrr5O5z3NORMFY6hUcAB2RE+DjvvvLPsueeeheSCKGtzepjw9vXoKxpGHOLIz4XM0WoKVGwCVb2TxFSpq6ur5HpAB+PU55oqaYU6YHfgWAyNQBxcUIPh33bbbTc566yzZLXVVrOmZ0MzZeY0NAzJOpyPKbZFBIgAESiNAIlDDh+Iz8ZfWTqMPLek+z+y7rpT5V9z3zW/t0kLsjgP9IJCSL+Rr3vFRC1qbpe2vrelzQjz3VYIh+DdYQR9fDERkbC739xv34M4gxxw5mPeXMg4Uhsi0tpsdpebTDI5kxdi7LgJ8vBTT8mLc2fLtlusLx3moqXLmqUdZayEaTrXngvVevRBh8pPDdFAOjo4ZqPJPuNMbbvR0iEDS9tNZKWx8syz/zT1PStbz5yRpwU5x+wCRWiyqgzzj8RhuJ4TQYEZctFLL70k3//+9+X3v/+9lSPdMvWa46EiHwcjcFdV41As4UmYJiFs4RTTOAT9IkAcNDHLcC3AWrTjJpfR9uG78Pjjj8shhxwijz76aO4hnA8f5+IfXCi16D/bJAJEgAgQgUEESBwGsci/tgwHeC/3Yz8E+9zO8AAIQIsR3g2JGDAEAWUhxi+1UZVaZZnxYWhrai1EUcI1OW18qxXqkdPBCuyGKNggrTZhXLMsWdxv7NlNTXBjgP+zOQsD7lbzud0I9c2m3oF++ICaM/3vmn/Nsvd+R8lPLvi5TJ7UaTJYdxuyYwiLqdeSH8sfTF8Mo0Ef4dsA0qLhYAf9G9y7IG+j5TiC1/M9UksfBzXvRh8gO0FuxG+bbrqpjUQ5bdo0a6WhhEE3XOuNQKRCHNQ5OmyxqsYBAMZJYrJw4cIhztEqyLo+DKoScZ2yw5yjg+XcutyBYwGAKda7jwPG72Ki8/Xd735X1l9/fYGjD/wdME/QLqjWod4WfT0/VDk2IkAEGgcBEgdnro38bEXopsVGjkeSN8jzRs9gCAEE+/7+Jfad1tZiyIQJk2qVC9ZvwAQMwTcT6QgRk6BtUEFdyYO20tuzWDo6RxRZYEaYtOGY2mSpEfg7m5fKY488LGusMVXGrTBGFr70rEybvqF856gfy/EnHyPGOsm0hrCwTYZAGPdoQyo6RqDn0HJgJIbIgDxA0wFn7Sb8Bg0DjjxTyY8h9/tgBKl6vgNqRRyGUDUzMS5BOPfcc2XevHny05/+1G68ujk76nEuyiUOkO+tj0NY1KLgTrXudKdJHNRUqZyoSsFrlDkGfSXqbcJdvw77vMkz4wkTJtgQrOPHj7dmSnroDaD2fPWGB8dDBIgAEcgyAiQOg7OHUKnN5v21xEjarcj6DGMgqAH6DXlALgbzEWJ509IPranSPX+bLd897DC5f9YNsuIKSLqGWEjNBTv1fmOOZP0hrblSzkAol3kaQZYQXSkXI7VvGbQZppz53AKTJxNJCYqJPuPnMNc4VW+x+UxZtOhtEzGpRX73+6vkq/+9x2CUJlOBuVxaTNPgBYsXLzGBWlrkw+73ZdTIMaalnF9DrnHbsvnnkIcG8m1w5ZJa+DjoRqrrv4A+YWPVRBg1EbZWlTfffHPI46Reo1FWRBySmCqlpXHQicLfuBoHNwxsMR8HN3xWll8kUX0POurceuutcskll9j06faxFGKmpJoY+jhEocvzRIAIEIHhQ4DEwcHahky1dMGaIUkfNA9gCznTpKXQOiAQSkuvcaD+vjz3yodyzXVXGJMiQyYGFtvMC83QTphjibEZaocJEd6JShJyL8hcg9YnwvhLmEzSHbBWMG2DVNhfrVyPbNRL8tqDFmMKZXwZDJtAv9qsPwPYAkyUDHFA0Zy1U/5ABUbvYEO/Gg0IslrnoyrlCuTOD2oYGscxOjcFZqbykTELkA3TBzdakhtxEjLSl770Jdl///3li1/8oiWc6Cf+ucF4hqmbVW/GO+Kg4VhLjVx9F8ohDlpv0Dm6EXwcXEyVQBxxxBE2nBgWOw8iQASIABHwEwH3naWfVWusmmIIMCpYuULOD3/4QyvAnHDCCVbo0uvdPD6nn3663T095ZRTCjbaVkx1AmMEg2Todx92Vt2N+dxn5DzAn5xgjeisOFqtO7QR5uHrYL9DBIcwr6Y+7t9Sa0FbtCjBkcLWK0azkKsKFGZpXmHQZsiJMT0a7E5BV2AtkGzfUB52Uk4GaesAnf8939PBHrmaBz/XbNq9wvrE+oX1Cj7rOvYheMtNN90k999/v8nrcXaBOOD+DIZmTRuTWtRXLnEoRFWyNyLSsBc5kvg4oGxUAjh7e8GO0Gk37IFarFyQAao5TiP4OAS1CfiOTNGwzRs9enSsBH21WKRskwgQASJABHIIQEjHOxdEwA097r6HdWMIQgvK/OhHP7IE4LTTTrN1qKDl/gVhgECGCDFqVqxCjyv8uDupcSMcDsfcDZKFnCRu9utz8rvVEpid/QJxMEnYzP5+n9U1aEwi6/GQP5ISBzhXoCbIJRD6DUHI+06AOPSb3xFKtWnAaBhMMRNsaUgQ1UHikCcvhmAMKhRQL37HX8SFyl+MnhZMlxpL42CHbtY07gOs06AQOxxrLayN119/XaZMmWJl2CBh8IHYpIlLOcRB5fumnp6eTGWOdh94SiCUODRC5mhdvHgJ4KUze/Zs2W+//Wy26GIRrNJcbKyLCBABIkAEykMgLLCFmwDVfb4H/QlBGPCuO+mkk4YIWq7fG8qgDWgnXEHHNW91A2ZgFEpW/AmgAUfnQTMeK5TnEzwsM8ImROyWARNdyRx9JuIS9uxzGgc1/1GJPK6jcV7rYImDmjHB6AiaA/wxGiBkjIbRlCEO1kMhL+dbfwv7S54M5DqbXxxu+/q7jitv1FQoqufj9rm89efDVbrOgiZ6vuzqT5061WQl/6NxiF9jyEasP/dHOrMYRhxA5KIOS6qMQ0gkcUiicUCjUZmjUZ+7y1GOc7Tan6mwjEXXCMQhOKkXXHCBzJ8/3ySYOdeydzpBRy17nicCRIAI1B4BPK/x/ho1apR9dut7Vk2W3E0yCC0gBSAD0CqEbRKhPM7hOPnkk+3fOLbZfiW3yknSENXhGl2Qw3NqB7vvH0YcsI+fIxdBATzuTj40Ds6asOZFIA455+kByWk4BoyGQzlNTsTXBG6uxQYqchO7DXo+DPVtaEzNg9mstrKamui5Wrdab37i/jr44IOt1gGRKvXeWGz8YDSjdO2fHOn0oCLikHZUJVVlIAGcqxHAUIPhWHEeux3lEAf3mkYyVdIlg5Cr8OmAXwNCsO64445Doimls7RYCxEgAkSACKSNgE1KZkiDCk3q14Dv7s6ma5qqxAFmSHj24wiWPfPMMwWCWRi50B1d3bgLmifXnkDYvXw7rj6YBUFUVxcACO/mH8RxiOHNxhHajr/JJOsyf9us0J8nDQWuMLh773ICK4uETagqA/I9cIkDTJhAZfqtuZLjBG19INDyUFNvY1SVH4ulObleL1e/q32IS3DSXonDW5+7nrHJ+eGHH3plqoT+IdgM8jnceOONQ/wcVOYaXsSq11pFpkqIqqThWIt1UXdCVNCPGkoc5+i4dpVhmaPD2m+kzNHuhG+77bZy22232Zuv1mw9al3wPBEgAkSg0REICiAqwLtmTEosrJBrCIZGxbv33ntlxowZVqBxD30n3HXXXbLddtvlhFmNHpSvA5oM9S3E9VtuuaWgvD/vDd2pzwnoOJodBYKNympFcERQMqZD9jtMh4z3QYEZQOvgIpP7EiQOFtchAOa+5H2w8+dcSR/GU/nUbW4TSApnDassnXFq1DwOdhSBc/gtaFYVJBb1eZcoecV6Vgd/jNQl0rUe+QcffCC77rqr3HnnnYV7o978G/T54N77qp2Mwt+aKkHjgIJpOUejI6USwOnDzHWOdm08dUBqihR0og5qGlxTpUaKqoRdpffff19gj6eOPLXfMYpacjxPBIgAEWhcBNwIRrrZg3fYUUcdJZdffrmcccYZ8q1vfWuID4PrSK3IBTUNKoipEKaaDHyHsIYD7f3iF7+wZkzf+MY3bFt6nR+C0SBxKEQlCt2I1yhFVnLJCeVDzIyWX185nwkcQyssfMufVuKgNRT8JtwoSYMn85/ULEljQOX9I4Z0I9dArr3G0C6UusuxphHMBX998x1APofVVltNnnzySYHljPav3syVwjQOunlRbO5Uvm+Ko3FAJZoArhTB0MZcH4diuxnlahyCztFaPyZXU4fX+2tJCcLdd99tI23gLw8iQASIABHIBgJuJKRtttlGZs2aJe+++64cc8wxcscdd8h5550nO++885ANPXe31t0dVO2Dq53XDTolBnD2PO6446w2Ao7TEIjcwx/i4PgWmA4O1QCgxzkVhMkpnRe/QRqGal/C5PJYxMH6MuS0DIM0A5oDNOmEV83L/oP6iEGfhkHNQ5Ac5Gyucr8G+mt/Cyc22VjN8XvprrOZM2fKX//614JGzYccUypMb7HFFtanaJNNNrH3YFDIjj9if0uWY6qE0RTCsUaZKqGwL8TB3mL5VOHuwBvJVEnV1j//+c/l+eefl4suumg5PxF/lyt7RgSIABFoTAT0neUm5IQAde2118pKK61kTTYWLFggRx55pA16AeEFxELfwW5QkGAUGvd9qJtLEMygzVhnnXUsYUCkGL+POAJ0LI+FioY52Is4/VHBX6lEmEYhQiVSUW/9u9jd4HVlNiUOixYtkr333tuayvl4fOc735F1111X8FcPP8h1emhVRBxoqpTeRAxXTfrSgcp5hRVWkO9973se2akOFwpshwgQASKQLQTcyEkqiEA4ATlA1loQA9XGP/HEE/bZjh1PaJY33XTTQiZb1KOZd92dWvWfQHjuY4891oJz/vnnW+Lgw45utmaLvU0TASWz+Hv11VfLI488IhdeeGGBFOODL2v0nHPOkffee09+8IMf2HsuGBo5TVxqVVfVTZV8c44OUxs1kqmSvnC++c1vyp577jnEGc4fR7da3Q5slwgQASLgLwLB99czzzwjhxxyiDU5De5qouw999xjczfAvAgmTB//+MeHbBS5Zr8vv/yyzSz93HPPyVlnnSUInqE7vq4fhL/osGdZRgBrTH0ClARr9DCMS7VkcMy/5JJL5NOf/nQhspgP49Z78/bbb7dawF/96lehFi4+9LXSPlSscVBTJTdcqiuAKnHAoohiXihbKo+DPsQqzeMQDOGKBdkoztGqBoQdHvI3fPazn7VriKSh0luJ1xMBIkAEqoeAa2brtnLTTTfJNddcI1dddVXhZziOQquA5zo+I0wktAhbbbWVnH766TJhwoRC5CSch+YC5OPss8+Wr3zlK7aeejOvqN7MsOZqIOCuP9WG7bHHHrLPPvvYyEWuHOhLAjj0+dFHH7X+RohiVo/+DSqHJ42qpPJ95hLAaQSmRk8AhxsOSUrAivEXuJA4VOPRxzqJABEgAukh4ApIrlCCZzmiHu233342Lw98HvTQXVwINdgFhVYB+XtAII4//ni5+OKLBeYV+C0ogGk0GJKI9OaQNYUjoOQA6xoyCszssHZff/11qznDOj388MNlt912K5Ba3wRz9AcRlUBuoA3UQAP1Jl+FaRxiZ442YT0jM0erYzQaihtVafLkyUNUPO6OuC4qra+cBHAaVcINx9oImaPdkKsIGXbffffJRz/6Ue4u8UlOBIgAEcgAAirIu89yvLCREAuCyhVXXCGPP/64fX9ix1Pfj/oOVUEG5eHjBqEMh26mqf+DhlZEOTUhyQA87GKGEVCioIl9QWJ32GEHm+htgw02sNmYYZ6EQ9d8MFpYLYev5Bomf4hA9q9//atuZauKiAPCsQKZtPI4qCqjFHFAe8H8DO4g3M9h5XBeiYM+LDWqkjoO13LxDUfbGOf48eNl7ty59i9U2jyIABEgAkTAfwRUgxCWjVYFKiUWrnlTcNfTfVe6kQ+Dv6MdbKzxIALVRsCNGIa21LS6WEQwFdZ90jyAjCMCGf6ifyDf9XaU4+NQMFVKmzgA3DiZo5UQqA1nGHFQzUSQ2IQ9SBstHCtuwpEjR9okcDhIHOrttuZ4iAARqFcEwpygdawuOdDdWJAIN6kbyroaCzeJliu44bOasfokmNXrvDb6uILr2jWxC67DYiZ7tcRQ+w+ijQ1ZJIPTo94S7JZDHFS+t5mjXedoVYOigD7AXFOlKOdoXBeWOdpdDGmYKimT1fBdjeQcrWPXcHy1vNHqre0gKXUfhL5luKw37DkeIkAEiAARqAwBvKcgF7nm3C4Z1Xda8G9lrdbX1WpGH5VJOcujLpc4QL6PlTkaDWCRJfFxCGamDAJcbuZodzfFFfKg3u3s7Cw4smR5QuP0Xe1YG8U0Kw4mccvoWkZ5kK/gDeSaD9ChMC6qLEcEiAARIAK1RCDsfaVaJ/0bzJWgm8U4T8uF3OyROBRfxYXM0SgSx8chKXFwBXu04bLeoO9CsW6W8oVwr0E5dQKr5Y07XG2TOKSHdFAFGabS14drvUVWSA9F1kQEiAARIAK1RECJQ5R85W44+pJ0rZa4BdsmcYggDkkzR0c5iajzBDQOYX4L2h13YWuIVTePhDrSFCMOKOuq5GCqhL65plY+LcS0+0LiUB6iqnp0NQ3uLo1GPMF60sgQugNRXou8iggQASJABIhA9RGAXADZyTWrdTM2470X9JdRDXzQh6b6vfW3BRKH8LkpOEebBWZ9HKJYp5orxVFlxXGO1sUaVR8WebH+ucQENwr8L0gc/L0ZfeqZ+tm4mragDwPNlHyaMfaFCBABIkAEkiAQJrcVc2BOUm+9lyVxSFnjEOUcDcBd52jVHKAbxUyVkmgcgjkfdDeYPg71fiunM76w6CTBmhFzetSoUYWf9eEbh2Cn00vWQgSIABEgAkQgOQL6jtP3lm6OBTfGNOyvbsAy+Mcg1o1KHKKcwVW+j+UcDTjdGNFRS3nRokUyadKkIcWCduPlOkejHlXHaQOoC/0bPXq0wLG1EQ6aKlU2y7oe3ZjpSnKDWcl1/Udp5SrrEa8mAkSACBABIlA+AsUsQ0yi3yF5PML8+Mpvtf6ubFTiECfYDuT7pvnz58dOAKdgllomMD1SUyXXmz+4UMv1cVDthKvJQDtg1epXUX/LePkRkTiUP8uvvvqqPProozJnzhyZPXu2TfKCz2+99ZbgAYsMl27GVtcuNM6NVX7PeCURIAJEgAgQgfIQcLOMowYNyQr5aNNNN7UZyZH/aezYsTJ16lQZM2aMrLPOOjJlyhT53Oc+t9yGb3m9yP5VjUocFixYUHLyVL63GgeUrGZUpbCeVJI52nWi1hsFWgf6OGT/ho0agfqwhDnHY/7VEQwCvq4JaBUeeOABueGGG+S+++4T3Bx77LGHTfCy1lprydprry0TJkywD1T8hoetJiZEf7g7EzUrPE8EiAARIAK+I4CEsXgfYrMMJrlPP/203TTDLvLNN98skydPlo033lj23Xdf2WSTTawlR1A+1PehG42w3vwBG5U4xNkYHbZwrCQO6T9OGlXjEGaPqRkoXQEfD7UXX3xRLr/8cvnd734nW221lX0QbrHFFnZ3xTVHciMtuZG6dNZIHNJfv6yRCBABIkAEhhcBN5Ozmt66vz333HMya9YsefDBB63Wff/995f99ttP1lhjjYKJuPs+dE2j6ok8kDgUX5ckDsN7z6baWqMSB4DoOnGpOZzreP/II4/IGWecYTVQUM/utdde1owNBAH/ELYXvjA4rw9PfeiFkQQSh1SXLisjAkSACBCBGiAQ3FzTsOTQQnR0dFgNg74TISBeeeWV8s9//tOa8P7gBz+wZrzFwrcG8yHVYHipNUniQOKQ2mLyqaJGJg6YB30AqmoNxOH555+X8847T5555hk56qijZPfdd7eRvII7IcjVAPKg9p/4q1qLsDkmcfBp5bMvRIAIEAEiUC4C+j50Q9274fFdc1+8P/EPZr7YjJs+fbqceOKJ8olPfGJI89iIA/Gol4PEgcShXtbykHE0OnGA1kHDo+Lv97//fWuj+Ytf/MLaaOpDzN0FKRZxQolBMW0DgGfG6Lq8jTgoIkAEiEDDIIB3HP6pVsHdMHPfle5naCNQHn6w999/vzVf2mWXXeTcc8+1uJXadMsqsCQOJA5ZXbsl+92oxCEYa/qxxx6To48+Wrbbbjv53ve+N8SpWXdBgJX7IFTHagVYAwO4jtd1uWg4KCJABIgAEWhYBMI2xzTvA7QOMF3SEOVhIOn1Z511ltx9993y4x//WD7zmc/YovWUB4LEgcShLh8SjUocMJlKBC644AL54x//KHfddZcNLxc8ijlruQ843S2J49hFk6W6vJU4KCJABIhAQyGA9x420MKiabpmwCpnBDX3uPa9996zQUfgQ4hNu3o6SBxIHOppPRfG0qjEQQX8Qw45xCa0wc5HmBmRPujcLJpuArcwolCKPFAbUZe3EQdFBIgAEWgYBNQnMBgURDfk8Fffp8XekSp7qJbhpJNOknfeeUcuvvjiusGRxCGCOHR3dw9goWjcehWQggtInWdK5XvQpuCNj3jAru24W5/uGOvkaC6GsPwMassejKuvjq1uHgcIkm7/62YVhwykEYiDu8PvfkakJER4gHmSmh3FWZf1vB44NiJABIgAESAC1URAyUSQgNxxxx3ywx/+0PpAQFbDkeU8D41KHGDeHXXYcKwmwkxVE8C5GZ7drIblZo5WZozFqaE4McmoD8QhTgKLKGCycL5eiYOaDunfYIg35GD45S9/WUhO42oRsjBv7CMRIAJEgAgQgSwjoBt5+n6GwPnoo4/KEUccYf/q75DL4DOB5KpZOhqVOEDuijoscTCT6gVxCGoKlGQEM0wrcXBDaSpx6OzstAu2EY56JQ7u3OnDSX0Spk6dKpdddpklDThcX4V6csxqhPXLMRIBIkAEiEC2EAjmTcI7Gv8gj0H2QuK4gw8+WJ566qnlBpYlH8FGJQ5x5OdCAjg1VSq2hAFiUlMlJNwqdaCDOjmlyrmmSlrONYFS8yYwJRKHbD2ESq03N8Qb5nvzzTeX888/30Zw0HXjZozGOkFCNx5EgAgQASJABIhA+ggENQ1oIZgX4qGHHpJjjjlG8BfaBve9nJWw5o1KHOJY7HiVObrYEi+mcQj6RUCI1MyH6d8u/tVYzxoH1ykLBPPwww+XnXbaSbbffns7EcFwcfWUsdK/lcYeEQEiQASIABEYREA3k6FpcMmAvrtvueUWgd/DRRddlEnYSByKT9sQ4uA6Hwcv0UWCRRFnV3fhwoVDnKNRX9DRVVUirlN2mHN0sJxbl1snhEloHOIwpkyu5ECn65U4uE5X+Ixslcj0fOqppy4XJxp2lcgAHSSR9TC/HAMRIAJEgAgQAZ8QCDM3wm9uFmo1XTryyCNl5ZVXtqFatUwc+dGH8ZI4FJ8FyPfWx8GNqhQU8vU7hLi0iYNOTjlRlYLXgDhA4xD0lfBhEVajD/VKHFR7gPHByQrJ3bBzgQeO69firtN6S3dfjfXCOokAESACRIAIVIqAyliupiFoPg5LEciLM2bMkEsvvVSmTZtWiLZUafvDcT2JQwRxMCY+sZ2j0yIO6JKaIMXVOLjhNov5OGD3mcRhOG6r6rahjs5bb721XH/99bLCCivYBt3djmCMaZKH6s4JaycCRIAIEIHGRiCocQjKYsHvb775puyzzz5y6623WsuArERBJHGoAXGADVSUc3QlxEGH5C5i+jhk64EWdLJSsqBRG44//nhZaaWVChkp42R2zhYC7C0RIAJEgAgQgfpDAPKYbvYiSSsSxJ155plDBuqzbyKJQ/E1mdg5Oo7GAYBHJYBzNQ66uII+EKoGCzpHo5za0Kkwie8aVYk+Dv4/hIKqzuD32bNnW2fol156yc6r2kX6/KDxH3X2kAgQASJABIhA9RAIM2PCe3vNNdeUO++8U1ZdddWCH6qrfQi7rnq9jK6ZxCEcI5Xvm3p6ejKVOdolDkoglDgwc3T0DVHrEsXS2Lv+CwcccIDst99+NgQrDiUM1DrUevbYPhEgAkSACBCB4oIlNn1V46Ay2n333Se//vWvrb+Da7KkYf4127QvuDYqcYCvcNRhNQ7d3d2RxAEgJnGOVlMlV7BHZ9ShGb+7eRzKcY7WjNRuHgcSh6gpr/35YKjV4AMDsZ8RhQEPGsxtluwia48ue0AEiAARIAJEoDYIBH0gtBdmg1q23HJLueSSS2S99dazPwc3An2yKCBxKL5+Cpmj04yqpKoM+DiEEQd0Jw3i4JINmirVJjnGIgAAIABJREFU5iFRTqvFnKn0QbLLLrvI//zP/8jOO+9ccIZWLZMSiXLa5TVEgAgQASJABIhAdRHQPEv6VwnCDTfcIL/97W/tv1GjRhU6AXN0vON9CtXaqMQhytS/YKqEqEpZyxwdtuyZObq6D4M0aw+am2GxQvPw7LPPytlnny2XXXaZzc/gPlB82o1IEwvWRQSIABEgAkSgHhDQICc6lqCFwVe/+lU577zzbH4HDYQSDLPuAw4kDjE0DijihjsNXpLEVAkkpFQCOHWCcZ2ecY0uItVIqClS0Dk6qGlwTZWYOdqHWy5eH1zHdiUOMFGCpuqoo44qZKPE/OrDiOQhHrYsRQSIABEgAkSgFgi4iVmhdcCmoJokI6Hr22+/bRO7+ubX4GLVqMRBEy4XWzcq3zfF0TigEvVxKEUwtDHXx8FNEuJ2xvVxKLW4ITS6GpHgbrUbfQnEIWrgtbiRqtEmcMCNF6VaqkbbldQZNFVydySwC/H000/bvA2qtiRpqARtXksEiAARIAJEYHgQKObjoBvDkA3XX399ee2112yH3Pe/T8FPGpU4xJEnC+FYo0yVfCIO6EtQ+MRvNFUangdDGq0E09OjTmSHvvrqq+WKK65IownWQQSIABEgAkSACHiGwF577SUHHXSQbLrppjYhnGtV4EtXSRyKz0TBORpFaKrky5KN14+sahyCNpA6WpgnfeITn5BDDz00HgAsRQSIABEgAkSACGQKgfPPP18WLFgg55xzzhCNg0+myI1KHKIsdhKZKqmPg4IZtUrjZI4u11QJbYepwyCQ0lQpamZqf17nLpgpeu2115Zrr71Wpk2bVvtOsgdEgAgQASJABIhA6gg89thj8rWvfc0GQ8HhJnlNvbEyK2xU4hDbVMk4rwzJ4xAmmCdxjq5FOFZdfHSOLvMuqcFlWKAgj/BleOutt2TKlCkFu8cadIdNEgEiQASIABEgAlVEQDcOV1ppJZk3b56MHTu20Foxa4Qqdqdo1SQO4dAUwrFmLQGcRmBiArhsOkcrMQVpUPO466+/XmbNmiUXXHBBSZO5WjxA2CYRIAJEgAgQASJQOQLqJA0fhx133FF22GEH6+OA3+ME3qm8B/FqaFTiEDtztMnoF5k5WiMqJTFVmjx58hAnZkyXRkBCPWlkjnZDuELdxczR8W6KWpbScLwuAURotvfff19OP/30WnaNbRMBIkAEiAARIAJVRgA+jYiieOSRR1oHaRz0cagy6IHqgyb/mIfYxAHhWFFfWs7RqsooRRzQXjA/gzsI93NYOZx3k4bgu0ZVimOjNbzTU53WsuocrWioXSPm99vf/rZstNFGNmM0DyJABIgAESACRKA+EQBB+OUvfylPPPGEXHzxxXaDGUex0P21QKFRNQ5R8nPBVClt4oBJjuMcrYQAuQjcpG643g23ql7eLrFhONYcRlnO4+AmgNttt93k5JNPlunTpxd2H2rxsGCbRIAIEAEiQASIQHUQUNnt4YcflrPOOktuuOEG2xDkPA3NWp2Wk9VK4lAcr0I4Vs3joAK8XqIM0DVV0sRcpaYhLHO0Wz4NUyUlGKrmwg42naOT3Ry1KB0kfXhgwDH6lltukdVXX70WXWKbRIAIEAEiQASIwDAgAHlyzpw58qUvfckmfIWc6ZO2QWVLbFZHhScdBriq1kSYqVKUxgGdgXwfK3O0T+FYdWCuczT6B9uszs7Ogtqramh7UnFWNQ4Kn5uWfvz48fLiiy/KhAkTPEGX3SACRIAIEAEiQATSREAtDV599VVZd9115c0337QymwqxvhAIahyKz3ohczSKxPFxSOIc3dXVVdQ5Gu0FfReKdbOUL4R7Dcq1t7db7/xGOLJKHPQB4aaXHzNmjE0IM2rUKJoqNcLi5RiJABEgAkSg4RDQ9/97770nq6yyinzwwQcFDHzK50DiEEEckMchLnGAsAfhvNShzhMucUD5oFrEJQQaYceNuqQahWLEQdOUoxz+YdGhb+poU+93ZFaJA+ZT5wxzBM3DzjvvLHfccUe9TxnHRwSIABEgAkSgoRFYvHixtQ7Zdttt5c9//rPN5eRuJPoADolD+CwUnKONIGfDsaqvQLFJU3MlOORGHXGco7FQVPgtVR9szIr1zyUjEEixAEkcoman9ueDURSUOKJnvqgqa48Se0AEiAARIAJEoD4RCG4Yw9w8amN6uJAgcSiOdME5GkXimCpB2I9yjgbgrnO0ag6CQmG5GodgBCbUSx+H4bqd0mtHoyhg7kaOHCnYheBBBIgAESACRIAI1C8CuuGLvFsmAbGV36I2rocbjUYlDlHO4Crfx3KOxqRpZKU42f0WLVokkyZNGjLXQVMlNwFcqUUBgqFRn5QkBBca6kL/Ro8ebU1fGuHIqqlScB0ooXTD8zbC/HGMRIAIEAEiQAQaEQHIbJAlIQ9o4rcw2aBW2DQqcYjjIwz5vmn+/PmxfRziOEfDlElNlTSzs5oluWYolWgc3BwASmqwCNWvolaLbTjbrQfioPOoyfyGEz+2RQSIABEgAkSACAwfAq6ZMmRFkAbIgnE2pIevlzkrlkYMx4ogNaUOle+txgEF45gqxSEOqEuJQykGWUnmaNeJWk2XsADp4zCct1Z6bQXzh6RXM2siAkSACBABIkAEfELA943PRiUOcTQOwxaONWzBkjhUdhv7fuMlGR2JQxK0WJYIEAEiQASIQHYR8F1+IXEovrZIHLJ73xUiUsVhiL4Pk8TB9xli/4gAESACRIAIpIMAiUM6OFZSS9AiKK7JOIlDJajX+Frfb7wk8JA4JEGLZYkAESACRIAIZBcB3+UXahyoccju3VWi577feElAJ3FIghbLEgEiQASIABHILgK+yy8kDiQO2b27SBzqcu44KCJABIgAESACjYoAiUPtZ56mSvlYwIyqVPvFWE4PqHEoBzVeQwSIABEgAkQgewiQONR+zkgcSBxqvwor6AGJQwXg8VIiQASIABEgAhlCgMSh9pNVEXEwKb8HNDNzUIDTfAmaNTpJHofJkyfbyD9unW7+BTdztJYJy8/gZo52z6sHuJvHASnMNcFI7aeluj3w/cZLMnoShyRosSwRIAJEgAgQgewi4Lv80qg+Dr29vZGLykZVWrx4cVUTwEHAd7MF6udyM0djVO6iU6ET9YE41EN40siZC2AQp7zPZUgcfJ4d9o0IEAEiQASIQHoIkDikh2W5NYVpHExC6MjqLHFYsmSJF8QhqClwCQFG4ma2RlnVOCgxAXHo7Oy0Kcwb4fD9xksyByQOSdBiWSJABIgAESAC2UXAd/mlUTUOceTnQh4HNVUqtgwBInbyk5gqdXV1lVzVrqlSqYKuqZKWc02g1HwJTInEIZsPEhKHbM4be00EiAARIAJEICkCJA5JEUu/fEU+DkbgrqrGQQX74LBdU6Uo4hCmcQj6RYA4dHR00FQp/fVV9RpJHKoOMRsgAkSACBABIuAFAiQOtZ+GVIhDS0uLdWQOO1TjAK0DQp5GHQsXLhTXORrl3U7is6pEtN3gedfpGde7/QvTOBiTK6txoI9D1Oz4d57Ewb85YY+IABEgAkSACFQDARKHaqCarM5yiQPke+vj4EZVCgr5+l0jK6VJHNT0qZyoSsFrQBygcWBUpWSLx4fSJA4+zAL7QASIABEgAkSg+giQOFQf46gWKiIOSUyV0tI4YEBqqhRX4xB0jg4zVWpvbydxiFotHp4ncfBwUtglIkAEiAARIAJVQIDEoQqgJqzSO+IAr+so5+hKiIPi4w6cPg4JV41HxUkcPJoMdoUIEAEiQASIQBURIHGoIrgxqy6XOBSiKqEdd0c/2G4SHweURcWlEsC5GgdtN8zHoVi5sHCsGlWJPg4xV41HxUgcPJoMdoUIEAEiQASIQBURIHGoIrgxqy6HOKh839TT05OpzNHouBIH9y+IAzNHx1wxnhUjcfBsQtgdIkAEiAARIAJVQoDEoUrAJqg2jDjAVzjqsBqH7u7uSOKQROOARtVUyRXs8bsKiBpVqRLnaE385uZxIHGImnI/z5M4+Dkv7BURIAJEgAgQgbQRIHFIG9Hk9VVEHNKOqqSqDPg4hBEHDC8N4uA6R6M+miolXzi+XEHi4MtMsB9EgAgQASJABKqLAIlDdfGNU3tFpkqIqpS1zNFhoDBzdJyl4mcZEgc/54W9IgJEgAgQASKQNgIkDmkjmry+cogDWrGmStA44EtaztEQAkslgENncbiZo3ENnJrV7MjVVAQzTAc1Da6pEjNHJ188PlxB4uDDLLAPRIAIEAEiQASqjwCJQ/UxjmohjDhoYuZi16p83xRH44BKNAFcKYKhjbk+DsWyUaOD6uNQaoAgDq5GJOgcrfWjHIhD1MCjwMzKed9vvCQ4kjgkQYtliQARIAJEgAhkFwHf5ReVTetZnqxI45A14oBbRQfsDpymStl9iJA4ZHfu2HMiQASIABEgAkkQIHFIglZ1ylZEHGiqVJ1JqXatvt94ScZP4pAELZYlAkSACBABIpBdBHyXXxpV4xClYUlkqqThWOOYFmEpx8kcXa6pkqtxcG8bmipl9yFC4pDduWPPiQARIAJEgAgkQYDEIQla1SlbscZBfQhc52TXN0GJA/wc2traSo6iFuFY0SGYKtE5ujoLrNq1kjhUG2HWTwSIABEgAkTADwRIHGo/D+UQB5XvM5cATiMwMQHcgLS0tFin9awfJA5Zn0H2nwgQASJABIhAPARIHOLhVM1SYcQhdubonp6eyMzRGlEpianS5MmThzgxAwBXo+GaKrkhVlHOdX52oyoFw7W6IVyhcWDm6Gous+rVTeJQPWxZMxEgAkSACBABnxAgcaj9bFREHBBVCUNIK4+DqjJKEQe0F8zP4A7C/RxWDuehcQBxUM0DM0fXfiGW2wMSh3KR43VEgAgQASJABLKFAIlD7eerIlOltIkD4IjjHK2EAOY2pTQO6uXtEhuGY81pZWiqVPubjz0gAkSACBABIkAE4iPgu/zSqFGV4pi+FzJHu87RAEwPNQ1yTZWinKNxbVjmaHdJoY1KTZVQn2oe8JnO0fFvWt9KUuPg24ywP0SACBABIkAEqoMAiUN1cE1SazkaB5XvY2WO9ikcqzIi1zka/YNTR2dnpyUTjXD4fuMlmQMShyRosSwRIAJEgAgQgewi4Lv8Qo1D8bVlNQ5JTJWSOEd3dXUVdY5Gl4K+C8W6WcoXwr0G5drb2+siylCcx4HvN16cMWgZEockaLEsESACRIAIEIHsIuC7/ELiEEEckmaOhnBe6lDnaJc4oHxQLeISAg2xGoyahGuKEQeUxTloHvAPpkroGzUO2XuYkDhkb87YYyJABIgAESAC5SBA4lAOauleU46pksr3TUb4tuFYIXxHEQKYCcEhN+qI4xyNunTxlKoPvhDF+heMvgT/CxKHqNnx7zyJg39zwh4RASJABIgAEagGAiQO1UA1WZ3lEAe0UHCOxpc0w7G6ztHqi4A23GzU5WocghGYUC99HJItGN9Kkzj4NiPsDxEgAkSACBCB6iBA4lAdXJPUGkYcNIppsXpwDeT7WM7RqEQjK5UiGNrYokWLZNKkSUPaDnbSjapUarBuAjglCW40JfyGutC/0aNHS29vbxLsMlvW9xsvCbAkDknQYlkiQASIABEgAtlFwHf5hT4OxdcW5Pum+fPnx04AF8c5GqZMaqqkmZ3VLCktjYOb+E1JDQiN+lVk93aK33Pfb7z4I8lpohrFxCwJLixLBIgAESACRKDeEPBdfmlU4rBgwYKSS03l+2GJqhTWk0oyR7tO1Cp0QutAH4dsPl5IHLI5b+w1ESACRIAIEIGkCJA4JEUs/fIV+TgMRzhWEofqTDozR6ePK2skAkSACBABIkAEqocAiUP1sI1bM4lDPhM1NQ5xl4xf5ahx8Gs+2BsiQASIABEgAtVCgMShWsjGr5fEgcQh/mrxsCSJg4eTwi4RASJABIgAEagCAiQOVQA1YZUkDiQOCZeMX8VJHPyaD/aGCBABIkAEiEC1ECBxqBay8eslcSBxiL9aPCxJ4uDhpLBLRIAIEAEiQASqgACJQxVATVgliQOJQ8Il41dxEge/5oO9IQJEgAgQASJQLQRIHKqFbPx6SRxIHOKvFg9Lkjh4OCnsEhEgAkSACBCBKiBA4lAFUBNWWRFx6O7uHoDghtCeQQFO8yVo1ug4CeDQdySAmzx5sk3q5dbp5l9wM0drmbD8DG7maPd8c3OzzRbt5nEYMWJEwyQS8/3GS7KGSRySoMWyRIAIEAEiQASyi4Dv8kujJoDr7e2NXFSQ75sWL16cauZoJQ6axRkCvmYFdgVENwEcflcSgOtRXq8LJorT85rDQOtEORAH1NMIh+83XpI5IHFIghbLEgEiQASIABHILgK+yy+NShxMXrfIRWWJw5IlS7wgDkoutNcuIcBvra2thQEpsQBJcAlGZ2enQJPRCIfvN16SOSBxSIIWyxIBIkAEiAARyC4CvssvjUoc4sjPljggc7SaKhVbhgARQnoSUyVoHEodrqlSqXKuqZKWc02g1HwJTInEIZsPEhKHbM4be00EiAARIAJEICkCJA5JEUu/fEU+DiAOwR39YBfLJQ7Bjrn1hpkghUFTzFQp6BcB4tDR0UFTpfTXV9VrJHGoOsRsgAgQASJABIiAFwiQONR+GlIhDuocHTYcJQ7QOrS1tUWOeOHChUOco3GB20l8VpWI65Qd5hwdLOfW5dZpTK6sxoE+DpHT410BEgfvpoQdIgJEgAgQASJQFQRIHKoCa6JKyyUOkO+tj4MbVSko5Ot3jayUJnFQ06dyoioFrwFxgMYh6CuRCMkMFfb9xksCJYlDErRYlggQASJABIhAdhHwXX5pVB+HOBvvljgkMVVKS+OA5a4mSHE1DkHn6DBTpfb2dhKHDD5LSBwyOGnsMhEgAkSACBCBMhAgcSgDtJQvqUjjUA3iAK/rKOfoSoiD4ucOnD4OKa+qYayOxGEYwWZTRIAIEAEiQARqiACJQw3BzzddLnEoRFVCPe6OfnBISXwcUDYqAZyrcdB2gz4Q6u8QdI5GOfzTBHAajlWjKsVRtdR+yirvge83XpIRkjgkQYtliQARIAJEgAhkFwHf5ReaKoWvLZXvm3p6ejKVOdolDkog8BfEgZmjs/kgIXHI5ryx10SACBABIkAEkiJA4pAUsfTLh2kc4CscdViNQ3d3dyRxSKJxQKNqquQK9vhdBUSNqlSJc7RqGtw8DiQOUVPu53kSBz/nhb0iAkSACBABIpA2AiQOaSOavL6KiEPaUZVUlQEfhzDigOGlQRxc52jVODAca/LF48MVJA4+zAL7QASIABEgAkSg+giQOFQf46gWyvFxKJgqZTFzdBggzBwdtUz8PU/i4O/csGdEgAgQASJABNJEgMQhTTTLq6sc4oCWrKkSNA74kpZzNITAUgng0FkcrtMzroFTs5sATk2Rgs7RQU2Da6rEzNHlLaBaX0XiUOsZYPtEgAgQASJABIYHARKH4cG5VCthxEETLhe7TuV7m8dBE8CVakQTwJUiGHq96+Oggn2wbnRQfRxKtQvi4PYv6BztRl8CcYgaeO2nK50e+H7jJRkliUMStFiWCBABIkAEiEB2EfBdfmFUpeJrqxCONUvEAcNRpuQyJpoqZfchQuKQ3bljz4kAESACRIAIJEGAxCEJWtUpS1MlgysTwFVncQ1HrSQOw4Ey2yACRIAIEAEiUHsESBz8mAPXIgjuAVEWO4lMlTQcaxzTIsARJ3N0uaZKrsbBhR4mTTRVqv1iLKcHJA7loMZriAARIAJEgAhkDwESh9rPWcUaBzVVcp2TXSaSJI9DLcKxYgqocaj9Qiy3ByQO5SLH64gAESACRIAIZAsBEofaz1c5xKEQjjVrCeA0AhMTwA1IS0uLjUaV9YPEIeszyP4TASJABIgAEYiHAIlDPJyqWSqMOMTOHN3T0xOZOVojKiUxVZo8efIQJ2YA4Go0XFMlN8QqyrnOz25UpWC4VjeEKzQOzBxdzWVWvbpJHKqHLWsmAkSACBABIuATAiQOtZ+NiogDwrFiCGnlcVBVRinigPaC+RncQbifw8rhPDQOIA6qedCoSvWwAx9nSfl+48UZg5YhcUiCFssSASJABIgAEcguAr7LLwzHGr62CqZKaRMHNBfHOVoJAcxtSmkc1MvbJTYMx5rTytBUKbsPTvacCFQHgVyCTaPfzf0p/bVQJF/aFM9d0JS/Ht9y5wYrClS5fDODF+Wvy9U6tJ7m5fuI0vmOaH9E1BQTvzQFh5PrljNUfNT+5cYR7G3+e76hgaZc35qH4GV+GexAfny5Hwo/h4GQR55/iAARKI2A7/ILiUPx+StkjnadowGYHmoa5JoqtbW1Rd4TYZmj3YvQRqWmSvZVltc84DOdoyOnxdsC1Dh4OzXsWKYQwLPbkWghHOvzHB+bmqTPlOg3RdrtA9T838jvuKLfnDB7OOZznywzyTlbm9vNho7I4iVLpbO91QjMEOAhhpuQfabOJiNwQ9huMm0sXdInzR1mAwglTD24bsnSfmnrADnoM1cus22Y6u33JnNlf3+L0Ra3ybKlRtudO5E7m+9PK/pmTjaZ183SpUuMRrzDVGx8uvLlbGumzLLeZdLa0WoJx9JlIm2tpg7Tv37zQ4upq7k/l0AUrWOM/c1LzdjM92Wm4IDpWRtGbPpg6mpBD010PnshKscfYGP/myM6dowBmPNdsaUCfGNwYPxEBIhAAQESh9ovhnKco9FryPexMkf7FI5VTZFc52j0D04dnZ2dlkw0wuH7jZdkDkgckqDFskSgGALYPXc0BpY4aNncLnphRx/PSSMR94M5GBkawjGKLjNCekdbu/RBoDdCe44uGGJgn6tG4LdV5nb/7dEHzWeOkGAzqL3ZCN995ipjSpojJfifud7UNGAE9WYjxFti0tJp6zM/iZHtLWlBY735LnfiO9ps6s5L6u3mdJttWwmCFeXz41uGJi3xGTxQd9PAUquZtZ3B0WQaAzkYQPuG4LSZz6bOdpAGDMIOy1IpWznIlo63H1reJkOXgsQBVyynKeEqJQJEoBgCvssv1DgUX7uFzNEoEsfHIYlzdFdXV1HnaLQX9F0o1s1SvhDuNSjX3m5eLnUQZSjO48b3Gy/OGLQMiUMStFiWCIQjMFSehbibM9QpCLoDRkju6zEP+2bp6emVEaPGYQvePDONwI4NeFMWmogWyMzYwcduvfmytG+JjGgenVNVtCwx3+FbNsIK2f1GOm+BcG0kZyvINy0xbRjW0WQqNFoLozOwv7fgWhABs5u/FNqNJtSRIyB95gcr3ONwt+yXmbqa3zcvi8UiHeOM3sK0udQI7qZob54HQFPQbuoCmWgx4wINwAFNQ6slSq2W/CxbYvL8GM2J9PdaKb+/32hUMGZTBigNLDMaFKtpMEeOI1mi0zdg+mYYiaE9tjCIwxB2EuwzFycRIAKRCPguv5A4FJ/CgqkSisQhDhDKIZyXOtR5wiUO9lls1duDbwWXEGiI1WDUJFxTjDigLM5B84B/MFVC36hxiLxnvStA4uDdlLBDGUVg0FApp3vI0QcjHEN6NsL023Oflw03+Zz8u7tH+oywDNsg7P4PtI+Rl/79ikye2C7NRvpuxX+MkN3fip1+I3ybGBrtRjDvH+g2z1tjGmQEb6NssEI82gFXMBZD5hpDTCyDaJXu3n7ZZbe95cCv7y+7fWFLae00gv+AuQDmRKbM0mV90tlqO2a6hp62GmWF+W9bS06gN/1954V/mv5uJHM/gDBvjIn6RxnNhsj3fnCi/OiHR0unoQpNUC0YygNtyOK8uZIxgpKBJYYktI3MsSCLBGyVQEY6pTdvh9QB0mCIUVNzR84kCVZMGL/pI67qM33IERx8t8ZZ9vMgzhldKOw2EaghAiQONQQ/33Q5pkoF52gjfNtwrBC+Sx1qrlTYGSpROI5zNEiILp5S7UL9Xax/7sBBIuB/QeJQ+wWZtAckDkkRY3kiUASBgk9DTrQdIuAaSf+D5+fKZzffQv78wvOywsQVjKi+REYbM53fXXa1XPSzS+Uvf79XRht3gvYlb0FSN/8fJ4shTJtvxo3BGgvZXXsI4cZHwRgn5c2ZoFUwz2pDBmCm1Gckb1yzx277y5d32Um+tu+OOY1FnyEPpki3kefRt5HyvhHFew0ZMD4PLSuYuozWIO9v0Wra6XnhZdnI9PfWOS/IqHEryEijnRjZZq7o6zb9MR0DixgAYxlpiYxVXFg1C2gAzhl7K8ucDGGAA4Y5ucyUfRc/mX8rmrYxuj4ZJT15wgDcUA3eiDlzqLwhlzWjyvk6uLiquZQFnE4OvDWJQCQCJA6REFW9QDnEAZ0qS+MQ5RyNzrjO0eqLYJ+pKWgcghGYUC99HKq+xqraAIlDVeFl5Y2CgNoqGUm23wrOOTE3t31vPhnJuvuFF2Wjz28lf54zTzrHdcgYIzJ3mn/zX/g/2WrbL8gdjz0gH584TtreXyTrr/ppee7ND6VjxY/KM3PnyUrjWmThC3PlyEO+LRM+2iVX/uYPZre+XX7z29/JV/bZHSK/tBgtw1qfWkNeePUVWX2d9WT8ih+Tww86QPb6yhYi770va665pcx53Yjto0bLnHn/lFUnLpM5c56VA791kiwz2oQHH35EXnllnqw8cYy0LO6Wnn+9KjO23lb+8OQ/ZMIqE414D/JizIfE+D6AGLzTK1PWni4vL1wkrSNXkOfnLJCVJ42Q+bOflW99+wDpNtqUhx/5m/zfvGfkoEO+K2tvvIWcdNwpBpORctJpP5ItN5sm283cypgqtcjJp5whx5x8dMHVAWFA8K8JtlzNOVOrnM+D8c1QTY4lFhbq3OG4fzTKsuM4iUBSBEgckiKWfvkw4qBRTIu1pvJ9LOdoVKKRlUqZNGljixYtkkmTJg1pO9hJN6pSKUjcBHD2HYiHtxNNCb+hLvRv9OjY4KjCAAAgAElEQVTR0tuLHaT6P3y/8ZLMAIlDErRYlggUQaBAHIzJjnEChnjbbqIXwY/BMghjr//e8/+UGTNnym3P/ltWmDBexlon6Sa55PKr5PyLL5L7HvpfWcmYFJ188NEyYcwYOeK0Y+TiS66UP/31ObnlTxeb6+fJBhusK/ufdLoc8/1DZN6Dj8jhhx0o1z30F+noHCXHH36cTBg1Vk4+9UT52wN/l023+4r85vJLZN/dNpYfH32MLB4/XY7/0dHym0uukTtvv0quu+FnMuel+bLBhvvJhRddLnt/dTO7299i1A5Nhuh8+PSzsv3OO8kNTz0ubRMnWq1CJxQNve/K2I4Rcuxhp8i4MaPk2JP/Rx59/HH5+mFnyX13/VU6XpsrU6dPkVOuuk6+tOtOMrZ3gez1xS/Jq2M/LTdc+3v58LlnZeMNN5T1dv6qXHPVL2XpnJdls00/J7c/+4KMmzTOwgXSYJQvph/QotiXoPXR6Lcah5yGHjwBnILEgXclEYiPgO/yC30cis8l5Pum+fPn272SOD4OcZyjYcqkpkqa2VnNktLSOLiJ39B3fEf/1a8i/vLNbknfb7wkyJI4JEGLZYlAaeKAAEKLbSSjAenoy4dMsiY8S43g/w9j+vN5eeF97KC3yci+xVb4/ej0GXL/4/fL6Gbjw2B++8xqm8p1v79K1troU9bH4ZOf2UXuu/NOGfX6HPnCjl+Q3z76rHykq0N6npoj2269kdw+5+8ycoWJMmP9reS+2+6QlcYbsdv4nG21897yza/tJft8cRPZeK0pcvZ1f5P1N5oq7UZhsNF6q8n9D98ob7zbJ5tteZjc/+B98vGPGtkckZBgfmT8Hpa98C9Ze/o0edloM5a1GP+6plGy7a47yp//eJkhD0vlM1N3kPvvuUvGr9JtNpCWyEen7iTX/eZamTZimWwx8/Ny7b/mSNf4UTLmw3ny7X32l//64WXyuemrS9d7r8t3v/Y12fXki+SzG3xaxr39vnzeEKLTr7tJ1vrMukYLkyMO8OjrNxH7WozfhWUHcAg3/4FJVc7rIR+1dWi6CS5RIkAESiDgu/zSqMRhwYIFJdetyvdW45AmcUBdShyCWga3R5VkjnadqFXohNaBPg7ZfFaROGRz3thrPxHAA91Y9Od2zTXOKuxpjGNw97+elc222Ub+9OS/ZNLECTLHCN0zt9pWbvz7bJm+0dpGWH7X5DTokXUnf1YWLnrDREXqkx54NnSOl3vuniVTRrXI5kYgv2XuHFlx7AgZePZVY+qziVz79O2mXLPssNEe8ti9D8vEVYwvQ/MSOfLEE2VDs/O/907byLqfXkuefgOExezjm76MbFsif3vwNhm74iqyyTYHyt/+9rB8oks9COAPYUyrnp1jTJW2lhuffVxW6JpkxwSH6DZ5W158bp7suv3h8uCDD8q4jxjiYLQsX/zyEXLykSfL1LEdsvlWm8nNLzwjE1ccKR098+XAPb8qO51yiWy8/trS9eGH8u299pA9Tj1bPmOIyfh33pWN150uZ/3pJpny2elW02AjTJk+tAI7tUcicfBz0bNXmUKAxKH201WRjwOJQ+0nsJwe+H7jJRkTiUMStFiWCJRCIBdNKZeSwIQPdcyXTBgl42w8Wzba0vg4zH1Fxo4dJSss/UD+9Ns/yL6HnShPvvi8TJ5soiot/VBmrrWp3H/XQ9L+ERNW22y2v2f+QZjufe7fssnmG8utL78gK40eK8tmL5CZn99Ybp/7gLQaU9EZa20ljxvzpVErGadpE/p1xy/vKXt/eRfZd/dtZPMNNpLr73lWRk2YKNjA7zeJ4zraP5S5//q38bvYR5548kkxbgzWVGmg2ezrG6F98ex5sunMbeS2l2ZL25iRxicDydpMeFZDHFqaRsj0j39eHnro7zJqZZEPTQ6KdT+7k/z6Z1fImiNa5Yu77SS//ft9suKKHbJi83tywB57yZdP/5VsMPVTMvGD9+TAr+wm/33GubLB9Oky/t13ZJNp68pPbrxN1tlgGgI/FTQOuRwW+X954qC5HaypEqaDYZZ4WxKB2Aj4Lr80qsYhTjqDYcvjELaaqHGIfY+FFvT9xksyOhKHJGixLBEogYCNKIT/LEWgUYjZ5l8uRwJyn3WbaEobGx+Ha556RiZ0rSjjDMVoM7v/e+z0ZWkZMUau/NNVJvTqUvnp9w+VUSb86sGnnyX3PvSEfOP4M+T+O26T0a/Mly222FiuNRqAiRO6pHv2S7L91oaIPP2QrDRhgpx29NEywiSQO/rkE+SRJ5+Xz2/yX3LV1ZfLf++2rpz6vaOkedRUOe7U0+SO+56R4044XGb95TfywTs9MmOT/eRvf3/AOEDr2EzobxAHYwq1mXGOvv6l54wztyE6yDHRa3w3RvQaWtQjPzz0SKNRmCjfPf4kefCx2bLvoSfKI3ffKaMXvC6f2+SzcqMJP7vSuE4Z27NADtx7P9n9+Itks8+uJWMWvy0H7bG77HbyhbLxRtNk9Ntvy4wpa8lpf7xJ1p+xcQE1aB1g8jVgovY1IWSTjayUC+66nIO0BZmrkwgQgSgEfJdfSByKzyCJQ9Tq9vi87zdeEuhIHJKgxbJEIIo42JRn+U1wEAeIvua/Rg3x9uznZMvtt5PbZs82gvgYE4rV7Pqbf/9+7iX57EYzZP8jjpFTf3CMdHz4mqy/1qfkxdd6ZLFJnPbnh5+RzdZfU95/8gXZ4b+2kZuf+aesOH6CvPnCHNluq63lr08+Kl0TV5JWo8H47913k+v/Mks+ucZUmTBpdTnogH1kn702No4X3bL6p7aQOQtMUreRY+Uvd90qMzeZIvPmviSbf253mf3cMzJ6pVwAKMjfrUZD8v7sF01/d5CrH/uHTFx5gow2A0HStz4TWrVl4EORD16XKcZ3Ys5rvdI6ZoI8+fIC+eiKbfLeUy/L5lvMkL/Me0HGg3Ase9toPfaUAwxR2GC9tY3Pw//JgfvsI3sfd45susl60gHisP668v9u/LOsvl5O4wC6hb8Ixzpg/OhsyPJ8ZMAccRjkCeQLvCuJQHwEfJdfSBxIHOKv5gyV9P3GSwIliUMStFiWCBRDAKIsSEOT0Tfkov60qZWNjapkzi0zmdqMQG5CIJlgSjmjpiUmE3Rbi/FJyB9WP4FEaYgmZH5fgl1+JII2wjNyNWC/fYlNDGf8DfJ2UUuN5IzEy83InmY+LO5dbLQCI22ZAXNNG3IoII+DEcUHzM696YU9rGCez1S9xDg7tyO7Mw7LdMwJmCUZDcgykzm611TRiTZQ3mahhu9BzpvD6CCseZb1UTaV2zSlyD9hqzN+CgMYj/H9MIne0M8WE2HK2FKZvpikoSAFNrqUieJkKmg1mexUV5MzRcrTBGuO5OQ7cthCTruTMw/jQQSIQGkEfJdfSByKzx81Dhm+u32/8ZJAS+KQBC2WJQLFEMhJ8RBzTUaF3K69G+0Hwu2AEeyNL0AhU5pJojbQ1GZk7RabMXmkEbQHTLbkPpP7wSb7hGwOWXzpYmlrN9+RbbrFZJI2agFUDZIB/mFTRShJyQvtOL9kmSEQbSY/sxHmW1pRCD1UstJmxXBknW5rQ7o48w9/TGI5WzOE+5ZeK5L3G5doxDAaMGSmxWSQVp+CAVsxMjsgy7Opx9RvRXv8YD4MGFbSb8bcAkcNXGc6ucyQBJRtMRmhcxQBYn9Om6C+5OA4yC9nMmLkg6+ats2PzVCHuIflCbjeJQ4kD7xHiUApBHyXX0gcSBzq8g72/cZLAjqJQxK0WJYIFCcORiTO73lDuF5egDUpG4wgnY8UBA0EJGgIvcafQaXxJSY7c1PbiBzxWIJ0yhC6jVANEoF/qAOpDcAjIMib81Z0NnU1LTO79225bM3moy1jj/x1EMRx2LryQjgi4rUaktBs+4DDCOkmpmzOKsjQDNPPXtPxdkNYYKZk+4yiS03OnjbDdEw9ID4o32IFfWMVZRLRtRvNQZ/RNLSa800I72ouW4IwtUblkMvEYPQDfTkyswwkwzY3YAmF+jLg1z7TtxZTR7PBs6BRUDslSy6GEgdqHXiHEoHSCPguv5A4FJ8/ahwyfHf7fuMlgZbEIQlaLEsEiiEAATYnOOdIw9Ddcci6MBGyArmR/CHT53bQ+431Uo/ZuFd/iFbpNgJ1h9lyb0XSM5g3tRtPCFMBZGoI4LaNPAlpsj9C7TDoLgxOguat4RS0DMY8qtUI7Ll9+dzFOfKQE7NzpkImkSe2+XOqAnudbQ6nrIDumF6ZnA3W5gi/wqKpNad1MHoTK9wbo6p8W0iEZ36BxgF1oc82C0PuumariYDPRK5+q0HJ1WqIjyEZ8GvIH7l6Cl91GCQOAUj4lQhEIeC7/ELiUHwGLXHo7u4ewMMbaumgAKf5EjRrdJwEcGgOFU+ePNlmeHbrdPMvuJmjtUxYfgY3c7R7Hg90TTCHdlDfiBEmrrgNnVf/h+83XpIZIHFIghbLEoFSCLjPv+U1DmpNhDODZ/XXwW100A9bRp+n5h2hZ23rQ74U74/2JteWGvTkfAGW72nuF6Ufbq1D6rFf9Jd8Rwr9G6wjd30ucKqOdrDNfCv5y4f2U68cOq7l0Rw8Tx8H3pVEID4CvssvjUocenuNFjfisMRh8eLF9pmZVuZo1OUmgIOAr8K8KyC64Vjxu5IA+6g3Lyu9Lhi2Vc+D6LjEAeVAHOLEoY0CJgvnfb/xkmBI4pAELZYlAkSACBABIpBdBHyXXxqVOJi8bpGLyhKHJUuWeEEcgpoCFSaLEQfVOLgEo7Oz02oeGuHw/cZLMgckDknQYlkiQASIABEgAtlFwHf5pVGJQxz5ueDjoKZKxZYhQMROfhJTpa6urpKr2jVVKlXQNVXScq4JlJovgSmROGTzQULikM15Y6+JABEgAkSACCRFgMQhKWLpl1c5WmvWzfiolrxyji7W2WIah6BfBIhDR0cHTZWiZt3D8yQOHk4Ku0QEiAARIAJEoAoIkDhUAdSEVaZCHNQ5Oqxt1ThA69CGUHsRx8KFC4c4R6O420l1ZsbvrlN2mHO0qk7c/oVpHIzJldU40Mchanb8O0/i4N+csEdEgAgQASJABKqBAIlDNVBNVme5xAHyvfVxcKMqBYV8/a6RldIkDmr6VE5UpeA1IA7QODCqUrLF40NpEgcfZoF9IAJEgAgQASJQfQRIHKqPcVQLFREHY+IT2zk6LY0DBqQmSHE1Dm7Up2I+Du3t7SQOUavFw/MkDh5OCrtEBIgAESACRKAKCJA4VAHUhFV6Rxw0HGupcVRCHLRed+D0cUi4ajwqTuLg0WSwK0SACBABIkAEqogAiUMVwY1ZdbnEIbFzdByNAzoTlQDO1TioJiHoA6H+DkHnaJTDv2A4Vo2qRB+HmKvGo2IkDh5NBrtCBIgAESACRKCKCJA4VBHcmFWXQxxUvm/q6enJVOZolzgogcBfEAdmjo65YjwrRuLg2YSwO0SACBABIkAEqoQAiUOVgE1QbRhxgK9w1GE1Dt3d3ZHEIWlUpajM0RpVqRLnaE385uZxIHGImnI/z5M4+Dkv7BURIAJEgAgQgbQRIHFIG9Hk9VVEHNKOqqSqDCSAczUCGJYbbtVNAFdpVCXVODAca/LF48MVJA4+zAL7QASIABEgAkSg+giQOFQf46gWKjJVQlSlrGWODgOEmaOjlom/50kc/J0b9owIEAEiQASIQJoIkDikiWZ5dZVDHNCSNVWCxgFf3HCnwW4kMVWCEFgqARzqwuE6PeMaODW7Ggk1RQo6R7vaCUZVaqmLhHckDuXd+LyKCBABIkAEiEDWECBxqP2MhREHTbhcrHcq3zfF0TigEk0AV4pgaGOuj4OSgWBHXFOlUhCCOLgakaBztBt9CQngogZe++lKpwe+33hJRknikAQtliUCRIAIEAEikF0EfJdf1P+2nuXJijQOWSMOuFV0wEGNA3wc6nmi3ceE7zdekkcaiUMStFiWCBABIkAEiEB2EfBdfiFxKL62aKqU3fvOkidk3a6HvBUkDhleiOw6ESACRIAIEIEECPguvzQqcYjaeE9kqqQ+Dgpm1PqIkzm6XFMlV+Pg9gMmTTRVipoZP8+TOPg5L+wVESACRIAIEIG0ESBxSBvR5PVVZKpUD+FYARmiKoE41MMOfJwl4PuNF2cMWobEIQlaLEsEiAARIAJEILsI+C6/NKrGIUp+1nQLmUsApxGYmACOpkrZfWyy50SACBABIkAEGhMBEofaz3uYxiF25uienp7IzNEaUSmJqdLkyZOHODEDpjQTwIE4uCFcoXFg5ujaL8ZyekCNQzmo8RoiQASIABEgAtlDgMSh9nNWEXFAVCUMIa08DqrKKEUc0F4wP4M7CPdzWDmcV+KgmgdNABelaqn9dKXTA99vvCSjJHFIghbLEgEiQASIABHILgK+yy80VQpfWwVTpbSJA5qL4xythACRgdykbrjeDbeqXt4usWE41hxGjKqU3Qcne04EiAARIAJEoBER8F1+IXEovioL4Vg1wVpw51dNi1xTpba2tsh1HpY52r0Ik+JGVSpFHNwEcK6pkxIMaBxw0Dk6clq8LUCNg7dTw44RASJABIgAEUgVARKHVOEsq7JyoypBvo+VOdqncKxqiuQ6R6N/cOpAAjh8boTD9xsvyRyQOCRBi2WJABEgAkSACGQXAd/lF2ocIjQOSUyVkjhHd3V1FXWORpeCvgvFulnKF8K9BuXa29sZjjWDzxIShwxOGrtMBIgAESACRKAMBEgcygAt5UvK1TiUlTkawnmpQ50nXOKA8sFOuoRAQ6y6pkiqUShGHFAW51AO/2CqhL5R45Dy6hqG6kgchgFkNkEEiAARIAJEwAMESBxqPwnlEIeCc7QRvm04VvUVKDYcNVeCQ27UEcc5GiZHunhK1QdfiGL9C0Zfgv8FiUPU7Ph3nsTBvzlhj4gAESACRIAIVAMBEodqoJqsznKIA1ooS+MQ5RyNzrjO0ao5QIOqUcDncjUOQUdq1EUfh2QLxrfSJA6+zQj7QwSIABEgAkSgOgiQOFQH1yS1hhEHjWJarB6V72M5R6MSjaxUKt+DNrZo0SKZNGnSkLaDnXSjKpUarBtVSUkC6nI1JKgL/Rs9erT09vYmwS6zZX2/8ZIAS+KQBC2WJQJEgAgQASKQXQR8l1/oHF18bUG+b5o/f37sBHBxnKNhyqSmSprZWc2S0tI4oD5Xk4HvIDTqV5Hd2yl+z32/8eKPJKeJahQTsyS4sCwRIAJEgAgQgXpDwHf5pVGJw4IFC0ouNZXvrcYBJeNkjo5DHFCXEoeglsHtUSWZo10nahU6oXWgj0M2Hy8kDtmcN/aaCBABIkAEiEBSBEgckiKWfvmKfBxIHNKfkOGo0fcbLwkGJA5J0GJZIkAEiAARIALZRcB3+aVRNQ6aJ63UyrLO0SQO2bz5fL/xkqBK4pAELZYlAkSACBABIpBdBHyXX0gciq8tEofs3neFULZxGKLvwyRx8H2G2D8iQASIABEgAukgQOKQDo6V1EJTJRNliT4OlSyh2l5L4lBb/Nk6ESACRIAIEIHhQoDEYbiQLt4OiQOJQ+1XYQU9IHGoADxeSgSIABEgAkQgQwiQONR+skgcSBxqvwor6AGJQwXg8VIiQASIABEgAhlCgMSh9pNF4kDiUPtVWEEPSBwqAI+XEgEiQASIABHIEAIkDrWfrIqIQ3d39wAENyR2CApwmi9Bs0YnyeMwefJk68Dr1unmX3AzR2uZsPwMbuZo9zwSwGmCObSD+kaMGNEwicR8v/GS3BYkDknQYlkiQASIABEgAtlFwHf5pVGjKvX29kYuKhtVafHixVVNAOdmeHYFRDcBHH5XEoBeY9L0umCiOD0PouMSB5QDcaiHKEORM5fHSDGIU97nMiQOPs8O+0YEiAARIAJEID0ESBzSw7LcmsI0DiY9Q2R1ljgsWbLEC+KAQbiHCpPFiINqHFyC0dnZaTUPjXD4fuMlmQMShyRosSwRIAJEgAgQgewi4Lv80qgahzjycyGPg5oqFVuGABE7+UlMlbq6ukquatdUqVRB11RJy7kmUGq+BKZE4pDNBwmJQzbnjb0mAkSACBABIpAUARKHpIilX74iHwdfMkcXg6WYxiHoFwHi0NHRQVOl9NdX1Wskcag6xGyACBABIkAEiIAXCJA41H4aUiEO6hwdNhzVOEDr0NbWFjnihQsXiuscjQvcTqozM353nbLDnKNVdeL2L0zjYEyurMaBPg6R0+NdARIH76aEHSICRIAIEAEiUBUESByqAmuiSsslDpDvrY+DG1UpKOTrd42slCZxUNOncqIqBa8BcYDGIegrkQjJDBX2/cZLAiWJQxK0WJYIEAEiQASIQHYR8F1+aVQfhzgb75Y4JDFVSkvjgOWuJkhxNQ6tra2Fu6SYj0N7ezuJQwafJSQOGZw0dpkIEAEiQASIQBkIkDiUAVrKl1SkcagGcYDXdZRzdCXEQfFzB04fh5RX1TBWR+IwjGCzKSJABIgAESACNUSAxKGG4OebLpc4FKIqoR53Rz84pCQ+DiiLikslgHM1Dtpu0AdC/R2CztEoh3/BcKwaVSmOqqX2U1Z5D3y/8ZKMkMQhCVosSwSIABEgAkQguwj4Lr/QVCl8bal839TT05OpzNEucVACgb8gDswcnc0HCYlDNueNvSYCRIAIEAEikBQBEoekiKVfPkzjAF/hqMNqHLq7uyOJQxKNAxpVUyVXsMfvKiBqVKVKnKM18Zubx4HEIWrK/TxP4uDnvLBXRIAIEAEiQATSRoDEIW1Ek9dXEXFIO6qSqjLg4xBGHDC8NIiDG1VJNQ4Mx5p88fhwBYmDD7PAPhABIkAEiAARqD4CJA7VxziqhXJ8HAqmSnCOzlrm6DBAmDk6apn4e57Ewd+5Yc+IABEgAkSACKSJAIlDmmiWV1c5xAEtWVMlaBzwJS3naAiBpRLAobM4XKdnXAOnZjcBnJoiBZ2jg5oG11SJmaPLW0C1vorEodYzwPaJABEgAkSACAwPAiQOw4NzqVbCiIMmXC52ncr3No9DlMYBlWgCuFIEQxtzfRxUsA92BB1UH4dSgwNxcPsXdI52oy+BOEQNvPbTlU4PfL/xkoySxCEJWixLBIgAESACRCC7CPguvzCqUvG1VQjHmiXigOEoU3IZE02VsvsQIXHI7tyx50SACBABIkAEkiBA4pAEreqUpamSwZUJ4KqzuIajVhKH4UCZbRABIkAEiAARqD0CJA5+zIFrEQT3gCiLnUSmShqONY5pEeCIkzm6XFMlV+PgQg+TJpoq1X4xltMDEodyUOM1RIAIEAEiQASyhwCJQ+3nrGKNg5oquc7JLhNJksehFuFYMQXUONR+IZbbAxKHcpHjdUSACBABIkAEsoUAiUPt56sc4lAIx5q1BHAagYkJ4AakpaXFOq1n/SBxyPoMsv9EgAgQASJABOIhQOIQD6dqlgojDrEzR/f09ERmjtaISklMlSZPnjzEiRkAuBoN11TJDbGKcq7zsxtVKRiu1Q3hCo0DM0dXc5lVr24Sh+phy5qJABEgAkSACPiEAIlD7WejIuKAcKwYQlp5HFSVUYo4oL1gfgZ3EO7nsHI4D40DiINqHjSqUj3swMdZUr7feHHGoGVIHJKgxbJEgAgQASJABLKLgO/yC8Oxhq+tgqlS2sQBzcVxjlZCAHObUhoH9fJ2iQ3Dsea0MjRVyu6Dkz0nAkSACBABItCICPguv5A4FF+VhczRrnM0AHN3gvHZNVVqa2uLXOdhmaPdi9BGpaZKqE81D/hM5+jIafG2ADUO3k4NO0YEiAARIAJEIFUESBxShbOsyspxjkZDkO9jZY72KRyrmiK5ztHoH5w6Ojs7LZlohMP3Gy/JHJA4JEGLZYkAESACRIAIZBcB3+UXahyKr61C5mgUiePjkMQ5uqurq6hzNNoL+i4U62YpXwj3GpRrb2+viyhDcR4Hvt94ccagZUgckqDFskSACBABIkAEsouA7/ILiUMEcTA79YmcoyGclzrUecIlDigfVIu4hEBDrAajJuGaYsQBZXEOmgf8g6kS+kaNQ/YeJiQO2Zsz9pgIEAEiQASIQDkIkDiUg1q615RjqlRwjjbCtw3HCuE7ihDATAgOuVFHHOdo1KWLp1R98IUo1j934CAR8L8gcYiaHf/Okzj4NyfsEREgAkSACBCBaiBA4lANVJPVWQ5xQAsF52h8iWOqBGE/yjkanXGdo9UXAW242ajL1TgEIzChXvo4JFswvpUmcfBtRtgfIkAEiAARIALVQYDEoTq4Jqk1jDhoFNNi9ah8H8s5GpVoZKVSBEMbW7RokUyaNGlI28FOulGVSg3WTQCnJMGNpoTfUBf6N3r0aOnt7U2CXWbL+n7jJQGWxCEJWixLBIgAESACRCC7CPguv9DHofjagnzfNH/+/Ng+DnGco2HKpKZKmtlZzZLS0ji4id+U1IDQqF9Fdm+n+D33/caLP5KcJqpRTMyS4MKyRIAIEAEiQATqDQHf5ZdGJQ4LFiwoudRUvrcaB5SMY6oUhzigLiUOQS2D26NKMke7TtQqdELrQB+HbD1esAaw7tw5jONDk61RsrdEgAgQASJABIgAEAi+931EpVGJg6Y7KDUnwxaONawTJA6V3S6+M/Zio1MyqVojdbjHeiBpqGxN8GoiQASIABEgAj4joNEwsWno2tS7Fim17j+JQ/EZIHGo9eqsoP2sEgcdshIHfNdwvEHflQrg4aVEgAgQASJABIiARwjoxiEIQ0dHRyHcvquJ8KG7JA4kDj6sw9T7kHXigP5rqN2ZM2fKvffeu1yuj9RBY4VEgAgQASJABIhAzRAwucNszq0tt9xS7rnnnkLS3qiUAMPZYRIHEofhXG/D1laWiQMIg2uWNGLECIFTzvjx44cNPzZEBIgAESACRIAIDC8CkF3ef/99WWWVVeS9994r5BBT34fh7U14ayQOJA4+rMPU+wecS7UAACAASURBVJBV4qCRtmCehGzfsHP82Mc+Jo8//vhyIXxTB40VEgEiQASIABEgAjVBAHILZACE9Nx4443l5Zdftv3wzUyZxIHEoSY3SLUbzSpxcCNtqZ/DJz/5SbnrrrtktdVWi8xgXm1cWT8RIAJEgAgQASKQPgKqVXj++edlxx13lLlz5xZMlEtF4Uy/J6VrJHEgcRjuNTcs7WWVOAAcjaAErQPMlnbffXc58cQTZcMNNxwW7NgIESACRIAIEAEiMPwIYMPwkUcekXPPPVeuueYa2wGf/BvQHxKHCOLQ3d09AAEONufBRFwaHkuzRifJ4zB58uQhTBLdcPMvuJmjtd2w/Axu5mj3PBaamr2ooy1s5RslkViWiQNMlJBzAwccpQ466CDZaqut5Ktf/WpJB+mgb8TwP/LYIhEgAkSACBABIlAOAqpxuOKKK+TBBx+USy+91MqFPoVibWTi0NvbGzmtNhzr4sWLq5oADgK+CvMuMXHzOGg4ziAxwHXBfA86qSA6LnFAORCHOAksIpHJQIEsEwfAq7GcsT7OPvtsee211+T888/PAPLsIhEgAkSACBABIlAuAocddpisuuqqcuihh1ptgysjlltnmtc1qsYBm7pRhyUOZsfXC+IQ1BQoyShGHFTjoIsO5To7O4ckFIkCIMvns0oc1K/BjaBw0003yaxZs+TCCy8MnRKfbB+zvGbYdyJABIgAESACtUQAu9qHH3647LrrrrL99tvbrvhmTdCoxMFNyFdsjRQSwKmpUrGC6gmfxFSpq6ur5Np0TZVKFXRNlbScCpKuQAmmROJQy8dB8raxBkAk3nnnHVl77bXljTfesDsPOq++qS+Tj5BXEAEiQASIABEgAq78NmnSJOsYjaiKkNt0A9iXd36jEoc4FjteZY4udlsV0zgE/SJAHJCJMM7A6+EWzqrGQYmB9l/nYsqUKXLddddZAoGDWoZ6WKUcAxEgAkSACBCBQQSeeOIJ2WeffeSZZ57xFhYSh+JTM4Q4qHN0WHHVOEAoV6fWUjO+cOFCcZ2jg4KgOjPjd9cpO8w5WlUnbv/CNA5wsgVzJXHw9l60HVNTJXw2jvkycuRI6yB95JFHyqc+9Sk54ogjCgPwze7Rb2TZOyJABIgAESAC/iKAd/0ll1wi//nPf+TMM88sBORROQ8aCB8OEofiswD53vo4uFGVgkK+ftfISmkSB52ccqIqBa/BgoTGgVGVfLjtivdBSV/QphGp56+88kobZQHp6HXdobxvodr8Rpi9IwJEgAgQASLgJwK77babHHLIIbLlllsOieTpi5mSyh4gMXFs/v1EObpXQasO9RuOutISB2PiE9s5Oi2NAzqmJkhxNQ4uEy3m4wCBk8Qhatprf95dsKqBwG/QUj333HMyevToIeQhqImq/QjYAyJABIgAESACRCAJAtA0bLbZZjJv3rzloin5ZJ5MjUOExqEaxAE2UFHO0ZUQBx1S0DmaPg5JbuHalQWLB7sNEoJjjjnGkgeEaAuqLH16qNQOObZMBIgAESACRMBfBNSawLUqUBPyc845R95++21rpqQ7+z5uDJI4FF9fiZ2j42gcADgqLpUAztU4qIDoCobu56BztDrXBsOxalQl+jj4+0AJPiiCoVnhNHXWWWfJH/7wBzsIfaCYXCOFiFnQUPEgAkSACBABIkAE/EfA9VNFCFaQh9VXX73g76jvd59GQuIQPhsq3zf19PRkKnO0SxzU/h1/QRyYOdqnWy+8L65pkpIDlyjutNNO8u1vf1vwlwcRIAJEgAgQASKQDQRcH0b0GBt9mrPp2muvlRtvvFF+//vfD8nbUMzvsZYjblTiAF/hqMNqHExkm0jikDSqkpoquYK9KyTidzePQznO0cG4vyQOUdPtz3nMPeY8OIf4HVoHmCrdfffdBT+HsKRx/oyGPSECRIAIEAEiQASKIYB3+4YbbiiXXXaZrLfeegVTZDVncqMt+oAiiUPxWShkjk4zqpKqMuDjEEYc0J00iINLNlTjwHCsPtxy0X1wNQwuidCHyNe//nX55je/KZtvvrmtLCyXR3QrLEEEiAARIAJEgAgMJwLIDI1ANRrpEm3/9a9/leuvv15+9rOfFbqi7341SWZUpeGcpeVzZcWJqlQwVYJzdNYyR4fBy8zRw7voym3N3VlQooAHjIZgxW8vv/yyTUU/Z86cIYngfEtLXy4GvI4IEAEiQASIQL0hEPaOxm+rrrqqPPjgg9b3Vf0U3TDrGg3TF/LQqBqHOD7CBY0DFm+pxBtJTJUw8aUSwOkCcXeRcQ067HrXqxlLcLc5qGnQa5g5OhuPINU2aF4QrDv3s9pDIsLSmDFj5KSTTrIah1IJCrMxcvaSCBABIkAEiEB9IwBZDPIb3tl4t//kJz+Rt956KzSSkuvz6AtpwOw0KnGIyluh8r3N4xClcQCQrnAXtexdH4dii8H1cShVH4RGt39B52itH+UQjjVq4FF9z8p54KA3Zlb6rP10tQ6u2ZKeh6oTc/mFL3xB/vjHP8rYsWPtKd/sILOGO/tLBIgAESACRKCaCIA4IFEw3tevv/667LvvvvKXv/yl4BCtG8WqcdD3uk/v90YlDrE1DlkjDsoGgw7VNFWq5qNg+OvGjfv444/Lt771LXn00UcL2ihVhQYJh2+qzuFHjC0SASJABIgAEageAq5wr9YBwXex/o5eTJs2Ta6++mpZa621CiZK1etdejWTOBTHkqZK6a2zYa8pyxqHUmAFdx0uuOACefXVV21+B92hUPKgOxvDDj4bJAJEgAgQASLQgAi4psN4X6ss4hIGwIKw6uuss46NkogjSz6KjUocoix2EpkqqY+Dghl1r8TJHF2uqRLaDjNvoalS1Kxk67yaK8Fx+sgjj5Sdd95Ztt12W0se9GEVDOkati6yNWr2lggQASJABIiAnwgEfRJUNlSHZz1/8803yz333CPnnXeeHUjWNvkalTjENlUygtmQPA5hgnkS5+hahGPVhQm7+DgD9/OWTNaretU4KAqu5gGfZ86cKaeddprMmDGj4OugRIHO08nWDksTASJABIgAESgHATfAiZuLScOr3n///XLKKafIHXfckdmgJiQO4SujEI41awngXMcad4eZCeDKeQT4eY2moHdtKDG/yOsAk6Utt9zSdtz1awiqSf0cGXtFBIgAESACRCDbCLjvXjVBwjv43nvvlWOPPdb6JeLAOWz8wVla3+tZGHmjEofYmaN7enoiM0drRKUkpkqI16uCfdBxFd/TyBzthnAlccjC7RjdRzciA3YzXEKA+UbWyZ///OdW84AD51EOhNKncG7RI2UJIkAEiAARIALZQkDt4GGepDKe2YCWZ599Vg4++GCbr8F9J6MM/rl5G3wfMYlD8RmyztGIqoQiaeVxUFVGKeKgAp/brqs9cD8H8zi4i9C1t9OoSjRV8v2WjN+/YII4JREwWzriiCNkhx12GJK6Pi6xjd8DliQCRIAIEAEiQASCCLibfLfffrs1JX7ooYdsMdecyTWrzgp5aFTiECU/F0yV0iYOWDRxnKOVEGhirzDioJqJILFxNRluArjOzk7mcaiD55v61KjDlRuNAeewdpAgDtmmYUuJeedBBIgAESACRIAIDC8CiJqEjWd1hHZb9zXBWxRCJA7FESqEY9UEa5obQS9Rodw1VYKtWtQRljnavSYNUyVltcpgGy1zNMYfnC+XfEXNUdbPY00iVOtVV10l//u//ysrrriiVYUGQ765yWXUnClOLOqgczZNobK+Yth/IkAEiED9I6DmuxqB0H13hSVfhdwA23ZNoKsbdkGzYUVOTc+RDXqLLbaQAw88UA455JBMmSKVWgWKkeKnZX1KUJfGKg7Ki8HxFmsD8n2szNG6AxzXFCSOxqHccKyqSnG9+XXhY+dZF3UawPpah044WD5u+GAGRl/7nWa/1GTtySeflOOOO846TMMpyz2URKgvjOsDAdyAn/pR4K8SDzx4oc1AeTfhXNbsNNPEm3URASJABIiA3wiECbf6/sNf1y/BzcGgG7HuO88dKRybQSz0/DnnnCOzZs2yWoapU6eGhsj3G6nivStGHLI6nmL9Lpc4JPZxSEocXJMidN4V3IK+C8UGF+bjEOYEq8JelI1WPUy+4qqRCoIxlOthjKXWg+uPozc5TJf+9Kc/yaWXXipbb721GKd/GTFiRKEa/Q7CAFKgh+t8HaaxCZavZ2w5NiJABIgAEcguAvo+LCZfufKRu+GofghKIPS9qPWpzAWysP/++8u+++5rfRpc8pG1XA1RArW7A5+l5HVxV29FxAF5HNBQXOdoV+gK66A6T3R1dQ1hocFOugtbQ6zq4tSdXbVnd/un9aCsq5LDokXfGkHjoLjHVS3FXUhZK4ebWaM3oO9z586Vs88+W/7xj3/Ij370I9lxxx2tRkbXrD4M9TrdgXEftjiHnZVgNCdX7Zs1nNhfIkAEiAARqH8EVHZy318q9LrCr352hf1i+ZBQ53XXXSdnnHGGrL/++nLqqafKKqusMkS+q0fB2pWv6s1MSQmiuwkfR55U+b7JLBYbjjXK2z3osFrqFoxjqhRUkxWrT5OKhPXPJSNY9NiBr3fi4C5g18ehUfwbVOjHenF9cNzdE5gvnXDCCTJu3DirRj3ggAPsZxCIoNlSnF2Senwo1v8rlCMkAkSACDQ2AkG5Lfguw3m8A2G1oJYLitjLL78sV199teB9ijInnXSSTJ8+vQCokpPe3t7l/CPqAXUVpLPq4B01B8OqcYhyjkZnXOdo9UVwBT18LlfjoMKyy5QaycfBXcTw6fjggw8sYapHRhy18NVpH9oyJRSutgoaiMsvv1x+/etfWx+IDTbYQLbbbjuZNm2afRDiOqwjfMY61QenmjXpuoIGggcRIAJEgAgQAd8RcN+FeEeqNYmbUNX1ZXA18cjFgNCqTz31lDzwwAOy5557WrMkbMDh0A1fV9PvOx7l9A9kCJuNkAXcACtRG+zltFWra8KIg+boKNYnle9jOUfrgnEXYanBLlq0SCZNmjSkSLCT5TpHq1OsO4GanXD06NGCCa/nw/UbgTkYbvSJEyfW85BD15FLGpB8Bv4MrsmbSyyxJpDJ8oYbbpA777xT5s+fL1/5ylcE6wUPRBCJlVZaye6ajBo1SlZYYYUhTtHF6m0Y0DlQIkAEiAAR8B6BYpYhuhmGjcY33njDvt8gp4EgvPLKK3az9+abb5ZPfvKT8vnPf1522WUX2WSTTeympB6uDKdymBIQlCll7u49cIEOvv7661YuAC5h48/aeML6W67GAeumyQhRsX0c0FDU4sCurZoqud78afk4qBDnajKU0KhfRT1MatQYgOfqq68ud9xxh6y22mq2eKOYK4X5LWD8rtlR0ARJH3T4+//bO/doq+f8/79a6zddUKmVSiORW0WicRsiwoghDWOQSxeU3FdhDTLLNUPWQquJmQxpSmSMuzKGIpaIULklkijfMiVR+MfvPN/mub3Op8/en8/eZ59z9uW51zpr73P2Z38+78/j8/7s83q+Xzd8eb7yyiu2aNEie//9923dunXh9bfffhve+9WvfmUvvPBCptslE8ow9+kpS7o+el8EREAEREAEGpJAtEQ7w23wv+vAAw+0N954w9q1axfCdnfffXdDo97tt98+5C7sv//+1qZNm0x+H/5XQmDgs7QtonmFDXluDXUsnOvy5ctDkZWlS5dmFiQrydsQZy/i/FauXJkTM+37vDpHpxEOOCqFQy5DNle1pGjuglezUdXLGwUTuhpyHHj+MGZ79Ohhjz76qHXr1q2W0dxQN5iOIwIiIAIiIAIiIAKVQIBhSVhIPP300+3NN98MYcxxJd3L/XwL9Tg0WDnWOMASDoVPOyY4HXzwwXbbbbfZnnvuWavEaOF71idFQAREQAREQAREoDoJoGfFW2+9ZZdddpnNnTu3YiFIOPzPpVYNHgfMYiYzjRgxwk466SQ77LDDNquIULGzXScmAiIgAiIgAiIgAkUmQI/DzJkz7YknnrCJEyeGku4M14pWniry4Rt0dxIOVSQcfPWkUaNGWZcuXeziiy8OE64aKys16J2mg4mACIiACIiACFQkARrTt956a8h9RJM7PNg3LCnHt5ygSDhUkXDwAmH8+PG2ZMkSmzBhQhANeFRaAk853YgaqwiIgAiIgAiIQPkSQETHhRdeGJLHL7jggootOiPhUGXCgR0eX331Vbv88stDBSB2QS7f21UjFwEREAEREAEREIHGIcCoDZSiRf7oAQcckOkRRc9D44ys+EeVcKgi4cDEaIgHlM7q06dPKB3my9QWf4ppjyIgAiIgAiIgAiJQ2QQgHjp16mQLFiwI5WoZxREt8V7uFCQcqkg4RCcrOiGjsRkal1VLH4dyv2E1fhEQAREQAREQgdIjsH79ejvllFPsqaeeCqIhrulw6Y06/xHVSTjUdN39EavVyBaPNg9h91126c2njwOUmu9y7N08bCzC/fG4PJ7/HFbW/fiwH7zva+tyf+gejNeV/mBVJZwnOjwOHTrUBg4cqOToSr/wOj8REAEREAEREIGCCXj7yduLtEOxEHv//ffbgw8+GOxM/L3SvA20o2lz43ec6/fff5/INfRxqKlZW9TO0TiqbwDnOzx7YeL7ODDMxgsHfi7a74EnDKHDphy4+NgOwoFJwolnX6YbcNIjZAk/KBf2ySef2C233KJeDmV6TTVsERABERABERCB+iXAUG88cwE6WlDmkksusd12281GjhyZWfyuxOIzcR4HCKSkRxAONTVqS0I4RD0FFBnZhAM9Dl5gNG/ePBjTlfyIXuyFCxfaoEGDbPHixZV82jo3ERABERABERABESiYABdevR2F10yKht3ZrVs3mz59uu29997hON5DUfCBS/CDccIhjf2c6RzNUKBs50aw+YQqdejQIScqKr6kurg+VIk79KFM9FJAKVWDcOBExjObkXTu3Dl0OmzTpo0awZXgDaohiYAIiIAIiIAIND4Bht7D9oyKglWrVtl+++1nK1asCGICP3HbNf5Z1H0EdcpxqDG469Xj4GOo/KnGeRLiUGTzOETzIiAcmjVrVvGhSmDkG73h9ejRo61fv3523HHH1X02aQ8iIAIiIAIiIAIiUMEEsHgN++kXv/hFiFSBTfn444/b7Nmz7fbbb8+EMsV5KSoBS1GEA5Oj44DQ40DISdC++OKLUMYq6g7yOQx0ifik7Ljk6Oh2OHacxwFtweFxqPQcBybpMCEcavixxx6zKVOm2EMPPaQGcEmTU++LgAiIgAiIgAhUHQG/6MqThy0Fu6pp06Z2wgkn2JAhQ+y3v/1tiN7A9nifryupwW6hwgH2fchxiKta5D0F9SUc6lJVKepxgHCAx6Eaqiphwvssf0zuli1bGtxsrVq1qrovA52wCIiACIiACIiACCQRgI1IOxFCgB6FNWvW2K677mrr1q0Lu6CN5Revk/ZdTu/XSTjkE6pULI8D4DIEKa3HwedCZMtxgGKsdOHAqgBgCLGEc8bjoosuCpUAzj///HKauxqrCIiACIiACIiACDQIAW8w057C3+64447QTBcdo7mNt7HivBUNMuB6OkjJCQeWY811vnURDtyvP/FqynHwXKmGkRx97rnn2vz58zMKmnz8zZEt56Se5qZ2KwIiIAIiIAIiIAIlQyDalwG20gEHHGCTJk2y7t27h7yHShMKUfiFCodMVSXsMFd1o3xClbAtdpyrARyOF016zpYPEbcdto2WY2VVpWrIcWCWPya3f5x44ok2duzY4G6j+409Mjyvkrl7NRAREAEREAEREAERaAACUTHARVWUs//Tn/4Umr5RNDC3AcPyuQ4NMMwGOUQhwoH2fZNNmzaVVedoxqexfwOfIRyqpXN0tlmFST9r1qygmikEfWhTpSvoBrnbdBAREAEREAEREIGyI+DtIR/yPnjw4FCV8qSTTgrnVImdoqMXK044IDQr6RE8Dhs3bkwUDvl4HHDQpM7RrAhUl+RoCgbfx6FahAMvuK9BXNMBPIiFnXfe2V566SXr1KlT8Mr4nA+FKSXdEnpfBERABERABESgUglgARW2EO2hJUuW2FFHHWXLli0LZVnZHwvnH12oriQbqk7CodhVlejKQAM4hhTReI2WY62LcPBVlbCfaglVotcgm/dg/Pjx9v7779vEiRNr3ffRm6VSvxR0XiIgAiIgAiIgAiIQR8AvuH7//fd2wQUXWJ8+feyMM86oVc4eNhOEBEPCo6Ki3OnWKVQJVZXKrXN03AWrps7R0fOnWw03AUrStm7d2j7++OPwHBeyVO4TXuMXAREQAREQAREQgUIJwHD+8ssvrXfv3sFeigqE6IJ3occp1c8VIhxwLiFUCR4H/FKs5GiIkFwN4HgxfNIzE3i9R4JhNtHk6KinwYcqVUPnaIaNwZ0W1wwOf5s2bZrNmTPHJk+enGmIV0mNS0r1RtS4REAEREAEREAESpNANFJj0KBBdswxx9jpp5+eKcEa3QY2ly82U5pnlv+o4oQDq3Rm2xvt+yZpPA7YCWDiJ5fA4MF8jkO2mDAMkKFKuU4ZF8x7RLLFnGE7CIekE88fb2l+ghed7jM8QxyQd9++fe26664zPPP6STyU5rXUqERABERABERABBqGAGzZl19+2caMGWMvvPBCRjTg6HE5pFEju2FGWb9HqZPHodyEg7+w/sSrOVQpOr0goj755BMbOHCgLVq0KNwIcbF6/DvEoG90Ur/TVXsXAREQAREQAREQgfolQO9BnOGPsvUzZ860nXbaqSqqKEVJ10k4KFSpfiduY+yd4V1XXnmlbb311oZn/2CvC3ogfLJQY4xXxxQBERABERABERCBuhLIVjjGJzePGzfO1q5dazfccEOmihJzROt6/HL5fL2HKjGuPk1oEaCl6RxdaKiS9zj4C1RtoUppJyfKjE2dOtW22WabzTohRj020YZyaY+h7URABERABERABESgMQnQ+KdtExdi//nnn9vIkSPt8ccfzwy1Gvo2RK9LnT0OzCHwyck+N4HCARchybhsjHKsAIILXw3J0Uk3Jb0HuIGQQI3SrCeffLItXLgw5D/Ay4CeD3hu2rRprbrFlRjHl8RL74uACIiACIiACFQGAXZ5pr3Ds+Lf99hjD3v00Ueta9eutezZarN/ChEOtO/LrgEcKzBVcwO4pNubLjlOjDvuuMM++ugjQ4+H6AMCAzkOvulJ0v71vgiIgAiIgAiIgAiUIgHmbPrwIwiH8847z/bee28bMWLEZsOuNq9DnHBI3Tl606ZNiZ2j6e7JJ1SpY8eOmez0aD1cJuVyf77EKq4mT4hlsOI8IhAObGpGj0O1dI5Oc6OSIbwLzZs3D16HE0880X7/+9+HRGj8zd8o8FSAqSovpaGrbURABERABERABEqJAKNjfIVJjA+Lqf/617/s4YcftgceeCAzZF+VstoWT+skHFBVCRSL1ceBroxcwgHHi/Zn8CfhX8dth/cpHOh5qJbO0Uk3Kdlt3LjRtthii1qbH3300aHHQ9u2bWvVLMZGEgxJZPW+CIiACIiACIhAKRPggigWlmE/IiQbjd5OO+00e+aZZzIVJCkauH2ldYZOukZ1ClUqtnDAYNMkR1MQQOXl8jiwL4MXNt4j4RvAYRW9Wvo4ZJsUvmJSnBgDL/Z84D6qzUWXdEPpfREQAREQAREQgfIiwIpKvlIkwpVatmwZBIMvz4ozi9qe5XW2dRttIcKB9n3oHO1DgRhWRKh49qFKScnR2D6uc7Q/xWKEKmF/9DzgtZKj002iNWvWWI8ePQzPTBbK5qKLCrRqU+TpiGorERABERABERCBhiIQV0Ke9kn0vTZt2oQcT0Ra6PEzgUKFA+z7VJ2jGTeWT45Dhw4dcl6jQsuxxq2oY1yM2/fCR5MkngAqLMFth+ZwUUFHQQaOEBS8CdXrQbNJBERABERABESgMQn4BUwsGCMahYvIfI9FX1BBCbkNu+22WxiyQrLrLhwQURSEA3aVJschX+HgV6xxDF/iNZq7kG0i5sqF8J9hLBuFRWNO7FI+Nq4JftatW2d9+/YNZVpxM/lwJX9j+jrI1dYgpZSvo8YmAiIgAiIgAtVEIJr/6gu6sFgO7UxEVrz44ovWrl27WmXnq4lXrnMt1OMQhEO+naORaJI0GOY4ZEt4xue9IGCJVd9HgknP2YQDtvWVgGD4YmzyOKS7LSAO0OPhsMMOs88++yywi3aUxu/YLk14WrqjaisREAEREAEREAERKIwAczT9QrRf7NywYUPo0TB37lzr1q2bYcGTdqv/TGFHr5xPFSIcWPyoSY3xHXIcklw4DFdKU7IqTXJ0Unw9Lw8mRLbxRdUnDFwJh+SJ7W8yVBtAV2lcs/bt22eqLVHc0RPFusjJe9cWIiACIiACIiACIlA/BHyvKryGnQIbZfXq1SGH88MPPwyeBm+vRg3l+hlZ+ey1EOGAsyvI45C0+ozB+ORoeg5wwGyhSvl4HOKy4JXjUNhk9eFJRx55pA0fPjz0evClbqu5znFhVPUpERABERABERCBYhPwuZbRxcwZM2bYP/7xD3vssccyC+E0jrEtbFd5HH6+InHCIakqKe37VMnROJSPdU+aDFB9WL32j+ggC02OZoy+95BgXxjfVlttFdxSemQn4G88X7oMPAcPHmytW7c2dJr2Sp3biasIiIAIiIAIiIAINCYBRqxgDLBVhgwZEkLXp06dmok6YfRJUjRNY55HYx67UI8D7PsmK1asKGpyNC4iQ5WYrMKLXCyPQ7QWL36HqwqVnBSqlN9UJC9cG6jySZMm2Z133mmzZ88Orj72fcB1VTnW/NhqaxEQAREQAREQgeIR8IufKCt/0EEH2eWXX27Dhg2rFS2BI3KhmbanPA4/X4c44bBy5cqcF4r2fYNUVYobSaGdo6ONPZo1axZ2j07JaPIR52ohIK2cjGhwXAAAIABJREFUp7t5lyxZYiNHjrT+/fvbZZddlkmaxk3HsDKGoPFG9NclTmCIfTr22koEREAEREAEKpVA1GDF78xT4DlHKyQxLMnn2o4dO9ZeeumlECGx0047JebpVirPfM7L22nR1y1atAjVNZMeDVaOtZjCwatIuqA2bdpkOOmDDz7Y5syZUyvMJgmC3q9NwFcsGDVqlD355JPBC4HSrdFHtGU7bmpMRsQSxlVkUi8IzTYREAEREAERqG4CcSHnPvrBR5X4apt4jWpJp59+ug0dOtSuvvrqYGsk5d5WN+3aZx/lzObJhxxySChfm/QoS+GQLVwG4gGhNTgp5DroUTgBn3T03nvv2VlnnWU9e/YMN+m2224bhJlPrMaR/ApB1LvA3+V1KPya6JMiIAIiIAIiUM4EWPKd4eU4F9gbCDXnQjDtBNp6tEdWrVplV155pS1dujQkQW+//fYBBYu5sJdXOfOp77HHLd5CSKxfvz7w/PrrrxOHUJbCwZ9VtJ5vp06dbMGCBdaxY8fMZl5dJRLRBiG5HOFfUWEwZcqUEEc4cOBAu+KKK6xLly6BVrRML0PFKC5wU+O1RIMmlwiIgAiIgAiIQHSxEb/TqI2GKX366ad2zTXX2FNPPWXjxo2zM888czOAUXtFhHMTIC+GjSFXZJ999rHly5cnoitb4RA1QjHh8IP24jNnzrRddtllM+HAPyg5JnFe1BINjD+E8Q92f/3rX+3GG2+0Pn36BA9E9+7dww6RY7LFFltkxITnzMmpOsrJ7LWFCIiACIiACFQiAdhu3jMQDUnyth2iHa6//nqbP39+yLVEuXj/oD2hoi35zxTfBwMiAnmtJ510koF50qNshQPj43CCvtQWFNPf/vY36927dy3hENf7IQlONb8frVpFEeBV/QMPPGBPPPGEvfvuu6GaAX6QZ8IvBTxTbHB/WhWo5lmlcxcBERABEah2An4B0Rv9eP3VV18ZohtQVhXdn48//viQz4BHVHRwP/RUSEAkzyzPHvYYbDTY0G+//badc8459tprryXupCyFQ1wnaQDA5DnqqKPshhtuCKvh0dq9Wu1OnA+ZDbxwADewjMbGkeerr75q999/f7jZkVyDyQcBh3CxXM1a0o9GW4qACIiACIiACJQ7gWjeAs4HYTIoajN9+vSQnHvqqafa2Wefbb169QqnC1vju+++CwuTfGTzXJQ7n/oev1/Q5bHAd9asWXbzzTeH65D0KEvh4E+KiTYUCcccc4xdcskl1q9fv8xqt8JkkqZB7fejpWt9HkmuJGe8hzAx9H+YPHmyId/k0EMPDdWYIOi23HJLdW3M71JoaxEQAREQARGoKALwKsBOgJEKm2HDhg3Bq4AFX3gY8GB0gvciRD0MFBV8VqO3dNMkmnyOTyF65O677w5dt5MeQTjUxKb/iFAUhpX4BmoMUcGB2MQN2e9JD+wYK87eaMdnfFkt3zk6GkrkPweF5MfHhmQYh18ZhyJF9R/Eaf3ud78LQ5TXIelKFf993uiLFy+25557LnxB4NogaX3XXXe1Hj162A477GD777+/NW3a1Fq1ahVERZs2bcJrlVUr/jXRHkVABERABESg2AS8vYh9//e//w1CADmPocNwjW35xhtv2DvvvGPLli0Lz4hIQAEWLCiieRsqNtL4Vw5qsa/Q5vuLhnTBjp4xY4Y9/vjjdt999yUOIAiHGqOuqJ2jcVR2jmaYi69sxNe+ARybinlhwQZj0UZxXl1SVPBzKNXVrVu3EG+PB8OaOA5NysQ5UZQN6A7zYhHZ+vgiQSxdTbdy++KLL2zRokXhC+abb74JsY34wkHpNT1EQAREQAREQATKi0D79u1DkZS2bduG0CIUqtlmm23CgiHKfeIZi8q+oZvsssa5xj58H94G2GioXpX0CMKh5gKWhHCIKld6IeI6TMfV+4Vqmjhxon3++ef25z//Wd6GpKtfj+/7ygi4fri28CRQ6cYlM7F6UxqPVj0OXbsWAREQAREQAREogEC0RD52EQ0p525Zyh22Hmw63z+qgEPrIykIREP3eb1Gjx5tnTt3DqH+SY9MjgNDgbJ9gBcYz2kMO3occg3Ahyrl2s6HKuUaHyYd6vwiUffBBx/MdI+Oi5VLAqP3CydA0RDXaCQaW4drQ88S51VUQBY+En1SBERABERABESgPgjk8hT4fk4UD1zwjbMNotvUx3i1z58SzSkeuDiP34899lg799xzbcCAAYmYSio5Otto40KVsC3FDHIzaGx+8MEHhgTpjz/+OAMnLhEkkYw2KJhAtMcGJ6lfTYircMUcGlxPPURABERABERABCqDQLYGsLLPGv76xtlfO+64Y0hWZ2PfXKOqJRyYHB33ARrpuMhpklcRv+6To2noR5Oj8XeflO3fpxryypWJ0TQuKRgwLvxt06ZNIdEWK9l0fzX8ZdERo01d/PWPE4LqKq05IwIiIAIiIALlRyBaUCe6qs0z8gYrow1oy6kHQ8Nfd0bzgP1WW20VckyRtJ70gH0fchx81aKokc/fWVmpmMKBoU/5VFXCOLC9d5NxbPgbukc//fTTIREHrjGKDQmJpOlQvPe9KzKu70ackFSCVPH4a08iIAIiIAIi0BAEvHBgIRoel7YZQ5HjFgkpNFROtf6vVlwfB0TqoAwuukanscOCcKhRfqmTo4vlcQAerjyn9Tj43Iq4sJbvv/8+eB1QjhU1gQcOHBh+962100Cp/0tX2UfgqkLcCoL/gohzl1U2GZ2dCIiACIiACFQ2gWz9nrwtBgJcMOZrRR403LzgtcDzI488Yg899FDov+Wb7GUbTb0JhzTJ0XURDtET8qFU1113XXC3jBkzJmwGQYHfZag23KTUkURABERABERABERABEqHQFwO6i233GLr16+3a6+9NlUqQt7J0Wk8DjDQkxrAeY+Dr6YTzXGI2y7uEnjh8PDDD9u8efPstttuC94G7J+9AdBwTA8REAEREAEREAEREAERqGYCyDU577zz7Oijjw4VlZKqptK+b1KTUFxWnaOjiTi46L6z9dq1a23fffe1zz77LPxdVXqq+bbQuYuACIiACIiACIiACJCA75uFBn1oxoumfWnyTILHoaZzb6JwyLeqUlLnaA66kOToOOHgxwevAhKkEbOFZ++aYU8HTR8REAEREAEREAEREAERqBYC0eJC8+fPt6FDh9rChQutRgtY8+bNE1FkOkcXs6oSXRkdOnQIeQVs8IXRRMuxFiIcsJ9ovoIXDvAwXHrppbbrrrvaWWedFVwvXjwoQTpxXmgDERABERABERABERCBCiLgbWG8Hj9+fIjOufnmm4OdnFQ1NROqhKpKldA5mpWWIBSYIY5O0ngoW7+CZr5ORQREQAREQAREQAREoGACiMA5+eSTbfDgwda/f/9UPRxwsIzHAb/kSorIJ1QJIiRXAziGGvlGYPgMXSj0KNBTka1ztKcVDVVChnjXrl3tyy+/zJT8Yj8B5TwUPM/0QREQAREQAREQAREQgTIlwJB92NatWrUKFZXwN2iAJI8D7fvQxyHJ48BVexj3SVnXVCQMVcoWGgRDnqFKufizu12Swe8bjWC/vXv3tnvvvdf23HPPsPs0SR9lOg80bBEQAREQAREQAREQARFIRQD5DRdeeGGoQprWHqd9X7HC4aabbrL27dvbsGHDMsJBIUup5pM2EgEREAEREAEREAERqCACvjHvhAkTQp+ziy++OFQfhdchTcuCig1VApy33nrLRowYYa+//rpyHCpo4utUREAEREAEREAEREAE8ifA4kK9evWyKVOmGJ4hGhCVkxSZk1eoEnMI0oQW0ZWBUKVcj7SukTShSn58UE44OYAAkH/+85/Wo0cPw37ShFnlfxn0CREQAREQAREQAREQAREoXQKMulmwYEEow4oFdlY/TduuoCLLsSK5g4oK4Upff/214RkP76Yp3UurkYmACIiACIiACIiACIhAcQlgEf2qq64yLO6PGjUq422AfZwUqpQpx1ppDeAgHNgxetWqVbbffvvZypUrJRqKO/e0NxEQAREQAREQAREQgTIhwKqmHTt2tHfeece23HLLIBZ++OGHkOeQFKqE0wweh02bNiV2jmbFonxClTAwrvxzsMVoABfXOdqPD8IBiqpZs2ZWc26hPu3VV19tRxxxRJlcWg1TBERABERABERABERABIpHAPbzrFmzbNy4cTZz5sxQfhV2+XfffRdEQ1L10oxwQDlW/FKsPg50ZeQSDjhetD+D7wbtX+fbx4GqiWFJaAb35JNPhtKsAKTO0cWbhNqTCIiACIiACIiACIhA6RNAHsPw4cPDgjqavzE/GHYzxEPz5s1znkStztHFFA5UJEnJ0RQETGaOEw74GwRAvuNjAgi7Se+888728ccfSzSU/rzWCEVABERABERABERABOqBQJcuXWz58uWZiCDayVhUTx2qVBPblFeoUlJnOZxnXOdof/4UBAx9woCzCQdfVYnbcV/0HkRDqXxIFF6PHj3aAAvNLpj/wH0gtispIaQerp12KQIiIAIiIAIiIAIiIAJFIcBFc9rY0UiiW265xb788kvDMx6spIQFenw2rX2fqgFcuZVjZXkpgMHrNWvWWLdu3Wzt2rUBlhcp/neVbC3K3NVOREAEREAEREAEREAEGpiADznyJVbxetttt7UlS5ZY27Zta9nBNUWSrEWLFqmickJydD45DvkkRyNUKVtyNDimyV1Iu50XNtmaWJx33nnWs2fP0BQOXgjveVCZ1gae2TqcCIiACIiACIiACIhA0QjQ4xC3wzvvvNMWLVpkEydOzFQZpe2LDtLwTqROjkaoEg6SNjk6KayHyRNeOMSt8nvhQEPehxhBAGBfaQQGhQOg4TzwWYCA2wWvobSgkg466KAQ24WHd+nwuBIQRZu/2pEIiIAIiIAIiIAIiEAjEGCTZYgB2MjwNqDhGwoX+SJBtHtRhRReh1yPTHJ0jWEechySkiJ89nUSAxjpScnRTMhIUjg4qXzHFycA8Ldhw4bZIYccYkOGDNlMWeVSaknnq/dFQAREQAREQAREQAREoLEIwE5H3i7aEfiQ/HvuucfmzZsXvA1YXPctErA4zwicJHsc55XpHI1f0nockpInMCCfHE3PAY7hVU59eRwwPngbWFYKx4FoAEjEdh1//PH23nvvZTwOGJdEQ2NNcx1XBERABERABERABESgWAS8MIA93L17d3v++edthx12CPYuHrTNYZezSJDvkxY3Ftr3qZKjaVwzFCjp5FavXm3t27evtVk0IZlulFyCBTvwVZVyHZeVlQABqsnD4X4ACpWVBgwYYIceemgmg5wAoxWXks5T74uACIiACIiACIiACIhAqRBgoR/YtP/+97/t2WefDU3fYHdjcd3bx7SdEdKfFKqE84N932TFihWpcxzSJEfDaGeoEgbE/IWocKgPjwPHhzEw2YPHZakplKI68MADbd26daVyjTUOERABERABERABERABEagTgWhrg5YtW9rChQszooCNkPEMscCF9qR0BQyK9n2DVFWKo1AfnaPTCBuMZcyYMUF5jR07Nggb5kQoObpO81UfFgEREAEREAEREAERqCcC2fKD49oMXHrppSEp+qKLLsrar6yQdgtVKRxYYemZZ56xrl27ZnIvJBzqaaZrtyIgAiIgAiIgAiIgAgUTYBSPzxeG4R9NdoZn4MMPPww5vSjBytxf5PpGHxIONQCTciYgDtAQ7p133rGbb745xH8RunIcCp7P+qAIiIAIiIAIiIAIiEA9EfCFfJKK+hx88MF2ww03WJ8+fUKIUdQjwSFKOKQQDoCFDtKtW7e2QYMG2QknnBB+IDi8iqun667dioAIiIAIiIAIiIAIiEBBBLKFKzEp+t5777U5c+YYyrDibxAO2RbVJRxSCAcAR6gS4r6+/fbb0Axjw4YNWdVYQVdVHxIBERABERABERABERCBIhOIJkAjkgbJzfiBUEA7AjyzqVsu74SEQwrhgOtXU0nKOnfuHC7l3//+d3vzzTdtwoQJmSTpIl9j7U4EREAEREAEREAEREAE6kQgGq6EnbEiEt47//zzQ6PjU045JUTRoMJoXG4DByHhkEI4ANJXX31lrVq1Cl4GuG/QSfqwww6zM888U+FKdZrS+rAIiIAIiIAIiIAIiEB9EPBFfFBOlU2Z0cRt2rRpNnfu3BCihAfbEuB1tq7QEg4phAMArlq1KoQq4UH1tv3229sLL7xgO+64Y31ca+1TBERABERABERABERABAom4IUD7VeEJSGS5sgjj7SlS5fWsm29uIg7aEHCYePGjT+y2zKefctpJguzs1zaPgnIIUDuAOOwfKkoDBy/+87RPC6P5z/nO0cXY3xw6XzxxRehszWOA7UGsCtXrrS+ffvasmXLMm4fjDXuIhV8xfVBERABERABERABERABEagDAd/cGHbtdtttZ6+++qptvfXWITQJ79N+9t2ieci62PdNvvvuu6J2jsag2DkaA8cJeeHA1/XZOTrpWkA4dOrUKYwLogFjBMSpU6faiy++aJMmTcq4dXzr7jSd9ZKOrfdFQAREQAREQAREQAREIB8CUXsUC9uwXYcNG2aHH364nXjiiZkO0XiPdjaEQ1HLsdbERZWEcPCeDoCkdyHaYToOcj6uFuwX3gUIBzwgHFiKFTFiZ599tvXv399OPvnkzWLCsoHP58JrWxEQAREQAREQAREQARHIlwDDk2j3Tp8+PfQjmzJlSmZXfA/b4sE8iKidjffysZ+xPRwDoXM0Q5WynUAhO+7QoUNOHj5UKdeGPlSpWOPzOQ7cJ0RD06ZNQ2gSQpbuuusu22OPPcLbcd368r3Y2l4EREAEREAEREAEREAE6koANivyGYYPH24vvfRSrd3RZsUfYdPmaoxciH0fhAN2XuwdQzjkWqFP40nAuNJsl8+JY1vmYGTrwodtkCSN7HSWba3rRdbnRUAEREAEREAEREAERKAQAj7RefXq1bbPPvsE8YBFb4YxYb8+/4F/h4MgrslxPvYz9p3xOOAXlGrK1jnZuz3o8sh10sgh8MnR/kT4GirIH9eLDJ8cHd0u7riFjo/CwSdA89jr16+3du3ahXJW+Fu2UlaFXHx9RgREQAREQAREQAREQATyJQABAbEA25T2r7dRGZIE2xZ2Luz2Ytr3TZDj4KsqRY18/s7KSsUUDjg55hdkEw7RqkrFGh88IgRJ4RB9/vTTT23//fcPZa4wzqRGGvlefG0vAiIgAiIgAiIgAiIgAmkIwE5F+4D58+dncnXxOR9S7wUF3vMRRdFIoEIW3vMKVaJySTq5JI8DPs8QJHo6kjwOaUKp0owP26xZs8ay5WDQC1FTbSrAfvfdd23o0KE2b968TIJJ0vnrfREQAREQAREQAREQAREoFgHYyb169bLJkydbz549MzZpXK8GigdGzPjIGj+ekhEOLMeaC1ZjCQeMKdf4KGAgHJo3bx5O4fXXX7drrrnGnnzyycwpMW4sLq6sWJNE+xEBERABERABERABEagMAlicjgt/94vnjPDB4rU3+AcMGGDXX3+97b777gEGF9QbauGd9nPRPQ4++djnKuCAPsYqmvQcd+L4TD7J0Wk8Dknj4zgQloTxIo6M4gGlWt98883NQpzwPmPKssWRVcaU11mIgAiIgAiIgAiIgAjkSyCuQic9A9gX+57hb+wbxsVpiIVp06bZXnvtFcKSUFUJwiEajeNt6fqyn5ts2rSpqjpHUzFl62wNwx9uHz7D64CLhIuzYMECO+644wy5D/idyhHb4iL7Kk35TihtLwIiIAIiIAIiIAIiUJkEslXy5Nn6kCOfU9u+fXt77rnnQosA2Js1dnuwQWF30vakwPAL9tEcYS5w43h16hy9cePGROGQbwxUUudo7M/3cWCzN55IvidezPFhDMxE5ziQh0HxgPwNtPZGLwifJxEXY1aZU19nJQIiIAIiIAIiIAIiUAiBbOFK2JcPU0Kz4l/+8pdhsZoFfWBrwiaFYICtyoJF9GY0hP1c9KpKDAViHwe6XrzCqYtwwH7qkhWeND7Gk0Gp4UIwVIkXhc00oAD/85//WI8ePXL2wChkUukzIiACIiACIiACIiAClUcgGpoPuxK2MuxOllldvHix9e/f3z7//PNaAPhZhCrhM9lClbBdsauS0n6uys7RScnbgM1qT95dFBUsRxxxhA0bNswGDRqk7tKVd2/rjERABERABERABESgaASi4UrYMfMZ8Boi4t5777X77rvPZs+enREG+LvPofXehmwVk7xwyHYCjNjBc67qpfx8aACHPg74Q7HKneLEcpVjZYyVT9rAZ3yLbCaGUDE15PgIZ8OGDdayZcta3g1eHIyVFxuiARd96tSpRZtY2pEIiIAIiIAIiIAIiEBlEfBGvg9xhwcBtvCQIUOsRYsWdvfdd4cT9xU+SQI2KIUDbGnmOjDRmpE+xU6Opn2fyuOAwfq4q6TL6HMcslUZ8jkOufaXRjEVc3xewOCiMgHFx435pBKMb8aMGTZmzJigDnfcccckPHpfBERABERABERABESgygh44UDvA+xINBru27evXXbZZXbhhRcGYcDCO77sP21xhtLH2aZEWl/2s4RDjcKLe+QSNvSaUN3h4n7yySeG0KWrrrrKBg8eHAQHXUBQf9kEFCcBFWOV3UM6XREQAREQAREQARGoGALRYjk+PCn6HsLhH3jgAbv22mvtlVdeCR6GLl26BPvRl2X1ofKNvfCuUKX/CQev2jB7s4VScTsKAUwCbAvXEibH8OHDQ+O422+/vVb4F91NnEC48Phcs2bNMjeLyrlWzPeGTkQEREAEREAERKCKCPg+DbAVEX4EG48eA+9toDC4+OKLQ3lVhCbBnly7dm2tip0eX6mE+qfyOBSSPOFLlea7ou+3T+Nqaejx+YvP15ggrMCEpBa4msaPH29nnHFGSLTGg9tGE67xHvM8fJJMFd1vOlUREAEREAEREAERKHsC0WRlX36VIUiwE0eOHGmTJk2yU089NbPQjBxh2s+0CwEkmkCdJpm5vuxnlWOtCSOiivN9JHL1mfCJKd98803wMLAhHC8uFCQmxbJly4KS3HnnnTcLV/KTKa6jYNnfPToBERABERABERABEagCAkxU5mIwe5Qx5Ah2HmxChLN37tzZpk+fninAw2gW9gjzQiGufCuFQz590DCuaHVQLrxjbOwJke1SZcqxqgFcbeFA91E24YD3AbeGW3BB+ZAjZsXD88DPz5s3L2TJn3baaXb99ddnXFYMS+JFzFZOqwruNZ2iCIiACIiACIiACJQ9AZ/I7KNLYONdeuml9sQTT9g999xjhxxyiH377bdh0RnGPyNTUFyoY8eOmUqjtEkpRvB7YzdQblKzMp7YOZoJvGlcIzg5nng0byDtir7/XH21zMaFKWR88CRstdVWYXJDKNBTADFBhYjJwj4QPMZ1111nf/nLX2zy5Ml27LHHZgQE9sNkGT/hyv7u0QmIgAiIgAiIgAiIQJUQoC3nuzvDRoRYGDp0aCieM3r06GA7wjaknYhnfAaPNWvWhFAl5tn64jr0LhRTOBRi34ccBwy2WH0c6MrIZZjjeNH6slFXDEVGsevQFmN8uGh44GJjfD7znarRJ0Hzb5gQN954oz399NP2xz/+MTSPk8ehSr5RdJoiIAIiIAIiIAIVT4D2H8LUx44da8cff3wo2d+6detga7PUP4UAc2Tx++rVq619+/ZhUTpbzmtj289FFw6YEUmdmb1wiK7M4z3vCaCRXixhU9fxRbPjvYjg3RDNnOffMTlwHsuXLw+T6bHHHjN4IpALgYeqKlX894lOUAREQAREQAREoAIJ0IabMGGC3XTTTXbUUUcFwYDyqqyiGQ1Lj/4eTY6mbYhnCgkKh8aynzdLjmaiMAbpG50xkTcpeQKfi+sc7edIsWO0vKul1MfHeDZceHggkPeArtPXXHONjRo1KmDCe5wQvkt1VFyAI5QrciriEl54DX0jEQozvhfnGanA+1mnJAIiIAIiIAIiUAUEovZQXDlUj4F2kF+8pZ3KRevoPmnwM7kYNtutt94aFoWR03rFFVfYtttuG+xoLBrD6M+1AM7xlIP9rHKsWW6iYjbY4MRijggSYrbccstwZPwNdXvHjRtn06ZNswMPPNBGjBhh/fr1y9oABD0hIJAYAsUJzUnvW5T7ZiM+7g7nF21MF21MUgXfLzpFERABERABERCBCiXguzPTcI+z77ho7kPPgQR2Ef7GcvteXECQzJo1y2bMmGEohDNgwAC78sorrW3btpvl0GLbNAvbaSJ26tM+TZoGGF9eoUr5JEcjuSNb8jEGliZ3Ie12UcM8zYk31vh89rxXqpyMmIB33XWXLVy40M4666xQ33evvfYyZud7txb/hv1wslNZ4z1MdBwvGjrlu1hHVXQSO70vAiIgAiIgAiIgAqVOgOVRGeITXRz1uQa0kxhdg3Pj4mz0PF9//XV75JFH7M4777QDDjgglFf9wx/+kInS4XGxL+bCYgzZ9uf3T+FQyvZz3p2jqbqyTRgmH3vDHNvGuY7wd4busDoRtwVkfCaNwKABjn2U+vgwcTh5aOR7NuwcCA7wQEyZMiVMxnPOOSdM0N69ewchwJq7/sbwJV7xeXzOH4OvvXDgjQShATXs3yv1LwWNTwREQAREQAREQARAgKv60XxRX7ESr72tmGvx1Id5v/zyy/bWW2+Fhm14IBwJpfZRZbNFixaZHNWoOKF3wC8al7v93KQGYijHmtSx2K+OJ03RNK4W3/ws1/6i8fm5gFPdlfr4vKeAWfXMVcDYP/vsM9tuu+0yYuu1116z559/PijcxYsX229+8xs74ogjrG/fvrbHHntkPApUzF5MxN0UzAlhHkUSL70vAiIgAiIgAiIgAuVIIG6RljYtzoflULF4SsP/jTfesLlz59qcOXNB1w/cAAAE60lEQVRCONK+++4bQpEOP/zwsICLB0UBbam4kvrcHysnJfErB/s5b49DUowWLoZP7qDnALD8arb3JLCttu/zUKjHodTH5z0OYBJVpzDq161bZ61ataoVD0eXGvIXnn322fAze/ZsW7lyZQhnateune255562yy672O67776ZVwP7xSQnHx/ehN4UUMxqQpd0S+t9ERABERABERCBUiXAHE8WloFd6cv7I8rFG/gw6D/66CN77733ws+nn35qDz/8sHXq1Cks0CLfFGIBDX+5wB61p6K2UzSxGg2DEQ2TFKpULvZzquRoTBCuUqfJCmcdWj+x4jLS0+RM4AKncfGU0/jiVCkmO9jiJ1tWffRGwISH0f/cc8/Z22+/nZn4S5cutW222cZ69uxpu+22W1DKmNioIdyyZcuQmI1n/A43G17zGid5nkr1y0LjEgEREAEREAERqF4CXNXfsGFD6Mq8fv16++qrrwy/w1aCAY/nRYsWhR8IBazwd+3aNSy8du/e3fbZZx/bb7/9gg3ly5/CNosKBOwPi7H4YTVM2mkQCYysYWh5mitTDvZzkxUrVqRuAJfG0AcsulqYt0B49e1xKJfxUQFjkjdv3jxMOIaLYWJ+/fXXweNAVxqUKntAkClvECpbqGHuB/vANXj//fftgw8+CDcKxAQ+g5sJVZzwDLGCG6pHjx42f/78cFPoIQIiIAIiIAIiIALlRgCG/q9//euQi4AFUfygwhHsJjQlhoG/ww47BPsKYqFXr14hWoM2FkPHIRIgCmCfcVEVti0rL/mqlN5Oow2F43zzzTe2xRZbBNsONhg+n7QwWy72c4NUVYqbfPXR+S6NcMBYolnrGt+PGWWcxqMkfrVnTF2remn+af55j6x/nU9xCH3/NQm3kvj9n0WLk0S/Y/T/N7tJrP9v+v+m+yP3/SHhUKMGZbjJcJPh9vNdoH+c+sepf5wyLEFAwlX2gRbGai9GaGGigfo4yDCXYS7DXIZ5NlNM/5j0j8nPDQlXCVcJVwlXCdcfs5bHb+z7Qx4HeRwyuRQKdVCog0L5Nv+HLWEjYSNh8/+yWrK6P3R/6P6orvtDwkHCQcIhEhctV6RipP0/QhlGMoxkGFWXYaQckZ9nvL7/9P0X/f6TcJBwkHCQcKi1mqhQEYWKNLYrXIabDDcQYLEOhboq1FWhrj8TaOzvZwkHCQcJBwkHCYea8nv6x1Q6/5gkHCQcJBziv5G0sKOFHQmH//3D1oqCVhRkuMlwUzlglROVYSTDqLENIwlXCVcJ1+zCtUlNk4sf2ZmZzS+4ORu2sStzPsmzaLZBMcCmGdwfm5Zxfzyuf59/852jNb6fk3fRaET8sk9szT/LVGTQ/dukVm1//72k75ef2OCh7+cfM6ExWd1PNW9A2Oj7Rd8v+v+r/7/V+v+jSU334KJ2jsZU8itG6JTn/zHxtV9RwD8sdkTG57ENP1ffdaQ1vp94s7t3viu+4id+un9r/wPV91/xVsz1/aLvF32/6Psll10i+6Xh7ecmP/zwQ0kIBwoK7+3A30pFOGh88aFUaf+xi5/41UcomuZfwxiWun91/+r+/dk7F1341P2h+6Oa7o+QHM1QpWKfeC53rw+1ybWddwVpfD8TEL/ss4Yrvpp/PxEodEVG/MQvyQOp7+f4u0Tfz/p+BgHdH7o/KvH/7/8HtZJRMPj31KEAAAAASUVORK5CYII=;" vertex="1" parent="1">
          <mxGeometry x="1190" y="80.5" width="782" height="549" as="geometry" />
        </mxCell>
      </root>
    </mxGraphModel>
  </diagram>
</mxfile>
